<svg width="120" height="25" viewBox="0 0 120 25" fill="none" xmlns="http://www.w3.org/2000/svg">
<path d="M18.188 1.168V10.528H4.148V1.168H0.692V25H4.148V13.984H18.188V25H21.608V1.168H18.188ZM23.4567 25H28.0287L35.6247 11.32L33.3567 7.18L23.4567 25ZM39.0447 5.128L36.7407 1.024L34.4727 5.128L36.7407 9.232L45.4887 25H50.0247L39.0447 5.128ZM67.0254 12.652L66.5934 12.004C66.6294 11.968 66.6654 11.968 66.6654 11.932C66.7014 11.932 66.7014 11.932 66.7014 11.932C66.7734 11.896 66.8454 11.86 66.8814 11.788H66.9174C66.9534 11.752 67.0254 11.716 67.0974 11.68C67.2414 11.572 67.3854 11.464 67.4934 11.356C67.5294 11.356 67.5654 11.32 67.6014 11.284C67.6734 11.248 67.7094 11.212 67.7454 11.176C67.8174 11.104 67.8894 11.032 67.9614 10.996L67.9974 10.96C68.0334 10.924 68.1054 10.888 68.1414 10.816C68.3214 10.708 68.4654 10.564 68.6094 10.384C70.2294 8.8 71.3814 6.784 71.8854 4.48C72.0654 3.652 72.1734 2.788 72.1734 1.888C72.1734 1.6 72.1734 1.312 72.1374 1.024H52.3014V25H55.7574V13.84H60.1854C60.2934 13.84 60.3654 13.84 60.4374 13.84C60.4734 13.84 60.5454 13.84 60.5814 13.84C60.6534 13.84 60.7254 13.84 60.7614 13.84C60.7974 13.84 60.7974 13.84 60.8334 13.84C60.9054 13.84 61.0134 13.84 61.1214 13.804C61.2294 13.804 61.3014 13.804 61.4094 13.804C61.4814 13.768 61.5894 13.768 61.6614 13.768C61.6974 13.768 61.7334 13.768 61.7694 13.732C61.8414 13.732 61.9134 13.732 61.9854 13.732C62.0214 13.696 62.0574 13.696 62.0934 13.696C62.1294 13.696 62.2014 13.696 62.2734 13.66C62.4534 13.624 62.6694 13.588 62.8854 13.552C62.9574 13.516 63.0654 13.516 63.1374 13.48C63.1734 13.48 63.1734 13.48 63.2094 13.48C63.2814 13.444 63.3174 13.444 63.3894 13.408C63.4254 13.408 63.4254 13.408 63.4254 13.408L63.6414 13.732L70.5174 25H74.5494L67.0254 12.652ZM63.5694 9.7C62.5254 10.168 61.3734 10.384 60.1854 10.384H55.7574V4.48H68.3214C67.8894 5.776 67.1694 6.964 66.1974 7.936C65.4054 8.692 64.5414 9.304 63.5694 9.7ZM79.8838 13.912H95.2558V10.456H79.8838V6.28H76.4278V25H97.5958V21.58H79.8838V13.912ZM76.4278 1.096V4.552H97.5958V1.096H76.4278ZM104.519 21.58V0.915999H101.063V25H119.675V21.58H104.519Z" fill="white"/>
</svg>
