<svg width="186" height="47" viewBox="0 0 186 47" fill="none" xmlns="http://www.w3.org/2000/svg">
<path d="M50.188 3.168V12.528H36.148V3.168H32.692V27H36.148V15.984H50.188V27H53.608V3.168H50.188ZM55.4567 27H60.0287L67.6247 13.32L65.3567 9.18L55.4567 27ZM71.0447 7.128L68.7407 3.024L66.4727 7.128L68.7407 11.232L77.4887 27H82.0247L71.0447 7.128ZM99.0254 14.652L98.5934 14.004C98.6294 13.968 98.6654 13.968 98.6654 13.932C98.7014 13.932 98.7014 13.932 98.7014 13.932C98.7734 13.896 98.8454 13.86 98.8814 13.788H98.9174C98.9534 13.752 99.0254 13.716 99.0974 13.68C99.2414 13.572 99.3854 13.464 99.4934 13.356C99.5294 13.356 99.5654 13.32 99.6014 13.284C99.6734 13.248 99.7094 13.212 99.7454 13.176C99.8174 13.104 99.8894 13.032 99.9614 12.996L99.9974 12.96C100.033 12.924 100.105 12.888 100.141 12.816C100.321 12.708 100.465 12.564 100.609 12.384C102.229 10.8 103.381 8.784 103.885 6.48C104.065 5.652 104.173 4.788 104.173 3.888C104.173 3.6 104.173 3.312 104.137 3.024H84.3014V27H87.7574V15.84H92.1854C92.2934 15.84 92.3654 15.84 92.4374 15.84C92.4734 15.84 92.5454 15.84 92.5814 15.84C92.6534 15.84 92.7254 15.84 92.7614 15.84C92.7974 15.84 92.7974 15.84 92.8334 15.84C92.9054 15.84 93.0134 15.84 93.1214 15.804C93.2294 15.804 93.3014 15.804 93.4094 15.804C93.4814 15.768 93.5894 15.768 93.6614 15.768C93.6974 15.768 93.7334 15.768 93.7694 15.732C93.8414 15.732 93.9134 15.732 93.9854 15.732C94.0214 15.696 94.0574 15.696 94.0934 15.696C94.1294 15.696 94.2014 15.696 94.2734 15.66C94.4534 15.624 94.6694 15.588 94.8854 15.552C94.9574 15.516 95.0654 15.516 95.1374 15.48C95.1734 15.48 95.1734 15.48 95.2094 15.48C95.2814 15.444 95.3174 15.444 95.3894 15.408C95.4254 15.408 95.4254 15.408 95.4254 15.408L95.6414 15.732L102.517 27H106.549L99.0254 14.652ZM95.5694 11.7C94.5254 12.168 93.3734 12.384 92.1854 12.384H87.7574V6.48H100.321C99.8894 7.776 99.1694 8.964 98.1974 9.936C97.4054 10.692 96.5414 11.304 95.5694 11.7ZM111.884 15.912H127.256V12.456H111.884V8.28H108.428V27H129.596V23.58H111.884V15.912ZM108.428 3.096V6.552H129.596V3.096H108.428ZM136.519 23.58V2.916H133.063V27H151.675V23.58H136.519Z" fill="white"/>
<path d="M12.838 33.004L10.178 43H8.904L6.958 36.448C6.88333 36.1773 6.80867 35.9067 6.734 35.636C6.65933 35.3653 6.59867 35.1273 6.552 34.922C6.50533 34.7073 6.47267 34.558 6.454 34.474C6.44467 34.5953 6.39333 34.8567 6.3 35.258C6.216 35.65 6.10867 36.0607 5.978 36.49L4.088 43H2.814L0.168 33.004H1.484L3.038 39.108C3.15 39.5373 3.24333 39.9527 3.318 40.354C3.402 40.7553 3.46733 41.1333 3.514 41.488C3.56067 41.124 3.63067 40.7273 3.724 40.298C3.81733 39.8687 3.92467 39.4487 4.046 39.038L5.81 33.004H7.112L8.946 39.08C9.07667 39.5093 9.18867 39.9387 9.282 40.368C9.37533 40.788 9.44533 41.1613 9.492 41.488C9.53867 41.1427 9.604 40.7693 9.688 40.368C9.772 39.9573 9.87 39.5327 9.982 39.094L11.522 33.004H12.838ZM16.8302 35.356C17.4742 35.356 18.0249 35.496 18.4822 35.776C18.9489 36.056 19.3035 36.4527 19.5462 36.966C19.7982 37.47 19.9242 38.0627 19.9242 38.744V39.486H14.7862C14.8049 40.3353 15.0195 40.984 15.4302 41.432C15.8502 41.8707 16.4335 42.09 17.1802 42.09C17.6562 42.09 18.0762 42.048 18.4402 41.964C18.8135 41.8707 19.1962 41.74 19.5882 41.572V42.65C19.2055 42.818 18.8275 42.9393 18.4542 43.014C18.0809 43.098 17.6375 43.14 17.1242 43.14C16.4149 43.14 15.7849 42.9953 15.2342 42.706C14.6929 42.4167 14.2682 41.9873 13.9602 41.418C13.6615 40.8393 13.5122 40.1347 13.5122 39.304C13.5122 38.4827 13.6475 37.778 13.9182 37.19C14.1982 36.602 14.5855 36.1493 15.0802 35.832C15.5842 35.5147 16.1675 35.356 16.8302 35.356ZM16.8162 36.364C16.2282 36.364 15.7615 36.5553 15.4162 36.938C15.0802 37.3113 14.8795 37.834 14.8142 38.506H18.6362C18.6269 37.8713 18.4775 37.358 18.1882 36.966C17.8989 36.5647 17.4415 36.364 16.8162 36.364ZM23.0665 32.36V34.95C23.0665 35.2673 23.0572 35.566 23.0385 35.846C23.0292 36.1167 23.0152 36.3313 22.9965 36.49H23.0665C23.2812 36.1727 23.5752 35.9067 23.9485 35.692C24.3219 35.4773 24.8025 35.37 25.3905 35.37C26.3239 35.37 27.0705 35.6967 27.6305 36.35C28.1999 36.994 28.4845 37.96 28.4845 39.248C28.4845 40.536 28.1999 41.5067 27.6305 42.16C27.0612 42.8133 26.3145 43.14 25.3905 43.14C24.8025 43.14 24.3219 43.0327 23.9485 42.818C23.5752 42.6033 23.2812 42.3467 23.0665 42.048H22.9685L22.7165 43H21.8345V32.36H23.0665ZM25.1805 36.392C24.3872 36.392 23.8365 36.6207 23.5285 37.078C23.2205 37.5353 23.0665 38.2447 23.0665 39.206V39.262C23.0665 40.186 23.2159 40.8953 23.5145 41.39C23.8225 41.8753 24.3872 42.118 25.2085 42.118C25.8805 42.118 26.3799 41.8707 26.7065 41.376C27.0425 40.8813 27.2105 40.1673 27.2105 39.234C27.2105 37.3393 26.5339 36.392 25.1805 36.392ZM43.409 37.904C43.409 39.5933 42.947 40.8673 42.023 41.726C41.1083 42.5753 39.8296 43 38.187 43H35.401V33.004H38.481C39.489 33.004 40.3616 33.1907 41.099 33.564C41.8363 33.9373 42.4056 34.488 42.807 35.216C43.2083 35.9347 43.409 36.8307 43.409 37.904ZM42.079 37.946C42.079 36.6113 41.7476 35.636 41.085 35.02C40.4316 34.3947 39.503 34.082 38.299 34.082H36.661V41.922H38.019C40.7256 41.922 42.079 40.5967 42.079 37.946ZM48.3575 35.356C49.0015 35.356 49.5522 35.496 50.0095 35.776C50.4762 36.056 50.8309 36.4527 51.0735 36.966C51.3255 37.47 51.4515 38.0627 51.4515 38.744V39.486H46.3135C46.3322 40.3353 46.5469 40.984 46.9575 41.432C47.3775 41.8707 47.9609 42.09 48.7075 42.09C49.1835 42.09 49.6035 42.048 49.9675 41.964C50.3409 41.8707 50.7235 41.74 51.1155 41.572V42.65C50.7329 42.818 50.3549 42.9393 49.9815 43.014C49.6082 43.098 49.1649 43.14 48.6515 43.14C47.9422 43.14 47.3122 42.9953 46.7615 42.706C46.2202 42.4167 45.7955 41.9873 45.4875 41.418C45.1889 40.8393 45.0395 40.1347 45.0395 39.304C45.0395 38.4827 45.1749 37.778 45.4455 37.19C45.7255 36.602 46.1129 36.1493 46.6075 35.832C47.1115 35.5147 47.6949 35.356 48.3575 35.356ZM48.3435 36.364C47.7555 36.364 47.2889 36.5553 46.9435 36.938C46.6075 37.3113 46.4069 37.834 46.3415 38.506H50.1635C50.1542 37.8713 50.0049 37.358 49.7155 36.966C49.4262 36.5647 48.9689 36.364 48.3435 36.364ZM54.7404 43L51.8984 35.496H53.2144L54.8104 39.92C54.8851 40.1253 54.9644 40.354 55.0484 40.606C55.1324 40.858 55.2071 41.1007 55.2724 41.334C55.3378 41.558 55.3844 41.7493 55.4124 41.908H55.4684C55.5058 41.7493 55.5571 41.5533 55.6224 41.32C55.6971 41.0867 55.7764 40.844 55.8604 40.592C55.9538 40.34 56.0331 40.116 56.0984 39.92L57.6944 35.496H59.0104L56.1544 43H54.7404ZM63.0958 35.356C63.7398 35.356 64.2905 35.496 64.7478 35.776C65.2145 36.056 65.5691 36.4527 65.8118 36.966C66.0638 37.47 66.1898 38.0627 66.1898 38.744V39.486H61.0518C61.0705 40.3353 61.2851 40.984 61.6958 41.432C62.1158 41.8707 62.6991 42.09 63.4458 42.09C63.9218 42.09 64.3418 42.048 64.7058 41.964C65.0791 41.8707 65.4618 41.74 65.8538 41.572V42.65C65.4711 42.818 65.0931 42.9393 64.7198 43.014C64.3465 43.098 63.9031 43.14 63.3898 43.14C62.6805 43.14 62.0505 42.9953 61.4998 42.706C60.9585 42.4167 60.5338 41.9873 60.2258 41.418C59.9271 40.8393 59.7778 40.1347 59.7778 39.304C59.7778 38.4827 59.9131 37.778 60.1838 37.19C60.4638 36.602 60.8511 36.1493 61.3458 35.832C61.8498 35.5147 62.4331 35.356 63.0958 35.356ZM63.0818 36.364C62.4938 36.364 62.0271 36.5553 61.6818 36.938C61.3458 37.3113 61.1451 37.834 61.0798 38.506H64.9018C64.8925 37.8713 64.7431 37.358 64.4538 36.966C64.1645 36.5647 63.7071 36.364 63.0818 36.364ZM69.3322 43H68.1002V32.36H69.3322V43ZM78.2335 39.234C78.2335 40.4753 77.9162 41.4367 77.2815 42.118C76.6562 42.7993 75.8069 43.14 74.7335 43.14C74.0709 43.14 73.4782 42.9907 72.9555 42.692C72.4422 42.384 72.0362 41.9407 71.7375 41.362C71.4389 40.774 71.2895 40.0647 71.2895 39.234C71.2895 37.9927 71.6022 37.036 72.2275 36.364C72.8529 35.692 73.7022 35.356 74.7755 35.356C75.4569 35.356 76.0542 35.51 76.5675 35.818C77.0902 36.1167 77.4962 36.5553 77.7855 37.134C78.0842 37.7033 78.2335 38.4033 78.2335 39.234ZM72.5635 39.234C72.5635 40.1207 72.7362 40.8253 73.0815 41.348C73.4362 41.8613 73.9962 42.118 74.7615 42.118C75.5175 42.118 76.0729 41.8613 76.4275 41.348C76.7822 40.8253 76.9595 40.1207 76.9595 39.234C76.9595 38.3473 76.7822 37.652 76.4275 37.148C76.0729 36.644 75.5129 36.392 74.7475 36.392C73.9822 36.392 73.4269 36.644 73.0815 37.148C72.7362 37.652 72.5635 38.3473 72.5635 39.234ZM83.7561 35.356C84.6801 35.356 85.4221 35.678 85.9821 36.322C86.5514 36.966 86.8361 37.9367 86.8361 39.234C86.8361 40.5127 86.5514 41.4833 85.9821 42.146C85.4221 42.8087 84.6754 43.14 83.7421 43.14C83.1634 43.14 82.6828 43.0327 82.3001 42.818C81.9268 42.594 81.6328 42.3373 81.4181 42.048H81.3341C81.3528 42.2067 81.3714 42.4073 81.3901 42.65C81.4088 42.8927 81.4181 43.1027 81.4181 43.28V46.36H80.1861V35.496H81.1941L81.3621 36.518H81.4181C81.6421 36.1913 81.9361 35.916 82.3001 35.692C82.6641 35.468 83.1494 35.356 83.7561 35.356ZM83.5321 36.392C82.7668 36.392 82.2254 36.6067 81.9081 37.036C81.6001 37.4653 81.4368 38.1187 81.4181 38.996V39.234C81.4181 40.158 81.5674 40.872 81.8661 41.376C82.1741 41.8707 82.7388 42.118 83.5601 42.118C84.0174 42.118 84.3908 41.992 84.6801 41.74C84.9788 41.488 85.1981 41.1473 85.3381 40.718C85.4874 40.2793 85.5621 39.78 85.5621 39.22C85.5621 38.3613 85.3941 37.6753 85.0581 37.162C84.7314 36.6487 84.2228 36.392 83.5321 36.392ZM91.6974 35.356C92.3414 35.356 92.892 35.496 93.3494 35.776C93.816 36.056 94.1707 36.4527 94.4134 36.966C94.6654 37.47 94.7914 38.0627 94.7914 38.744V39.486H89.6534C89.672 40.3353 89.8867 40.984 90.2974 41.432C90.7174 41.8707 91.3007 42.09 92.0474 42.09C92.5234 42.09 92.9434 42.048 93.3074 41.964C93.6807 41.8707 94.0634 41.74 94.4554 41.572V42.65C94.0727 42.818 93.6947 42.9393 93.3214 43.014C92.948 43.098 92.5047 43.14 91.9914 43.14C91.282 43.14 90.652 42.9953 90.1014 42.706C89.56 42.4167 89.1354 41.9873 88.8274 41.418C88.5287 40.8393 88.3794 40.1347 88.3794 39.304C88.3794 38.4827 88.5147 37.778 88.7854 37.19C89.0654 36.602 89.4527 36.1493 89.9474 35.832C90.4514 35.5147 91.0347 35.356 91.6974 35.356ZM91.6834 36.364C91.0954 36.364 90.6287 36.5553 90.2834 36.938C89.9474 37.3113 89.7467 37.834 89.6814 38.506H93.5034C93.494 37.8713 93.3447 37.358 93.0554 36.966C92.766 36.5647 92.3087 36.364 91.6834 36.364ZM100.202 35.356C100.342 35.356 100.491 35.3653 100.65 35.384C100.818 35.3933 100.962 35.412 101.084 35.44L100.93 36.574C100.808 36.546 100.673 36.5227 100.524 36.504C100.384 36.4853 100.248 36.476 100.118 36.476C99.7351 36.476 99.3757 36.5833 99.0397 36.798C98.7037 37.0033 98.4331 37.2973 98.2277 37.68C98.0317 38.0533 97.9337 38.492 97.9337 38.996V43H96.7017V35.496H97.7097L97.8497 36.868H97.9057C98.1484 36.4573 98.4611 36.1027 98.8437 35.804C99.2264 35.5053 99.6791 35.356 100.202 35.356ZM110.336 32.85C111.083 32.85 111.671 33.0413 112.1 33.424C112.539 33.7973 112.758 34.3247 112.758 35.006C112.758 35.594 112.567 36.0933 112.184 36.504C111.811 36.9147 111.335 37.288 110.756 37.624L113.458 40.228C113.701 39.9387 113.897 39.6073 114.046 39.234C114.205 38.8513 114.335 38.4407 114.438 38.002H115.684C115.535 38.5993 115.348 39.1547 115.124 39.668C114.9 40.1813 114.611 40.6293 114.256 41.012L116.3 43H114.634L113.416 41.824C112.977 42.216 112.487 42.5333 111.946 42.776C111.405 43.0187 110.747 43.14 109.972 43.14C109.011 43.14 108.245 42.902 107.676 42.426C107.107 41.95 106.822 41.2733 106.822 40.396C106.822 39.6773 107.013 39.1033 107.396 38.674C107.788 38.2353 108.315 37.8293 108.978 37.456C108.679 37.12 108.399 36.7607 108.138 36.378C107.886 35.9953 107.76 35.5473 107.76 35.034C107.76 34.3433 107.989 33.8067 108.446 33.424C108.913 33.0413 109.543 32.85 110.336 32.85ZM110.294 33.858C109.902 33.858 109.58 33.9607 109.328 34.166C109.085 34.3713 108.964 34.656 108.964 35.02C108.964 35.356 109.053 35.6687 109.23 35.958C109.407 36.238 109.664 36.5507 110 36.896C110.551 36.5787 110.943 36.28 111.176 36C111.419 35.7107 111.54 35.3793 111.54 35.006C111.54 34.67 111.428 34.3947 111.204 34.18C110.98 33.9653 110.677 33.858 110.294 33.858ZM109.72 38.226C109.216 38.5247 108.819 38.828 108.53 39.136C108.25 39.444 108.11 39.85 108.11 40.354C108.11 40.8673 108.283 41.278 108.628 41.586C108.973 41.894 109.435 42.048 110.014 42.048C110.611 42.048 111.125 41.95 111.554 41.754C111.983 41.558 112.343 41.3247 112.632 41.054L109.72 38.226ZM135.27 37.904C135.27 39.5933 134.808 40.8673 133.884 41.726C132.97 42.5753 131.691 43 130.048 43H127.262V33.004H130.342C131.35 33.004 132.223 33.1907 132.96 33.564C133.698 33.9373 134.267 34.488 134.668 35.216C135.07 35.9347 135.27 36.8307 135.27 37.904ZM133.94 37.946C133.94 36.6113 133.609 35.636 132.946 35.02C132.293 34.3947 131.364 34.082 130.16 34.082H128.522V41.922H129.88C132.587 41.922 133.94 40.5967 133.94 37.946ZM140.219 35.356C140.863 35.356 141.414 35.496 141.871 35.776C142.338 36.056 142.692 36.4527 142.935 36.966C143.187 37.47 143.313 38.0627 143.313 38.744V39.486H138.175C138.194 40.3353 138.408 40.984 138.819 41.432C139.239 41.8707 139.822 42.09 140.569 42.09C141.045 42.09 141.465 42.048 141.829 41.964C142.202 41.8707 142.585 41.74 142.977 41.572V42.65C142.594 42.818 142.216 42.9393 141.843 43.014C141.47 43.098 141.026 43.14 140.513 43.14C139.804 43.14 139.174 42.9953 138.623 42.706C138.082 42.4167 137.657 41.9873 137.349 41.418C137.05 40.8393 136.901 40.1347 136.901 39.304C136.901 38.4827 137.036 37.778 137.307 37.19C137.587 36.602 137.974 36.1493 138.469 35.832C138.973 35.5147 139.556 35.356 140.219 35.356ZM140.205 36.364C139.617 36.364 139.15 36.5553 138.805 36.938C138.469 37.3113 138.268 37.834 138.203 38.506H142.025C142.016 37.8713 141.866 37.358 141.577 36.966C141.288 36.5647 140.83 36.364 140.205 36.364ZM150.109 40.928C150.109 41.656 149.839 42.2067 149.297 42.58C148.756 42.9533 148.028 43.14 147.113 43.14C146.591 43.14 146.138 43.098 145.755 43.014C145.382 42.93 145.051 42.8133 144.761 42.664V41.544C145.06 41.6933 145.419 41.8333 145.839 41.964C146.269 42.0853 146.703 42.146 147.141 42.146C147.767 42.146 148.219 42.048 148.499 41.852C148.779 41.6467 148.919 41.376 148.919 41.04C148.919 40.8533 148.868 40.6853 148.765 40.536C148.663 40.3867 148.476 40.2373 148.205 40.088C147.944 39.9387 147.566 39.7707 147.071 39.584C146.586 39.3973 146.171 39.2107 145.825 39.024C145.48 38.8373 145.214 38.6133 145.027 38.352C144.841 38.0907 144.747 37.7547 144.747 37.344C144.747 36.7093 145.004 36.2193 145.517 35.874C146.04 35.5287 146.721 35.356 147.561 35.356C148.019 35.356 148.443 35.4027 148.835 35.496C149.237 35.58 149.61 35.7013 149.955 35.86L149.535 36.84C149.218 36.7093 148.887 36.5973 148.541 36.504C148.196 36.4107 147.841 36.364 147.477 36.364C146.973 36.364 146.586 36.448 146.315 36.616C146.054 36.7747 145.923 36.994 145.923 37.274C145.923 37.4793 145.984 37.6567 146.105 37.806C146.227 37.946 146.427 38.086 146.707 38.226C146.997 38.3567 147.379 38.5153 147.855 38.702C148.331 38.8793 148.737 39.0613 149.073 39.248C149.409 39.4347 149.666 39.6633 149.843 39.934C150.021 40.1953 150.109 40.5267 150.109 40.928ZM152.552 32.682C152.739 32.682 152.902 32.7473 153.042 32.878C153.192 32.9993 153.266 33.1953 153.266 33.466C153.266 33.7273 153.192 33.9233 153.042 34.054C152.902 34.1847 152.739 34.25 152.552 34.25C152.347 34.25 152.174 34.1847 152.034 34.054C151.894 33.9233 151.824 33.7273 151.824 33.466C151.824 33.1953 151.894 32.9993 152.034 32.878C152.174 32.7473 152.347 32.682 152.552 32.682ZM153.154 35.496V43H151.922V35.496H153.154ZM158.192 35.356C158.686 35.356 159.13 35.4493 159.522 35.636C159.923 35.8227 160.264 36.1073 160.544 36.49H160.614L160.782 35.496H161.762V43.126C161.762 44.1993 161.486 45.0067 160.936 45.548C160.394 46.0893 159.55 46.36 158.402 46.36C157.3 46.36 156.4 46.2013 155.7 45.884V44.75C156.437 45.142 157.361 45.338 158.472 45.338C159.116 45.338 159.62 45.1467 159.984 44.764C160.357 44.3907 160.544 43.8773 160.544 43.224V42.93C160.544 42.818 160.548 42.6593 160.558 42.454C160.567 42.2393 160.576 42.09 160.586 42.006H160.53C160.026 42.762 159.251 43.14 158.206 43.14C157.235 43.14 156.474 42.7993 155.924 42.118C155.382 41.4367 155.112 40.4847 155.112 39.262C155.112 38.0673 155.382 37.12 155.924 36.42C156.474 35.7107 157.23 35.356 158.192 35.356ZM158.36 36.392C157.734 36.392 157.249 36.644 156.904 37.148C156.558 37.6427 156.386 38.352 156.386 39.276C156.386 40.2 156.554 40.9093 156.89 41.404C157.235 41.8893 157.734 42.132 158.388 42.132C159.144 42.132 159.694 41.9313 160.04 41.53C160.385 41.1193 160.558 40.4613 160.558 39.556V39.262C160.558 38.2353 160.38 37.5027 160.026 37.064C159.671 36.616 159.116 36.392 158.36 36.392ZM167.757 35.356C168.653 35.356 169.33 35.5753 169.787 36.014C170.244 36.4433 170.473 37.1433 170.473 38.114V43H169.255V38.198C169.255 36.994 168.695 36.392 167.575 36.392C166.744 36.392 166.17 36.6253 165.853 37.092C165.536 37.5587 165.377 38.2307 165.377 39.108V43H164.145V35.496H165.139L165.321 36.518H165.391C165.634 36.126 165.97 35.8367 166.399 35.65C166.828 35.454 167.281 35.356 167.757 35.356ZM175.697 35.356C176.341 35.356 176.892 35.496 177.349 35.776C177.816 36.056 178.171 36.4527 178.413 36.966C178.665 37.47 178.791 38.0627 178.791 38.744V39.486H173.653C173.672 40.3353 173.887 40.984 174.297 41.432C174.717 41.8707 175.301 42.09 176.047 42.09C176.523 42.09 176.943 42.048 177.307 41.964C177.681 41.8707 178.063 41.74 178.455 41.572V42.65C178.073 42.818 177.695 42.9393 177.321 43.014C176.948 43.098 176.505 43.14 175.991 43.14C175.282 43.14 174.652 42.9953 174.101 42.706C173.56 42.4167 173.135 41.9873 172.827 41.418C172.529 40.8393 172.379 40.1347 172.379 39.304C172.379 38.4827 172.515 37.778 172.785 37.19C173.065 36.602 173.453 36.1493 173.947 35.832C174.451 35.5147 175.035 35.356 175.697 35.356ZM175.683 36.364C175.095 36.364 174.629 36.5553 174.283 36.938C173.947 37.3113 173.747 37.834 173.681 38.506H177.503C177.494 37.8713 177.345 37.358 177.055 36.966C176.766 36.5647 176.309 36.364 175.683 36.364ZM184.202 35.356C184.342 35.356 184.491 35.3653 184.65 35.384C184.818 35.3933 184.962 35.412 185.084 35.44L184.93 36.574C184.808 36.546 184.673 36.5227 184.524 36.504C184.384 36.4853 184.248 36.476 184.118 36.476C183.735 36.476 183.376 36.5833 183.04 36.798C182.704 37.0033 182.433 37.2973 182.228 37.68C182.032 38.0533 181.934 38.492 181.934 38.996V43H180.702V35.496H181.71L181.85 36.868H181.906C182.148 36.4573 182.461 36.1027 182.844 35.804C183.226 35.5053 183.679 35.356 184.202 35.356Z" fill="white"/>
</svg>
