<svg width="100" height="100" viewBox="0 0 100 100" fill="none" xmlns="http://www.w3.org/2000/svg">
<path d="M23.3855 14.3555H25.9863L25.9992 24.3421C26 25.0089 26.5408 25.6837 27.2078 25.6837C27.2082 25.6837 27.2086 25.6837 27.2094 25.6837C27.877 25.6837 28.4172 25.0061 28.4164 24.3389L28.4035 14.3555H30.9945C31.4176 14.3555 31.7922 14.2589 31.9494 13.8669C32.107 13.4747 32.0107 13.1112 31.7049 12.8194L27.9004 9.22408C27.5021 8.8442 26.8785 8.86295 26.4799 9.24381L22.6752 12.8883C22.3697 13.1801 22.2738 13.4702 22.4311 13.8624C22.5883 14.2544 22.9629 14.3555 23.3855 14.3555Z" fill="#F8FAFC"/>
<path d="M72.4609 28.052C71.793 28.052 71.3867 28.5926 71.3867 29.2606V32.917C71.7773 32.8071 72.7539 32.7106 73.5352 32.6268V29.2608C73.5352 28.5926 73.1289 28.052 72.4609 28.052Z" fill="#F8FAFC"/>
<path d="M68.8332 14.3557H71.4344L71.4469 24.3422C71.4477 25.009 71.9885 25.6838 72.6555 25.6838C72.6559 25.6838 72.6567 25.6838 72.6571 25.6838C73.3246 25.6838 73.8649 25.0063 73.8641 24.3391L73.8514 14.3557H76.4424C76.8651 14.3557 77.1883 14.2594 77.3455 13.8674C77.5032 13.4752 77.6366 13.1418 77.0506 12.85V12.874L73.2973 9.25158C72.8987 8.87131 72.3002 8.87697 71.9018 9.25763L68.1104 12.8949C67.8045 13.1867 67.7147 13.4729 67.8721 13.8658C68.0291 14.258 68.4106 14.3557 68.8332 14.3557Z" fill="#F8FAFC"/>
<path d="M55.991 19.6639L54.2363 14.2635C54.1451 13.9825 54.2451 13.6749 54.4843 13.5014L59.0781 10.0442C59.6125 9.6559 59.3382 8.69165 58.6775 8.69165H52.999C52.7037 8.69165 52.4416 8.62055 52.3506 8.33989L50.5959 2.99907C50.3918 2.37075 49.5029 2.40063 49.2988 3.02876L47.5441 8.32505C47.4529 8.60591 47.1908 8.69165 46.8957 8.69165H41.2172C40.5568 8.69165 40.2822 9.6559 40.8166 10.0442L45.4105 13.442C45.6498 13.6153 45.7496 13.9528 45.6582 14.234L43.9035 19.6493C43.6994 20.2776 44.4185 20.8075 44.9529 20.419L49.5468 17.085C49.7857 16.9114 50.1091 16.9133 50.3484 17.0872L54.9423 20.4254C55.4763 20.8137 56.1951 20.2922 55.991 19.6639Z" fill="#F8FAFC"/>
<path d="M89.3365 87.2777C89.5115 87.2965 89.5828 87.306 89.7578 87.306C92.2889 87.306 94.2381 85.2429 94.2381 82.7117V38.3695C93.8475 38.3222 92.8709 38.2795 92.4803 38.2463V35.3818C92.4803 33.9933 91.4674 32.8332 90.0916 32.6927C86.7916 32.3545 80.5416 31.9324 73.7521 32.6263C72.9521 32.7103 72.152 32.8068 71.3432 32.9166C63.8023 33.9843 56.1168 36.5638 51.2744 42.2328C51.2732 42.2343 51.2695 42.2359 51.2695 42.2373V95.2894C51.6602 95.1132 52.658 94.7787 53.2607 94.2992C56.8236 91.4699 65.023 86.7236 80.1215 86.7236C83.0646 86.7238 86.157 86.9131 89.3365 87.2777ZM58.7705 47.68C66.1775 43.5797 73.8523 42.1185 82.9256 43.0814C83.5893 43.1519 84.0699 43.7466 83.9998 44.4109C83.9297 45.0742 83.3357 45.5531 82.6703 45.4851C74.1154 44.5757 66.8928 45.9459 59.9412 49.7945C59.7555 49.897 59.5547 49.9459 59.3568 49.9459C58.9314 49.9459 58.5191 49.7213 58.2986 49.3226C57.9752 48.7386 58.1865 48.0031 58.7705 47.68ZM58.7705 56.3101C66.1775 52.2097 73.8523 50.7476 82.9256 51.7115C83.5893 51.782 84.0699 52.3771 83.9998 53.041C83.9297 53.7043 83.3357 54.1832 82.6703 54.1152C74.1154 53.2058 66.8928 54.5763 59.9412 58.4246C59.7555 58.5271 59.5547 58.5759 59.3568 58.5759C58.9314 58.5759 58.5191 58.3513 58.2986 57.9527C57.9752 57.3687 58.1865 56.6332 58.7705 56.3101ZM58.7705 64.94C66.1775 60.84 73.8523 59.3777 82.9256 60.3414C83.5893 60.4119 84.0699 61.007 83.9998 61.6709C83.9297 62.3341 83.3357 62.8131 82.6703 62.7451C74.1154 61.8357 66.8928 63.2062 59.9412 67.0545C59.7555 67.1574 59.5547 67.2058 59.3568 67.2058C58.9314 67.2058 58.5191 66.9812 58.2986 66.5826C57.9752 65.9986 58.1865 65.2631 58.7705 64.94ZM59.9412 75.6845C59.7555 75.7875 59.5547 75.8363 59.3568 75.8363C58.9314 75.8363 58.5191 75.6113 58.2986 75.2127C57.9752 74.6287 58.1865 73.8935 58.7705 73.5705C66.1775 69.4701 73.8523 68.0082 82.9256 68.9715C83.5893 69.042 84.0699 69.6371 83.9998 70.3009C83.9297 70.9648 83.3357 71.4427 82.6703 71.3752C74.1156 70.4656 66.8928 71.8363 59.9412 75.6845Z" fill="#F8FAFC"/>
<path d="M28.418 32.8811V29.2606C28.418 28.5926 27.7188 28.052 27.0508 28.052C26.3828 28.052 25.6836 28.5926 25.6836 29.2606V32.3243C25.6836 32.3243 25.9809 32.3243 25.9799 32.3243C19.2477 31.9336 13.0309 32.2098 9.75703 32.5481C8.38145 32.6885 7.32422 33.9934 7.32422 35.3819V38.2463C6.54297 38.2795 5.95703 38.3223 5.56641 38.3696V82.7116C5.56641 85.243 7.56992 87.3059 10.1014 87.3059C10.2814 87.3059 10.4289 87.2963 10.6041 87.2776C13.7836 86.9129 16.874 86.7237 19.8217 86.7237C34.9152 86.7237 43.0332 91.47 46.5961 94.2993C47.1977 94.7772 48.1445 95.1114 48.5352 95.2887V42.1629C43.6523 36.4557 35.8398 33.9362 28.418 32.8811ZM41.3461 75.2127C41.1252 75.6114 40.7129 75.8364 40.2875 75.8364C40.0895 75.8364 39.8889 75.7876 39.7035 75.6846C32.752 71.8364 25.5297 70.4672 16.9744 71.3753C16.3092 71.4424 15.7156 70.9647 15.6449 70.301C15.5742 69.6374 16.0555 69.0422 16.7191 68.9715C25.7932 68.0094 33.4668 69.4698 40.8742 73.5706C41.458 73.8936 41.6693 74.6288 41.3461 75.2127ZM41.3461 66.5827C41.1252 66.9813 40.7129 67.2059 40.2875 67.2059C40.0895 67.2059 39.8889 67.1575 39.7035 67.0545C32.752 63.2063 25.5297 61.8376 16.9744 62.7452C16.3092 62.812 15.7156 62.3346 15.6449 61.671C15.5742 61.0073 16.0555 60.4122 16.7191 60.3415C25.7932 59.379 33.4668 60.8393 40.8742 64.9401C41.458 65.2631 41.6693 65.9987 41.3461 66.5827ZM41.3461 57.9528C41.1252 58.3514 40.7129 58.576 40.2875 58.576C40.0895 58.576 39.8889 58.5272 39.7035 58.4247C32.752 54.5764 25.5297 53.2069 16.9744 54.1153C16.3092 54.1821 15.7156 53.7047 15.6449 53.0411C15.5742 52.3774 16.0555 51.7823 16.7191 51.7116C25.7932 50.7499 33.4668 52.2098 40.8742 56.3102C41.458 56.6333 41.6693 57.3688 41.3461 57.9528ZM41.3461 49.3227C41.1252 49.7213 40.7129 49.946 40.2875 49.946C40.0895 49.946 39.8889 49.8971 39.7035 49.7946C32.752 45.9463 25.5297 44.5772 16.9744 45.4852C16.3092 45.5524 15.7156 45.0747 15.6449 44.411C15.5744 43.7469 16.0555 43.1522 16.7191 43.0815C25.7932 42.1194 33.4668 43.5797 40.8742 47.6801C41.458 48.0032 41.6693 48.7387 41.3461 49.3227Z" fill="#F8FAFC"/>
<path d="M94.4072 91.0752C74.1398 88.9344 61.9383 93.457 55.5703 97.3633H94.0838C95.9117 97.3633 97.3627 96.0043 97.3627 94.1768V88.4463C97.3629 90.0457 95.998 91.2414 94.4072 91.0752Z" fill="#F8FAFC"/>
<path d="M5.44473 91.0752C3.85391 91.2416 2.44141 90.0457 2.44141 88.4463V94.1768C2.44141 96.0043 3.97891 97.3633 5.80723 97.3633H44.3207C37.9576 93.457 25.7123 88.9344 5.44473 91.0752Z" fill="#F8FAFC"/>
</svg>
