<svg width="136" height="120" viewBox="0 0 136 120" fill="none" xmlns="http://www.w3.org/2000/svg">
<g clip-path="url(#clip0)">
<path d="M53.3893 64.3539C50.8181 67.1861 50.1876 69.218 46.8212 74.5392C48.9953 76.0574 53.1834 79.5687 56.0845 85.6142C61.8789 82.2906 64.5805 81.7833 67.651 79.1979C87.6945 62.3162 136.79 1.8043 135.099 0.0537893C133.314 -1.80705 71.038 44.9959 53.3893 64.3539Z" fill="#F8FAFC"/>
<path d="M41.0288 79.2398C32.319 77.7005 23.7277 83.2065 17.9892 96.9632C12.2425 110.719 1.98805 116.227 0.000244141 115.89C10.7042 119.762 43.3412 129.666 51.4542 91.9614C48.0131 82.9185 41.0288 79.2398 41.0288 79.2398Z" fill="#F8FAFC"/>
</g>
<defs>
<clipPath id="clip0">
<rect width="135.142" height="120" fill="white"/>
</clipPath>
</defs>
</svg>
