<svg width="10" height="20" viewBox="0 0 10 20" fill="none" xmlns="http://www.w3.org/2000/svg">
<path fill-rule="evenodd" clip-rule="evenodd" d="M2.0457 10.0762V19.7388C2.0457 19.8694 2.15452 20 2.30685 20H5.89772C6.02829 20 6.15887 19.8912 6.15887 19.7388V9.90207H8.74864C8.87922 9.90207 8.98803 9.79325 9.00979 9.66268L9.22742 6.7247C9.24918 6.57236 9.11861 6.44178 8.96627 6.44178H6.13711V4.35256C6.13711 3.85201 6.52884 3.46028 7.02938 3.46028H9.03156C9.16213 3.46028 9.29271 3.35147 9.29271 3.19913V0.261153C9.29271 0.130576 9.18389 0 9.03156 0H5.63656C3.65615 0 2.0457 1.61045 2.0457 3.59086V6.44178H0.261154C0.130577 6.44178 0 6.5506 0 6.70294V9.66268C0 9.79325 0.108814 9.92383 0.261154 9.92383H2.0457V10.0762V10.0762Z" fill="#111827"/>
</svg>
