<svg width="17" height="20" viewBox="0 0 17 20" fill="none" xmlns="http://www.w3.org/2000/svg">
<path d="M11.9253 20H9.2609H6.59431C6.59431 20 6.60201 18.4179 6.59431 17.3334C2.94508 18.1195 1.92667 15.3335 1.92667 15.3335C1.26057 13.9996 0.592821 13.3335 0.592821 13.3335C-0.741026 12.5419 0.592821 12.6674 0.592821 12.6674C1.92667 12.6674 2.59277 14.0013 2.59277 14.0013C3.76312 15.988 5.84509 15.6682 6.59266 15.3351C6.59266 14.669 6.88442 13.6605 7.25875 13.3352C4.34664 13.0076 1.92281 11.3352 1.92281 8.00143C1.92281 4.66764 2.59222 4.00154 3.25886 3.33379C3.12454 3.00515 2.56579 1.78966 3.27923 0C3.27923 0 4.58941 2.62496e-07 5.92325 1.99995C6.58385 1.33935 8.58985 1.33385 9.25705 1.33385C9.92204 1.33385 11.9291 1.33935 12.5897 1.99995C13.9236 2.62496e-07 15.2371 0 15.2371 0C15.9505 1.78966 15.3923 3.00515 15.2574 3.33379C15.9235 3.99989 16.5913 4.66764 16.5913 8.00143C16.5913 11.3352 14.1708 13.0065 11.2575 13.3352C11.633 13.6605 11.9236 14.8077 11.9236 15.3351L11.9253 20Z" fill="#111827"/>
</svg>
