<svg width="100" height="100" viewBox="0 0 100 100" fill="none" xmlns="http://www.w3.org/2000/svg">
<path d="M21.9051 13.2117H38.3527V59.3091C38.3527 80.0855 28.3979 87.3359 12.4906 87.3359C8.59531 87.3359 3.61777 86.6867 0.371094 85.6046L2.21074 72.2949C4.4832 73.0523 7.40488 73.5933 10.651 73.5933C17.5764 73.5933 21.9051 70.455 21.9051 59.2013V13.2117V13.2117Z" fill="#F8FAFC"/>
<path d="M52.6336 69.2644C56.9619 71.5369 63.8875 73.8094 70.9211 73.8094C78.4959 73.8094 82.4996 70.6715 82.4996 65.8019C82.4996 61.3654 79.0369 58.6603 70.2719 55.6303C58.1521 51.3018 50.1449 44.5928 50.1449 33.8803C50.1449 21.4359 60.6412 12.0215 77.7383 12.0215C86.0707 12.0215 92.0219 13.6451 96.3506 15.7008L92.6711 28.9023C89.8578 27.4959 84.5553 25.4396 77.5223 25.4396C70.3803 25.4396 66.9174 28.7941 66.9174 32.4734C66.9174 37.1266 70.9211 39.1822 80.4439 42.8617C93.3205 47.623 99.2721 54.332 99.2721 64.7201C99.2721 76.9478 89.966 87.3361 69.9473 87.3361C61.6148 87.3361 53.3906 85.0635 49.2793 82.7912L52.6336 69.2644Z" fill="#F8FAFC"/>
</svg>
