<svg width="21" height="20" viewBox="0 0 21 20" fill="none" xmlns="http://www.w3.org/2000/svg">
<path d="M20.9327 12.2538V19.6372C20.9327 19.8186 20.7773 19.974 20.5959 19.974H16.7876C16.6063 19.974 16.4508 19.8186 16.4508 19.6372V12.772C16.4508 10.9585 15.8032 9.71497 14.171 9.71497C12.9275 9.71497 12.2021 10.544 11.8653 11.3471C11.7358 11.6321 11.7099 12.0466 11.7099 12.4352V19.6372C11.7099 19.8186 11.5545 19.974 11.3731 19.974H7.59073C7.40939 19.974 7.25395 19.8186 7.25395 19.6372C7.25395 17.7979 7.30576 8.91186 7.25395 6.83932C7.25395 6.65797 7.40939 6.50253 7.59073 6.50253H11.399C11.5804 6.50253 11.7358 6.65797 11.7358 6.83932V8.41963C11.7358 8.44554 11.7099 8.44554 11.7099 8.47144H11.7358V8.41963C12.3317 7.51289 13.3938 6.19165 15.7773 6.19165C18.7306 6.19165 20.9327 8.13466 20.9327 12.2538ZM0.621822 19.9999H4.43011C4.61146 19.9999 4.7669 19.8445 4.7669 19.6632V6.83932C4.7669 6.65797 4.61146 6.50253 4.43011 6.50253H0.621822C0.440474 6.50253 0.285034 6.65797 0.285034 6.83932V19.6632C0.310941 19.8445 0.440474 19.9999 0.621822 19.9999Z" fill="#111827"/>
<path d="M2.40933 4.81865C3.73996 4.81865 4.81865 3.73996 4.81865 2.40933C4.81865 1.07869 3.73996 0 2.40933 0C1.07869 0 0 1.07869 0 2.40933C0 3.73996 1.07869 4.81865 2.40933 4.81865Z" fill="#111827"/>
</svg>
