<svg width="100" height="100" viewBox="0 0 100 100" fill="none" xmlns="http://www.w3.org/2000/svg">
<path d="M50 41.0877C48.8296 41.0877 47.6706 41.3182 46.5893 41.7661C45.508 42.214 44.5255 42.8705 43.6979 43.6981C42.8703 44.5257 42.2138 45.5082 41.7659 46.5895C41.318 47.6708 41.0875 48.8297 41.0875 50.0002C41.0875 51.1706 41.318 52.3295 41.7659 53.4108C42.2138 54.4921 42.8703 55.4746 43.6979 56.3022C44.5255 57.1298 45.508 57.7863 46.5893 58.2342C47.6706 58.6821 48.8296 58.9127 50 58.9127C51.1704 58.9127 52.3293 58.6821 53.4107 58.2342C54.492 57.7863 55.4745 57.1298 56.3021 56.3022C57.1297 55.4746 57.7862 54.4921 58.2341 53.4108C58.682 52.3295 58.9125 51.1706 58.9125 50.0002C58.9125 48.8297 58.682 47.6708 58.2341 46.5895C57.7862 45.5082 57.1297 44.5257 56.3021 43.6981C55.4745 42.8705 54.492 42.214 53.4107 41.7661C52.3293 41.3182 51.1704 41.0877 50 41.0877ZM25.0333 67.7293L23.0667 67.2293C8.40833 63.5252 0 57.2377 0 49.9835C0 42.7293 8.40833 36.4418 23.0667 32.7376L25.0333 32.2418L25.5875 34.1918C27.0724 39.3073 28.9718 44.2932 31.2667 49.1002L31.6875 49.9877L31.2667 50.8752C28.9679 55.6804 27.0685 60.6667 25.5875 65.7835L25.0333 67.7293ZM22.1542 37.2918C11.0125 40.421 4.175 45.2085 4.175 49.9835C4.175 54.7543 11.0125 59.5418 22.1542 62.6752C23.5168 58.3415 25.162 54.1019 27.0792 49.9835C25.1598 45.866 23.5145 41.6262 22.1542 37.2918V37.2918ZM74.9667 67.7293L74.4125 65.7752C72.9291 60.66 71.0282 55.6752 68.7292 50.871L68.3083 49.9835L68.7292 49.096C71.0274 44.29 72.9282 39.3039 74.4125 34.1876L74.9667 32.2376L76.9375 32.7335C91.5917 36.4376 100 42.7252 100 49.9835C100 57.2418 91.5917 63.5252 76.9375 67.2293L74.9667 67.7293V67.7293ZM72.9208 49.9835C74.9208 54.3127 76.575 58.5668 77.8458 62.6752C88.9917 59.5418 95.825 54.7543 95.825 49.9835C95.825 45.2085 88.9875 40.4251 77.8458 37.2918C76.4851 41.6261 74.8398 45.8658 72.9208 49.9835V49.9835ZM22.125 37.271L21.5708 35.3251C17.45 20.8001 18.7 10.3918 25 6.75848C31.1792 3.19181 41.1 7.40431 51.4958 18.0751L52.9125 19.5293L51.4958 20.9835C47.8019 24.8235 44.4269 28.958 41.4042 33.346L40.8417 34.1501L39.8625 34.2335C34.5455 34.6526 29.2712 35.5027 24.0917 36.7752L22.125 37.271V37.271ZM30.025 9.64598C28.9083 9.64598 27.9208 9.88765 27.0875 10.3668C22.9458 12.7543 22.2125 21.0543 25.0667 32.2543C29.5068 31.2665 34.0066 30.5692 38.5375 30.1668C41.1518 26.4497 44.0079 22.9087 47.0875 19.5668C40.5875 13.2376 34.4333 9.64598 30.025 9.64598V9.64598ZM69.9792 94.4877C69.975 94.4877 69.975 94.4877 69.9792 94.4877C64.0417 94.4877 56.4167 90.0168 48.5042 81.8918L47.0875 80.4377L48.5042 78.9835C52.1971 75.1422 55.5708 71.0063 58.5917 66.6168L59.1542 65.8127L60.1292 65.7293C65.449 65.3125 70.7261 64.4638 75.9083 63.1918L77.875 62.696L78.4333 64.646C82.5458 79.1627 81.3 89.5751 75 93.2043C73.4697 94.0696 71.7369 94.5125 69.9792 94.4877V94.4877ZM52.9125 80.4001C59.4125 86.7293 65.5667 90.321 69.975 90.321H69.9792C71.0917 90.321 72.0833 90.0793 72.9125 89.6002C77.0542 87.2126 77.7917 78.9085 74.9333 67.7085C70.492 68.6976 65.9907 69.395 61.4583 69.796C58.8472 73.5157 55.9924 77.0582 52.9125 80.4001V80.4001ZM77.875 37.271L75.9083 36.7752C70.7267 35.499 65.4494 34.6489 60.1292 34.2335L59.1542 34.1501L58.5917 33.346C55.5724 28.9566 52.1986 24.822 48.5042 20.9835L47.0875 19.5293L48.5042 18.0751C58.8958 7.40848 68.8125 3.19598 75 6.75848C81.3 10.3918 82.55 20.8001 78.4333 35.321L77.875 37.271ZM61.4583 30.1668C66.2167 30.6001 70.7375 31.3043 74.9333 32.2543C77.7917 21.0543 77.0542 12.7543 72.9125 10.3668C68.7958 7.98765 61.0583 11.6335 52.9125 19.5668C55.9906 22.9088 58.8454 26.4498 61.4583 30.1668V30.1668ZM30.025 94.4877C28.2658 94.5132 26.5315 94.0703 25 93.2043C18.7 89.5751 17.45 79.1668 21.5708 64.646L22.1208 62.696L24.0875 63.1918C28.9 64.4043 34.2083 65.2585 39.8583 65.7293L40.8375 65.8127L41.3958 66.6168C44.419 71.0057 47.794 75.1416 51.4875 78.9835L52.9042 80.4377L51.4875 81.8918C43.5792 90.0168 35.9542 94.4877 30.025 94.4877V94.4877ZM25.0667 67.7085C22.2083 78.9085 22.9458 87.2126 27.0875 89.6002C31.2 91.946 38.9333 88.3293 47.0875 80.4001C44.0092 77.0558 41.1531 73.5135 38.5375 69.796C34.0064 69.3953 29.5065 68.698 25.0667 67.7085V67.7085ZM50 70.3252C46.5708 70.3252 43.0458 70.1752 39.5167 69.8835L38.5375 69.8002L37.975 68.996C35.9788 66.1277 34.1022 63.1779 32.35 60.1543C30.603 57.1283 28.9822 54.0312 27.4917 50.871L27.075 49.9835L27.4917 49.096C28.9819 45.9356 30.6028 42.8385 32.35 39.8127C34.075 36.8293 35.9708 33.8543 37.975 30.971L38.5375 30.1668L39.5167 30.0835C46.4944 29.4918 53.5097 29.4918 60.4875 30.0835L61.4625 30.1668L62.0208 30.971C66.0174 36.7087 69.5255 42.7717 72.5083 49.096L72.9292 49.9835L72.5083 50.871C69.5326 57.199 66.0242 63.2626 62.0208 68.996L61.4625 69.8002L60.4875 69.8835C56.9583 70.1752 53.4292 70.3252 50 70.3252V70.3252ZM40.8458 65.8085C47.0125 66.271 52.9875 66.271 59.1583 65.8085C62.6035 60.772 65.6622 55.4819 68.3083 49.9835C65.6669 44.4817 62.6065 39.1912 59.1542 34.1585C53.0601 33.696 46.9398 33.696 40.8458 34.1585C37.392 39.1902 34.3315 44.4809 31.6917 49.9835C34.3407 55.4812 37.4007 60.7713 40.8458 65.8085V65.8085Z" fill="#F8FAFC"/>
</svg>
