<svg width="100" height="100" viewBox="0 0 100 100" fill="none" xmlns="http://www.w3.org/2000/svg">
<g clip-path="url(#clip0)">
<path d="M50 0C40.111 0 30.444 2.93245 22.2215 8.42652C13.9991 13.9206 7.59043 21.7295 3.80605 30.8658C0.0216643 40.0021 -0.968503 50.0555 0.960758 59.7545C2.89002 69.4536 7.65206 78.3627 14.6447 85.3553C21.6373 92.348 30.5465 97.11 40.2455 99.0393C49.9446 100.969 59.9979 99.9784 69.1342 96.194C78.2705 92.4096 86.0794 86.001 91.5735 77.7785C97.0676 69.5561 100 59.8891 100 50C99.9869 36.7432 94.7149 24.0331 85.3409 14.6591C75.9669 5.28511 63.2568 0.0130717 50 0V0ZM50 87.5C42.5832 87.5 35.333 85.3007 29.1661 81.1801C22.9993 77.0596 18.1928 71.2029 15.3545 64.3506C12.5163 57.4984 11.7736 49.9584 13.2206 42.6841C14.6675 35.4098 18.239 28.728 23.4835 23.4835C28.728 18.239 35.4098 14.6675 42.6841 13.2206C49.9584 11.7736 57.4984 12.5162 64.3507 15.3545C71.2029 18.1928 77.0596 22.9993 81.1801 29.1661C85.3007 35.333 87.5 42.5832 87.5 50C87.4892 59.9423 83.5348 69.4743 76.5046 76.5045C69.4743 83.5348 59.9423 87.4892 50 87.5V87.5Z" fill="#F8FAFC"/>
<path d="M50 25C45.0555 25 40.222 26.4662 36.1108 29.2133C31.9995 31.9603 28.7952 35.8648 26.903 40.4329C25.0108 45.0011 24.5157 50.0277 25.4804 54.8773C26.445 59.7268 28.826 64.1814 32.3223 67.6777C35.8187 71.174 40.2732 73.555 45.1228 74.5196C49.9723 75.4843 54.9989 74.9892 59.5671 73.097C64.1352 71.2048 68.0397 68.0005 70.7867 63.8893C73.5338 59.778 75 54.9445 75 50C74.9914 43.3722 72.3547 37.0184 67.6682 32.3318C62.9816 27.6453 56.6278 25.0086 50 25V25ZM50 62.5C47.5277 62.5 45.111 61.7669 43.0554 60.3934C40.9998 59.0199 39.3976 57.0676 38.4515 54.7835C37.5054 52.4995 37.2579 49.9861 37.7402 47.5614C38.2225 45.1366 39.413 42.9093 41.1612 41.1612C42.9093 39.413 45.1366 38.2225 47.5614 37.7402C49.9861 37.2579 52.4995 37.5054 54.7836 38.4515C57.0676 39.3976 59.0199 40.9998 60.3934 43.0554C61.7669 45.111 62.5 47.5277 62.5 50C62.4978 53.3145 61.1801 56.4926 58.8364 58.8364C56.4927 61.1801 53.3145 62.4978 50 62.5Z" fill="#F8FAFC"/>
</g>
<defs>
<clipPath id="clip0">
<rect width="100" height="100" fill="white"/>
</clipPath>
</defs>
</svg>
