<svg width="100" height="100" viewBox="0 0 100 100" fill="none" xmlns="http://www.w3.org/2000/svg">
<path fill-rule="evenodd" clip-rule="evenodd" d="M89.671 42.275C87.9627 42.0291 86.146 40.4916 85.6169 38.8583L83.0794 32.6875C82.2835 31.1666 82.471 28.7916 83.496 27.4208L87.621 21.9291C88.646 20.5541 88.5669 18.3708 87.4252 17.0875L82.9085 12.5625C81.621 11.4291 79.4419 11.3416 78.0585 12.375L72.5752 16.4916C71.2002 17.525 68.8335 17.7125 67.3085 16.9125L61.1419 14.375C59.496 13.85 57.9585 12.0333 57.7252 10.3291L56.7502 3.54163C56.5127 1.83747 54.9127 0.299967 53.2085 0.116634C53.2085 0.116634 52.146 0.00830078 50.0002 0.00830078C47.8585 0.00830078 46.796 0.116634 46.796 0.116634C45.0877 0.299967 43.4877 1.83747 43.246 3.54163L42.2752 10.3291C42.0335 12.0333 40.496 13.85 38.8585 14.375L32.6919 16.9125C31.1669 17.7083 28.8002 17.525 27.4252 16.4916L21.9335 12.3708C20.5585 11.3375 18.3752 11.4208 17.0877 12.5583L12.571 17.0833C11.4377 18.3708 11.346 20.55 12.3794 21.925L16.496 27.4166C17.5335 28.7916 17.7169 31.1625 16.921 32.6833L14.3752 38.8583C13.8544 40.4958 12.0335 42.0333 10.3294 42.275L3.54186 43.2375C1.84186 43.4833 0.304362 45.0791 0.125195 46.7916C0.125195 46.7916 0.0126953 47.8541 0.0126953 50C0.0126953 52.1458 0.125195 53.2083 0.125195 53.2083C0.304362 54.9208 1.84186 56.5125 3.54186 56.7583L10.3294 57.725C12.0294 57.9708 13.8544 59.5083 14.3752 61.1416L16.921 67.3083C17.7169 68.8291 17.5294 71.2083 16.496 72.575L12.3794 78.0666C11.346 79.4416 11.096 81.3125 11.8294 82.2083C12.5585 83.1125 14.6502 85.3416 14.6544 85.35C14.6585 85.3583 15.3669 86 16.2169 86.7833C17.0669 87.5666 20.5585 88.6541 21.9335 87.6291L27.421 83.5041C28.796 82.4791 31.1627 82.2833 32.6877 83.0875L38.8544 85.625C40.496 86.1458 42.0335 87.9666 42.271 89.6708L43.2419 96.4583C43.4835 98.1583 45.0794 99.7041 46.7919 99.8833C46.7919 99.8833 47.8544 99.9958 49.996 99.9958C52.1419 99.9958 53.2044 99.8833 53.2044 99.8833C54.9085 99.7041 56.5085 98.1583 56.746 96.4583L57.721 89.6708C57.9585 87.9708 59.496 86.1458 61.1377 85.625L67.3044 83.0791C68.8252 82.2833 71.196 82.4708 72.571 83.5041L78.0627 87.6291C79.446 88.6541 81.621 88.575 82.9127 87.4333L87.421 82.9166C88.5585 81.6208 88.6419 79.4416 87.6169 78.0666L83.4919 72.575C82.4669 71.2083 82.2794 68.8333 83.0752 67.3083L85.6127 61.1416C86.1419 59.5041 87.9544 57.9666 89.6669 57.725L96.446 56.7583C98.1544 56.5125 99.6919 54.9208 99.871 53.2083C99.871 53.2083 99.9835 52.1458 99.9835 50C99.9835 47.8541 99.871 46.7916 99.871 46.7916C99.6919 45.0833 98.1544 43.4833 96.446 43.2375L89.671 42.275ZM50.0002 62.5C43.096 62.5 37.5002 56.9 37.5002 50C37.5002 43.0958 43.096 37.5 50.0002 37.5C56.9044 37.5 62.5002 43.1 62.5002 50C62.5002 56.9 56.9002 62.5 50.0002 62.5Z" fill="#F8FAFC"/>
</svg>
