<svg width="121" height="120" viewBox="0 0 121 120" fill="none" xmlns="http://www.w3.org/2000/svg">
<path d="M62.9283 54.8246C60.855 54.8246 59.1685 56.5109 59.1685 58.5842C59.1685 60.6572 60.855 62.3438 62.9283 62.3438C65.0013 62.3438 66.6879 60.6572 66.6879 58.5842C66.6879 56.5109 65.0011 54.8246 62.9283 54.8246Z" fill="#F8FAFC"/>
<path d="M30.1029 101.857C27.3499 101.857 25.1102 104.097 25.1102 106.85C25.1102 109.603 27.3499 111.842 30.1029 111.842C32.8559 111.842 35.0955 109.603 35.0955 106.85C35.0955 104.097 32.8559 101.857 30.1029 101.857Z" fill="#F8FAFC"/>
<path d="M80.6515 20.6089C84.0841 20.6089 86.877 17.8161 86.877 14.3832C86.877 10.9503 84.0844 8.15771 80.6515 8.15771C77.2186 8.15771 74.4258 10.9503 74.4258 14.3832C74.4258 17.8161 77.2186 20.6089 80.6515 20.6089Z" fill="#F8FAFC"/>
<path d="M38.7332 20.6089C40.8063 20.6089 42.4928 18.9224 42.4928 16.8491C42.4928 14.776 40.8063 13.0895 38.7332 13.0895C36.6602 13.0895 34.9734 14.776 34.9734 16.8491C34.9734 18.9221 36.6602 20.6089 38.7332 20.6089Z" fill="#F8FAFC"/>
<path d="M20.3008 41.5069C20.3008 39.4336 18.6143 37.7471 16.5412 37.7471C14.4682 37.7471 12.7814 39.4336 12.7814 41.5069C12.7814 43.58 14.4679 45.2665 16.5412 45.2665C18.6145 45.2665 20.3008 43.5797 20.3008 41.5069Z" fill="#F8FAFC"/>
<path d="M75.72 101.857C73.6468 101.857 71.9602 103.544 71.9602 105.617C71.9602 107.69 73.6468 109.377 75.72 109.377C77.7931 109.377 79.4797 107.69 79.4797 105.617C79.4797 103.544 77.7931 101.857 75.72 101.857Z" fill="#F8FAFC"/>
<path d="M62.017 38.0135C62.6643 38.0135 63.1888 37.489 63.1888 36.8417V22.2806C63.1888 21.6333 62.6643 21.1088 62.017 21.1088C61.3696 21.1088 60.8451 21.6333 60.8451 22.2806V36.8417C60.8451 37.489 61.3696 38.0135 62.017 38.0135Z" fill="#F8FAFC"/>
<path d="M62.017 82.4865C61.3696 82.4865 60.8451 83.011 60.8451 83.6583V98.2196C60.8451 98.8669 61.3696 99.3915 62.017 99.3915C62.6643 99.3915 63.1888 98.8669 63.1888 98.2196V83.6583C63.1888 83.0112 62.6643 82.4865 62.017 82.4865Z" fill="#F8FAFC"/>
<path d="M62.017 72.3964C61.3696 72.3964 60.8451 72.9209 60.8451 73.5682V76.5279C60.8451 77.1753 61.3696 77.6998 62.017 77.6998C62.6643 77.6998 63.1888 77.1753 63.1888 76.5279V73.5682C63.1888 72.9209 62.6643 72.3964 62.017 72.3964Z" fill="#F8FAFC"/>
<path d="M99.8775 59.0625H85.2241C84.5768 59.0625 84.0522 59.5873 84.0522 60.2344C84.0522 60.8817 84.5768 61.4062 85.2241 61.4062H99.8775C100.525 61.4062 101.049 60.8817 101.049 60.2344C101.049 59.5873 100.525 59.0625 99.8775 59.0625Z" fill="#F8FAFC"/>
<path d="M79.233 75.9181C78.7757 75.4604 78.0332 75.4604 77.576 75.9181C77.1182 76.3756 77.1182 77.1177 77.576 77.5752L87.8976 87.8968C88.1264 88.1258 88.4264 88.2402 88.7261 88.2402C89.0259 88.2402 89.3261 88.1258 89.5546 87.8968C90.0124 87.4393 90.0124 86.6973 89.5546 86.2398L79.233 75.9181Z" fill="#F8FAFC"/>
<path d="M44.5865 75.9143L34.1725 86.2359C33.7129 86.6913 33.7094 87.4334 34.165 87.893C34.3943 88.1241 34.6957 88.2398 34.9973 88.2398C35.2954 88.2398 35.5938 88.1269 35.8223 87.9002L46.2363 77.5786C46.6959 77.1232 46.6994 76.3812 46.2438 75.9216C45.7882 75.462 45.0461 75.4587 44.5865 75.9143Z" fill="#F8FAFC"/>
<path d="M23.9386 61.4062H38.4996C39.1467 61.4062 39.6715 60.8817 39.6715 60.2344C39.6715 59.5873 39.1467 59.0625 38.4996 59.0625H23.9386C23.2915 59.0625 22.7667 59.5873 22.7667 60.2344C22.7667 60.8817 23.2915 61.4062 23.9386 61.4062Z" fill="#F8FAFC"/>
<path d="M99.1446 47.6103C100.471 47.6103 101.549 46.5314 101.549 45.2053C101.549 43.8795 100.471 42.8007 99.1446 42.8007C97.8187 42.8007 96.7399 43.8795 96.7399 45.2053C96.7399 46.5314 97.8187 47.6103 99.1446 47.6103Z" fill="#F8FAFC"/>
<path d="M37.4392 45.2053C37.4392 43.8795 36.3604 42.8007 35.0346 42.8007C33.7087 42.8007 32.6296 43.8795 32.6296 45.2053C32.6296 46.5314 33.7085 47.6103 35.0346 47.6103C36.3607 47.6103 37.4392 46.5314 37.4392 45.2053Z" fill="#F8FAFC"/>
<path d="M101.61 101.979C100.285 101.979 99.2057 103.058 99.2057 104.384C99.2057 105.71 100.285 106.789 101.61 106.789C102.936 106.789 104.015 105.71 104.015 104.384C104.015 103.058 102.936 101.979 101.61 101.979Z" fill="#F8FAFC"/>
<path d="M104.501 85.8908L107.159 83.232C107.617 82.7745 107.617 82.0325 107.159 81.575C106.702 81.1173 105.96 81.1173 105.502 81.575L102.844 84.2337L100.185 81.575C99.7278 81.1173 98.9853 81.1173 98.528 81.575C98.0703 82.0325 98.0703 82.7745 98.528 83.232L101.187 85.8908L98.528 88.5493C98.0703 89.0068 98.0703 89.7488 98.528 90.2063C98.7567 90.4353 99.0567 90.5497 99.3565 90.5497C99.6563 90.5497 99.9565 90.4353 100.185 90.2063L102.844 87.5478L105.502 90.2063C105.731 90.4353 106.031 90.5497 106.331 90.5497C106.631 90.5497 106.931 90.4353 107.159 90.2063C107.617 89.7488 107.617 89.0068 107.159 88.5493L104.501 85.8908Z" fill="#F8FAFC"/>
<path d="M24.7671 77.2415L22.1086 74.5828L24.7671 71.9243C25.2248 71.4668 25.2248 70.7248 24.7671 70.2673C24.3094 69.8095 23.5676 69.8095 23.1098 70.2673L20.4513 72.9258L17.7928 70.2673C17.3351 69.8095 16.5933 69.8095 16.1355 70.2673C15.6778 70.7248 15.6778 71.4668 16.1355 71.9243L18.7941 74.5828L16.1355 77.2415C15.6778 77.699 15.6778 78.4411 16.1355 78.8986C16.3645 79.1276 16.6643 79.2419 16.9643 79.2419C17.2643 79.2419 17.5641 79.1276 17.793 78.8986L20.4516 76.2401L23.1101 78.8986C23.3391 79.1276 23.6388 79.2419 23.9388 79.2419C24.2388 79.2419 24.5386 79.1276 24.7676 78.8986C25.2248 78.4413 25.2248 77.6993 24.7671 77.2415Z" fill="#F8FAFC"/>
<path d="M72.6407 49.9027C72.8319 50.0204 73.0436 50.0761 73.2527 50.0761C73.6466 50.0761 74.0312 49.8774 74.2525 49.5171C82.5566 35.9937 95.7231 30.3329 95.898 30.259C96.4952 30.0094 96.7769 29.3229 96.5273 28.7257C96.2779 28.1288 95.5912 27.8468 94.994 28.0967C94.4259 28.3341 80.983 34.0772 72.2552 48.2907C71.9165 48.8426 72.0892 49.5643 72.6407 49.9027Z" fill="#F8FAFC"/>
<path d="M37.5037 32.285C31.9499 28.0341 27.1049 25.7464 26.9015 25.6508C26.3156 25.3761 25.6183 25.629 25.3436 26.2147C25.0689 26.8006 25.3213 27.4983 25.907 27.773C26.0974 27.8623 44.995 36.8743 49.9502 51.7402C50.114 52.2315 50.571 52.542 51.0618 52.542C51.1846 52.542 51.3095 52.5226 51.4326 52.4816C52.0466 52.2767 52.3785 51.6132 52.1739 50.9991C49.4048 42.6926 42.6677 36.2375 37.5037 32.285Z" fill="#F8FAFC"/>
</svg>
