<svg width="300" height="60" viewBox="0 0 300 60" fill="none" xmlns="http://www.w3.org/2000/svg">
<path d="M41.5524 58.5817L39.3524 51.6523H19.0525L16.8515 58.5817H2.75391L23.1332 1.52283H35.2794L55.9031 58.5817H41.5524ZM29.2474 17.8232L22.2365 41.3H36.0949L29.2474 17.8232Z" fill="white"/>
<path d="M57.4736 1.52283H70.8421V58.5817H57.4736V1.52283Z" fill="white"/>
<path d="M74.4457 46.9242C75.046 44.107 76.1062 41.408 77.584 38.9357C78.8692 36.8462 80.4792 34.9752 82.3532 33.3925C84.2677 31.8045 86.2975 30.3607 88.4257 29.0735C90.1097 28.0945 91.672 27.1567 93.113 26.2607C94.4417 25.445 95.7087 24.5324 96.9035 23.5302C97.9352 22.6728 98.805 21.6374 99.4715 20.4732C100.108 19.3125 100.431 18.0062 100.409 16.6827C100.409 14.4005 99.784 12.7566 98.5342 11.7512C97.209 10.7213 95.5652 10.1876 93.8877 10.2429C91.9787 10.1852 90.1222 10.8723 88.711 12.1589C87.3252 13.4362 86.6325 15.5693 86.6325 18.5581H73.5077C73.4842 16.0752 73.9412 13.6113 74.8535 11.302C75.7282 9.10498 77.0782 7.1286 78.8062 5.51438C80.6467 3.8229 82.8095 2.5199 85.165 1.68332C87.9397 0.714113 90.8645 0.244697 93.803 0.296888C96.325 0.285246 98.836 0.628376 101.262 1.3162C103.519 1.94256 105.635 2.99393 107.498 4.41388C109.328 5.84515 110.794 7.68847 111.777 9.79375C112.888 12.2355 113.431 14.8969 113.367 17.5785C113.396 19.8469 112.864 22.0874 111.818 24.1003C110.816 26.015 109.539 27.7725 108.028 29.317C106.552 30.8227 104.927 32.175 103.178 33.3527C101.437 34.5217 99.861 35.5135 98.4495 36.3277C96.4917 37.6322 94.8747 38.76 93.5992 39.7112C92.5047 40.5027 91.482 41.389 90.543 42.3597C89.8405 43.0805 89.2985 43.942 88.9527 44.8872C88.638 45.861 88.4865 46.88 88.5045 47.903H112.96V58.5815H73.3452C73.2755 54.6667 73.6445 50.7567 74.4457 46.9242Z" fill="white"/>
<path d="M115.485 11.5431C117.77 11.5897 120.052 11.3846 122.292 10.9315C123.787 10.6475 125.197 10.0197 126.409 9.09763C127.381 8.29088 128.09 7.2123 128.446 5.99995C128.854 4.5413 129.046 3.03093 129.016 1.51672H140.678V58.5817H127.228V20.8387H115.485V11.5431Z" fill="white"/>
<path d="M155.804 1.52283H168.274V58.5817H155.804V1.52283Z" fill="white"/>
<path d="M214.324 19.2601V58.5518H201.852V53.007C201.34 53.9613 200.68 54.828 199.895 55.5743C199.057 56.38 198.111 57.0658 197.084 57.612C195.983 58.1975 194.821 58.6608 193.619 58.9943C192.399 59.3425 191.137 59.5208 189.869 59.5238C187.191 59.5543 184.537 59.0123 182.084 57.9343C179.787 56.923 177.721 55.4533 176.012 53.615C174.284 51.7245 172.954 49.507 172.099 47.0933C170.251 41.7878 170.251 36.0138 172.099 30.7083C172.954 28.2945 174.284 26.077 176.012 24.1865C177.721 22.3483 179.787 20.8786 182.084 19.8673C184.537 18.7902 187.192 18.2495 189.871 18.2814C191.139 18.2843 192.401 18.4625 193.621 18.8109C194.828 19.1474 195.991 19.6265 197.085 20.2379C198.115 20.8128 199.061 21.5257 199.897 22.3569C200.661 23.1062 201.32 23.9562 201.854 24.8836V19.2601H214.324ZM192.478 48.9323C193.8 48.9525 195.109 48.674 196.309 48.1178C197.42 47.5978 198.418 46.8638 199.246 45.9583C200.081 45.0295 200.731 43.9505 201.162 42.7785C201.626 41.5408 201.86 40.2288 201.853 38.9068C201.872 36.3293 200.943 33.8343 199.244 31.896C198.425 30.97 197.426 30.221 196.307 29.695C195.101 29.158 193.796 28.8805 192.476 28.8805C191.156 28.8805 189.851 29.158 188.645 29.695C187.527 30.2213 186.527 30.9703 185.708 31.896C184.01 33.8348 183.082 36.3295 183.1 38.9068C183.092 40.2288 183.327 41.541 183.791 42.7785C184.222 43.9503 184.872 45.0295 185.706 45.9583C186.534 46.8635 187.532 47.5973 188.643 48.1178C189.844 48.6748 191.155 48.9533 192.478 48.9323Z" fill="white"/>
<path d="M229.48 58.5818H217.007V1.52283H229.48V24.9143C230.014 23.9869 230.672 23.1369 231.436 22.3876C232.281 21.5495 233.241 20.836 234.287 20.2686C235.385 19.6662 236.547 19.1876 237.752 18.8416C238.984 18.4876 240.26 18.3093 241.542 18.3121C244.221 18.2816 246.875 18.8235 249.327 19.9015C251.624 20.913 253.691 22.3827 255.399 24.2206C257.126 26.1115 258.456 28.329 259.314 30.7425C261.159 36.048 261.159 41.822 259.314 47.1275C258.456 49.5408 257.126 51.7585 255.399 53.6493C253.691 55.4873 251.624 56.957 249.327 57.9685C246.875 59.0465 244.221 59.5883 241.542 59.5578C240.26 59.5608 238.984 59.3825 237.752 59.0283C236.553 58.6858 235.392 58.2228 234.287 57.6463C233.244 57.1073 232.284 56.421 231.436 55.6085C230.652 54.862 229.991 53.9955 229.48 53.0413V58.5818ZM238.936 48.9623C240.231 48.9765 241.513 48.6983 242.686 48.1478C243.797 47.6275 244.795 46.8938 245.623 45.988C246.458 45.0595 247.108 43.9803 247.539 42.8083C248.003 41.5705 248.237 40.2585 248.23 38.9368C248.249 36.359 247.32 33.8643 245.621 31.926C244.802 31 243.803 30.251 242.684 29.725C241.512 29.174 240.231 28.894 238.936 28.906C237.601 28.8895 236.279 29.1678 235.064 29.7205C233.93 30.2388 232.917 30.9885 232.089 31.9215C230.39 33.86 229.462 36.3548 229.481 38.9323C229.473 40.2543 229.707 41.5663 230.172 42.804C230.602 43.9763 231.252 45.0555 232.088 45.9838C232.924 46.8963 233.936 47.6308 235.063 48.1433C236.277 48.6988 237.6 48.9785 238.936 48.9623Z" fill="white"/>
<path d="M284.133 35.4302C285.87 35.9192 287.5 36.449 289.023 37.0197C290.445 37.538 291.79 38.2515 293.018 39.1395C294.148 39.9712 295.08 41.043 295.748 42.2777C296.475 43.7442 296.825 45.3692 296.768 47.0055C296.835 49.0635 296.355 51.1025 295.38 52.9157C294.453 54.5225 293.135 55.8685 291.55 56.829C289.805 57.879 287.885 58.6102 285.885 58.9885C283.615 59.434 281.308 59.6522 278.995 59.6397C273.398 59.6397 268.983 58.4172 265.75 55.972C262.515 53.5265 261.553 50.0212 261.553 45.4557H273.128C273.128 47.5222 273.713 49.003 274.88 49.8985C276.195 50.841 277.788 51.3145 279.405 51.2435C280.695 51.299 281.978 51.0035 283.113 50.3882C283.588 50.096 283.97 49.679 284.223 49.1827C284.473 48.6865 284.583 48.1302 284.54 47.5757C284.573 46.9095 284.355 46.2555 283.928 45.7417C283.395 45.1895 282.758 44.7465 282.053 44.4375C280.998 43.9492 279.908 43.5405 278.793 43.2142C277.46 42.8065 275.87 42.304 274.025 41.7067C272.395 41.2172 270.845 40.6875 269.378 40.1175C268.003 39.5962 266.7 38.8972 265.505 38.0382C264.393 37.226 263.488 36.1652 262.858 34.9405C262.155 33.4657 261.82 31.844 261.878 30.212C261.878 26.1365 263.44 23.1206 266.565 21.1643C269.69 19.2081 273.915 18.2291 279.24 18.2273C281.765 18.1851 284.28 18.5289 286.7 19.2466C288.638 19.8147 290.44 20.7714 291.998 22.0584C293.355 23.2139 294.428 24.664 295.138 26.298C295.845 27.945 296.208 29.7212 296.198 31.5147H283.888C283.975 30.1352 283.52 28.776 282.625 27.7242C282.108 27.2432 281.498 26.875 280.83 26.6435C280.163 26.412 279.455 26.322 278.753 26.3792C277.605 26.3512 276.475 26.648 275.493 27.2352C275.04 27.5087 274.675 27.9 274.43 28.367C274.185 28.8337 274.073 29.3585 274.105 29.8845C274.083 30.532 274.318 31.1622 274.758 31.6372C275.308 32.1782 275.96 32.6075 276.673 32.901C277.695 33.3472 278.743 33.7282 279.813 34.0422C281.06 34.4252 282.5 34.8877 284.133 35.4302Z" fill="white"/>
</svg>
