<svg width="417" height="56" viewBox="0 0 417 56" fill="none" xmlns="http://www.w3.org/2000/svg">
<path d="M41.9112 42.5934H17.2799L12.581 53.9616H0L23.6461 0.90947H35.7724L59.4942 53.9616H46.6102L41.9112 42.5934ZM38.046 33.2713L29.6335 12.9599L21.2209 33.2713H38.046Z" fill="white"/>
<path d="M113.656 0.90947V53.9616H103.576L77.1253 21.7514V53.9616H64.999V0.90947H75.1547L101.529 33.1197V0.90947H113.656Z" fill="white"/>
<path d="M173.058 0.90947H185.335V53.9616H173.058V0.90947Z" fill="white"/>
<path d="M197.924 0.90947H222.024C227.784 0.90947 232.863 2.02104 237.258 4.24418C241.705 6.4168 245.14 9.49887 247.566 13.4904C250.041 17.482 251.279 22.1304 251.279 27.4357C251.279 32.7407 250.041 37.3891 247.566 41.3807C245.14 45.3722 241.705 48.4796 237.258 50.7028C232.863 52.8754 227.784 53.9616 222.024 53.9616H197.924V0.90947ZM221.419 43.8818C226.724 43.8818 230.943 42.4165 234.075 39.486C237.258 36.505 238.849 32.4881 238.849 27.4357C238.849 22.383 237.258 18.3914 234.075 15.4609C230.943 12.4799 226.724 10.9894 221.419 10.9894H210.202V43.8818H221.419Z" fill="white"/>
<path d="M286.232 54.8711C280.723 54.8711 275.747 53.6839 271.3 51.3091C266.906 48.9345 263.444 45.6755 260.918 41.5323C258.441 37.3387 257.205 32.6397 257.205 27.4356C257.205 22.2314 258.441 17.5578 260.918 13.4146C263.444 9.22098 266.906 5.93679 271.3 3.56208C275.747 1.18736 280.723 0 286.232 0C291.738 0 296.689 1.18736 301.086 3.56208C305.481 5.93679 308.943 9.22098 311.469 13.4146C313.995 17.5578 315.258 22.2314 315.258 27.4356C315.258 32.6397 313.995 37.3387 311.469 41.5323C308.943 45.6755 305.481 48.9345 301.086 51.3091C296.689 53.6839 291.738 54.8711 286.232 54.8711ZM286.232 44.4123C289.364 44.4123 292.193 43.7049 294.719 42.2902C297.245 40.825 299.215 38.8038 300.632 36.227C302.096 33.6502 302.829 30.7197 302.829 27.4356C302.829 24.1513 302.096 21.2209 300.632 18.6441C299.215 16.0672 297.245 14.0715 294.719 12.6567C292.193 11.1915 289.364 10.4589 286.232 10.4589C283.098 10.4589 280.269 11.1915 277.743 12.6567C275.216 14.0715 273.221 16.0672 271.755 18.6441C270.34 21.2209 269.633 24.1513 269.633 27.4356C269.633 30.7197 270.34 33.6502 271.755 36.227C273.221 38.8038 275.216 40.825 277.743 42.2902C280.269 43.7049 283.098 44.4123 286.232 44.4123Z" fill="white"/>
<path d="M415.101 44.1091V53.9616H374.021V0.90947H414.115V10.762H386.223V22.282H410.855V31.8312H386.223V44.1091H415.101Z" fill="white"/>
<path d="M166.389 0.99248L120.47 0.992477V11.6657H137.1V55.3514H149.759V11.6657H166.389V0.99248Z" fill="white"/>
<path fill-rule="evenodd" clip-rule="evenodd" d="M350.611 21.0087V1.14186H338.048V21.0087H319.773V33.8634H338.048V53.7293H350.611V33.8634H368.881V21.0087H350.611Z" fill="white"/>
</svg>
