<svg width="355" height="60" viewBox="0 0 355 60" fill="none" xmlns="http://www.w3.org/2000/svg">
<g clip-path="url(#clip0)">
<path d="M35.5418 53.7409C32.2586 56.3797 29.0274 57.7241 25.8486 57.7241H16.6244V31.9828H24.1809C29.8091 31.9828 33.4571 34.5221 35.1248 39.6006H35.4896V24.1657H35.1248C33.5093 28.4976 29.8613 30.6881 24.1809 30.6881H16.6244V7.08787H24.0246C27.7768 7.08787 31.0078 8.28285 33.6135 10.6229C36.2192 12.9631 38.4602 16.3985 40.4404 20.9295L40.7531 20.7801L40.0757 5.79333H0V6.14186C2.44935 6.93849 3.70009 10.4736 3.70009 16.7471V48.0649C3.70009 54.4378 2.44935 57.9729 0 58.6701V59.0186H42.2644L43.932 43.8825L43.6194 43.7331C41.5348 47.7163 38.8249 51.0521 35.5418 53.7409Z" fill="white"/>
<path d="M87.2394 20.0332H74.3148V20.4315C75.5656 20.7302 76.5558 21.2779 77.3896 22.1244C78.2234 22.9708 78.7966 24.0662 79.1094 25.4602C79.4221 26.8545 79.2136 28.4974 78.484 30.3894L72.1261 47.1187L64.4652 28.1987C62.6412 23.7176 63.2667 21.1286 66.4456 20.4315V20.0829H45.3916V20.4315C47.1635 20.6805 48.779 22.4231 50.2383 25.7092L65.0907 59.0683H69.2077L69.6768 57.6742L80.3602 29.3936C81.298 27.0536 82.3925 25.062 83.6956 23.369C84.9985 21.6763 86.197 20.6805 87.2394 20.4315V20.0332Z" fill="white"/>
<path d="M113.034 51.351C108.969 51.351 105.53 50.0565 102.819 47.4176C100.11 44.7787 98.5983 41.144 98.3376 36.4639H122.153C122.31 36.165 122.362 35.219 122.362 33.6259C122.362 29.543 120.903 26.1574 117.984 23.4686C115.066 20.78 111.209 19.4357 106.363 19.4357C100.735 19.4357 96.0449 21.278 92.2923 25.0121C88.5404 28.7464 86.6641 33.6755 86.6641 39.75C86.6641 45.6251 88.5404 50.4547 92.344 54.1391C96.1486 57.8237 100.839 59.7155 106.467 59.7155C111.053 59.7155 114.753 58.5705 117.515 56.2802C120.278 53.9899 122.05 51.351 122.779 48.3635L122.57 48.2141C120.278 50.3053 117.098 51.351 113.034 51.351ZM98.2857 34.8705C98.2857 30.6881 99.0672 27.2527 100.683 24.6139C102.246 21.975 104.175 20.6805 106.415 20.6805C108.448 20.6805 110.011 21.5767 111.053 23.369C112.095 25.1615 112.617 27.7009 112.617 30.987C112.617 32.5802 112.512 33.9245 112.252 35.0199H98.3376V34.8705H98.2857Z" fill="white"/>
<path d="M145.294 55.9316C144.616 54.438 144.303 52.0481 144.303 48.8117V33.576C144.303 27.1033 144.512 22.4231 144.981 19.5851L144.772 19.386C140.5 20.6805 135.184 21.4273 128.825 21.5767L128.669 21.8754C129.92 22.473 130.806 23.618 131.431 25.3607C132.057 27.1033 132.369 29.8417 132.369 33.576V48.8117C132.369 52.3468 132.109 54.7367 131.588 56.0811C131.067 57.4252 130.077 58.3215 128.617 58.7696V59.0685H148.837V58.7696C147.117 58.3215 145.919 57.3756 145.294 55.9316Z" fill="white"/>
<path d="M334.466 55.9316C333.789 54.438 333.476 52.0481 333.476 48.8117V33.576C333.476 27.1033 333.686 22.4231 334.155 19.5851L333.947 19.386C329.674 20.6805 324.358 21.4273 318 21.5767L317.843 21.8754C319.093 22.473 319.98 23.618 320.604 25.3607C321.231 27.1033 321.544 29.8417 321.544 33.576V48.8117C321.544 52.3468 321.283 54.7367 320.762 56.0811C320.241 57.4252 319.251 58.3215 317.79 58.7696V59.0685H338.01V58.7696C336.291 58.3215 335.093 57.3756 334.466 55.9316Z" fill="white"/>
<path d="M214.032 55.9316C212.939 54.4378 211.53 51.5002 209.655 47.1189L192.717 5.79333H185.891L168.016 47.3181C166.713 50.4547 165.201 52.9941 163.638 55.0354C162.022 57.0767 160.511 58.2718 159.104 58.6701V59.0186H175.624V58.6701C173.019 58.2219 171.142 56.9274 170.048 54.7864C168.902 52.6455 169.006 49.8572 170.256 46.4715L172.653 40.8951H193.343L196 47.7163C198.398 53.94 197.669 57.6244 193.759 58.6701V59.0186H217.472V58.6701C216.274 58.3215 215.074 57.3756 214.032 55.9316ZM173.279 39.3516L183.389 15.8011L192.717 39.3516H173.279Z" fill="white"/>
<path d="M235.972 15.1538C235.972 10.0753 236.391 6.59001 237.276 4.69799C238.162 2.80598 239.466 1.85998 241.185 1.85998C244.989 1.85998 247.802 6.04232 249.523 14.4568L249.836 14.5066L253.536 4.39926C252.285 3.25409 250.513 2.35787 248.272 1.61103C245.979 0.864184 243.634 0.515656 241.185 0.515656C235.764 0.515656 231.544 1.71061 228.521 4.05074C225.499 6.44063 223.987 10.1251 223.987 15.1538V20.0332H221.224V21.278H223.987V48.762C223.987 52.2971 223.727 54.687 223.206 56.0312C222.684 57.3755 221.747 58.2718 220.286 58.7199V59.0186H240.351V58.7199C238.787 58.3215 237.641 57.3755 236.962 55.8817C236.286 54.3881 235.972 51.9982 235.972 48.8117V21.278H245.458V20.0332H235.972V15.1538Z" fill="white"/>
<path d="M269.325 53.9897C264.844 53.9897 262.603 51.0521 262.603 45.1271V21.2779H273.338V20.0332H262.603V11.8676L262.238 11.7183C260.726 13.1124 258.538 14.7554 255.673 16.5976C252.806 18.4399 250.358 19.7344 248.323 20.5311V21.3276H251.243V46.2724C251.243 50.6539 252.338 53.9897 254.473 56.28C256.661 58.5705 259.841 59.7156 264.062 59.7156C267.034 59.7156 269.483 58.9189 271.463 57.3756C273.443 55.8321 274.693 53.94 275.11 51.7989L274.901 51.6497C273.756 53.193 271.879 53.9897 269.325 53.9897Z" fill="white"/>
<path d="M302.211 51.351C298.146 51.351 294.707 50.0565 291.998 47.4176C289.286 44.7787 287.775 41.144 287.515 36.4639H311.331C311.488 36.165 311.539 35.219 311.539 33.6259C311.539 29.543 310.08 26.1574 307.161 23.4686C304.243 20.78 300.386 19.4357 295.541 19.4357C289.913 19.4357 285.221 21.278 281.47 25.0121C277.718 28.7464 275.841 33.6755 275.841 39.75C275.841 45.6251 277.718 50.4547 281.522 54.1391C285.326 57.8237 290.016 59.7155 295.645 59.7155C300.231 59.7155 303.93 58.5705 306.692 56.2802C309.456 53.9899 311.228 51.351 311.957 48.3635L311.747 48.2141C309.401 50.3053 306.223 51.351 302.211 51.351ZM287.411 34.8705C287.411 30.6881 288.193 27.2527 289.808 24.6139C291.371 21.975 293.299 20.6805 295.541 20.6805C297.572 20.6805 299.136 21.5767 300.178 23.369C301.221 25.1615 301.742 27.7009 301.742 30.987C301.742 32.5802 301.637 33.9245 301.376 35.0199H287.462V34.8705H287.411Z" fill="white"/>
<path d="M165.201 26.705L159.156 23.5185L155.82 17.7429L152.537 23.5185L146.44 26.705L152.537 29.8916L155.82 35.6672L159.156 29.8916L165.201 26.705Z" fill="white"/>
<path d="M348.33 23.5185L344.995 17.7429L341.712 23.5185L335.614 26.705L341.712 29.8916L344.995 35.6672L348.33 29.8916L354.375 26.705L348.33 23.5185Z" fill="white"/>
</g>
<defs>
<clipPath id="clip0">
<rect width="354.375" height="60" fill="white"/>
</clipPath>
</defs>
</svg>
