<svg width="139" height="70" viewBox="0 0 139 70" fill="none" xmlns="http://www.w3.org/2000/svg">
<g clip-path="url(#clip0_2450_5475)">
<path d="M138.272 52.4997H130.692V44.7353C130.692 40.1485 127.068 36.2893 122.474 36.188C117.75 36.0774 113.868 39.8813 113.868 44.5694V52.4997H106.287V44.7905C106.287 35.8472 113.59 28.4788 122.566 28.6446C131.256 28.8012 138.272 35.884 138.272 44.5786V52.4997Z" fill="white"/>
<path d="M89.4719 17.4993H81.8916V52.499H89.4719V17.4993Z" fill="white"/>
<path d="M101.694 29.0576H94.1138V52.4981H101.694V29.0576Z" fill="white"/>
<path d="M97.9038 25.0517C99.997 25.0517 101.694 23.361 101.694 21.2755C101.694 19.1899 99.997 17.4993 97.9038 17.4993C95.8105 17.4993 94.1138 19.1899 94.1138 21.2755C94.1138 23.361 95.8105 25.0517 97.9038 25.0517Z" fill="white"/>
<path d="M0.125244 35C0.125244 54.3298 15.8528 70 35.2535 70V58.3333C22.3239 58.3333 11.8347 47.8825 11.8347 35C11.8347 22.1175 22.3239 11.6667 35.2535 11.6667V0C15.8528 0 0.125244 15.6702 0.125244 35Z" fill="white" fill-opacity="0.7"/>
<path d="M70.2507 34.9993C70.2507 15.6695 54.5232 -0.000732422 35.1226 -0.000732422V11.6659C48.0521 11.6659 58.5413 22.1168 58.5413 34.9993C58.5413 47.8817 48.0521 58.3326 35.1226 58.3326V69.9993C54.5232 69.9993 70.2507 54.329 70.2507 34.9993Z" fill="white" fill-opacity="0.7"/>
<path d="M11.8345 34.9998C11.8345 47.8823 22.3236 58.3332 35.2534 58.3332V47.256C28.4619 47.256 22.9523 41.7665 22.9523 34.9998C22.9523 28.2332 28.4619 22.7437 35.2534 22.7437V11.6665C22.3114 11.6665 11.8345 22.1051 11.8345 34.9998Z" fill="white" fill-opacity="0.85"/>
<path d="M58.5415 34.9991C58.5415 22.1166 48.0523 11.6658 35.1226 11.6658V22.743C41.914 22.743 47.4236 28.2324 47.4236 34.9991C47.4236 41.7658 41.914 47.2552 35.1226 47.2552V58.3324C48.0645 58.3324 58.5415 47.8938 58.5415 34.9991Z" fill="white" fill-opacity="0.85"/>
<path d="M22.9526 35.0029C22.9526 41.7696 28.4621 47.2589 35.2535 47.2589V22.7468C28.4621 22.7468 22.9526 28.2363 22.9526 35.0029Z" fill="white"/>
<path d="M47.4236 34.9962C47.4236 28.2297 41.914 22.7402 35.1226 22.7402V47.2523C41.914 47.2523 47.4236 41.7629 47.4236 34.9962Z" fill="white"/>
</g>
<defs>
<clipPath id="clip0_2450_5475">
<rect width="138.542" height="70" fill="white"/>
</clipPath>
</defs>
</svg>
