<svg width="141" height="44" viewBox="0 0 141 44" fill="none" xmlns="http://www.w3.org/2000/svg">
<path d="M39.2276 22C39.5277 22.9004 39.7124 23.8162 39.7817 24.7512C39.8817 25.6863 39.9318 26.7598 39.9318 27.9719V42.7247H32.286V28.753C32.286 27.2985 32.1513 26.225 31.882 25.5323C31.6126 24.8051 31.1432 24.2356 30.4737 23.82C29.8349 23.4045 29.0499 23.1967 28.111 23.1967C26.6027 23.1967 25.329 23.7161 24.2901 24.7551C23.2512 25.7594 22.7317 27.0407 22.7317 28.5991V42.7286H15.0859V17.0131H22.7317V24.959C23.3012 22.4309 24.4094 20.3877 26.0524 18.8293C27.6955 17.2709 29.6733 16.4937 31.9859 16.4937C33.829 16.4937 35.3566 16.9977 36.561 17.9982C37.8039 19.0063 38.6889 20.3377 39.2276 22Z" fill="white"/>
<path d="M56.4645 43.2486C53.8479 43.2486 51.4699 42.6945 49.3228 41.5864C47.2103 40.4435 45.5518 38.8697 44.3436 36.8611C43.1354 34.8179 42.5312 32.4976 42.5312 29.9003C42.5312 27.2684 43.1354 24.9481 44.3436 22.9395C45.5518 20.8962 47.2103 19.3225 49.3228 18.2143C51.4699 17.0714 53.8479 16.502 56.4645 16.502C59.081 16.502 61.4436 17.0714 63.5561 18.2143C65.7032 19.3225 67.3771 20.8962 68.5853 22.9395C69.7936 24.9481 70.3938 27.2684 70.3938 29.9003C70.3938 32.4976 69.7897 34.8179 68.5853 36.8611C67.3771 38.8697 65.7032 40.4435 63.5561 41.5864C61.4436 42.6945 59.081 43.2486 56.4645 43.2486ZM56.4645 35.9761C58.1729 35.9761 59.5659 35.422 60.6394 34.3138C61.713 33.171 62.2478 31.6819 62.2478 29.8464C62.2478 28.011 61.6937 26.5411 60.5894 25.4329C59.5158 24.3247 58.1421 23.7706 56.4645 23.7706C54.756 23.7706 53.3477 24.3247 52.2395 25.4329C51.1659 26.5411 50.6311 28.011 50.6311 29.8464C50.6311 31.6819 51.1659 33.171 52.2395 34.3138C53.3477 35.422 54.756 35.9761 56.4645 35.9761Z" fill="white"/>
<path d="M80.6419 24.2867V31.1937C80.6419 32.5443 80.9767 33.5986 81.6462 34.3605C82.3157 35.0878 83.3739 35.4495 84.8169 35.4495H88.5878V42.722H83.5086C81.5654 42.722 79.7877 42.341 78.1793 41.5792C76.6016 40.7826 75.3472 39.6591 74.4083 38.2046C73.4694 36.7154 73 34.9839 73 33.0099V8.1333H80.6458V17.0142H88.5917V24.2867H80.6419Z" fill="white"/>
<path d="M103.942 43.2492C101.394 43.2492 99.0818 42.7143 97.0001 41.6408C94.9223 40.5672 93.2792 39.0281 92.071 37.0195C90.8974 34.9762 90.3125 32.6059 90.3125 29.9047C90.3125 27.1689 90.9166 24.7986 92.1249 22.79C93.3331 20.7467 94.9761 19.1883 97.054 18.1148C99.1665 17.0412 101.514 16.5063 104.096 16.5063C106.878 16.5063 109.61 17.0412 112.295 18.1148V25.5951C109.679 24.383 107.147 23.7789 104.7 23.7789C102.857 23.7789 101.348 24.3176 100.175 25.3873C99.001 26.4262 98.4162 27.9153 98.4162 29.8547C98.4162 31.794 99.001 33.2985 100.175 34.3721C101.348 35.4457 102.857 35.9805 104.7 35.9805C107.447 35.9805 109.998 35.3225 112.346 34.0066V41.4869C109.625 42.6605 106.824 43.2492 103.942 43.2492Z" fill="white"/>
<path d="M139.86 22.0005C140.161 22.9009 140.345 23.8167 140.415 24.7517C140.515 25.6868 140.565 26.7603 140.565 27.9724V42.7252H132.919V28.7535C132.919 27.299 132.784 26.2255 132.515 25.5329C132.245 24.8056 131.776 24.2361 131.106 23.8206C130.468 23.405 129.683 23.1972 128.744 23.1972C127.235 23.1972 125.962 23.7167 124.923 24.7556C123.884 25.7599 123.365 27.0412 123.365 28.5996V42.7291H115.719V5.74316H123.365V24.9634C123.934 22.4353 125.042 20.3921 126.685 18.8337C128.328 17.2753 130.306 16.498 132.619 16.498C134.462 16.498 135.989 17.0021 137.194 18.0025C138.433 19.0068 139.322 20.3382 139.86 22.0005Z" fill="white"/>
<path d="M7.99767 0.551271C8.10867 -0.183757 9.16821 -0.183757 9.27922 0.551271L9.51266 2.09702C10.0327 5.54044 12.5455 8.34752 15.9105 9.2442L16.7957 9.48007C17.4373 9.65103 17.4373 10.5615 16.7957 10.7325L15.9105 10.9683C12.5455 11.865 10.0327 14.6721 9.51266 18.1155L9.27922 19.6613C9.16821 20.3963 8.10867 20.3963 7.99767 19.6613L7.76423 18.1155C7.24419 14.6721 4.73142 11.865 1.36637 10.9683L0.481182 10.7325C-0.160393 10.5615 -0.160394 9.65103 0.481181 9.48007L1.36637 9.2442C4.73141 8.34752 7.24419 5.54044 7.76423 2.09702L7.99767 0.551271Z" fill="white"/>
</svg>
