<svg width="423" height="120" viewBox="0 0 423 120" fill="none" xmlns="http://www.w3.org/2000/svg">
<g clip-path="url(#clip0_2450_5486)">
<path d="M38.0157 102.225C36.9908 103.786 36.3941 105.652 36.3941 107.659C36.3941 113.132 40.8303 117.568 46.3027 117.568C51.7751 117.568 56.2113 113.132 56.2113 107.659C56.2113 105.653 55.6146 103.786 54.5897 102.225C53.2697 102.528 51.9697 102.767 50.7011 102.936C49.1562 103.143 47.6832 103.25 46.3027 103.25C44.9227 103.25 43.4492 103.143 41.9043 102.936C40.6357 102.767 39.3357 102.528 38.0157 102.225ZM15.7995 91.9632V96.3876C19.2232 101.553 25.8995 105.662 34.2319 107.719V107.659C34.2319 106.438 34.42 105.246 34.7692 104.11C35.0335 103.251 35.3897 102.434 35.827 101.67C29.0297 99.7854 21.8703 96.327 15.7995 91.9632ZM78.967 90.3335V96.3881H78.9622C78.9627 96.7978 78.847 97.2113 78.6038 97.5789C76.687 100.47 73.867 103.047 70.3724 105.165C66.9589 107.235 62.9032 108.869 58.4281 109.928L58.4276 109.925C58.3373 109.946 58.2454 109.961 58.1514 109.971C57.6849 112.377 56.5032 114.529 54.8373 116.195C52.653 118.379 49.6351 119.73 46.3022 119.73C42.9686 119.73 39.9508 118.379 37.767 116.195C36.1005 114.528 34.9189 112.377 34.4524 109.971C34.3584 109.961 34.2665 109.946 34.1762 109.925L34.1757 109.928C29.7011 108.869 25.6454 107.235 22.2319 105.165C18.7373 103.047 15.9173 100.47 14.0005 97.5789C13.7573 97.2113 13.6416 96.7978 13.6422 96.3881H13.6373V90.3335C5.79081 84.1303 0.16272 76.3373 0.16272 68.4989C0.16272 67.8184 0.211366 67.1054 0.310825 66.3595L8.34541 6.27297C8.37081 4.62755 9.04811 3.13945 10.1308 2.05674L10.1351 2.06107L10.1395 2.05674C11.2432 0.952961 12.7649 0.270264 14.4427 0.270264C17.1897 0.270264 20.8751 2.88485 24.4514 6.34486C28.6022 10.3616 32.8189 15.6389 34.9649 18.9178C38.6951 18.5303 42.4535 18.3259 46.2405 18.3211C50.033 18.3151 53.7968 18.5076 57.5281 18.9108C59.6859 15.6286 63.9243 10.367 68.0886 6.36324C71.6957 2.89457 75.4119 0.270792 78.1611 0.270792C79.7649 0.270792 81.2286 0.89728 82.3227 1.92052C82.3741 1.96323 82.4243 2.00866 82.473 2.05731C83.5557 3.14001 84.233 4.62811 84.2584 6.27351L92.293 66.36C92.393 67.1059 92.4411 67.8189 92.4411 68.4995C92.4416 76.3384 86.8135 84.1303 78.967 90.3335ZM56.7784 101.67C57.2151 102.433 57.5714 103.251 57.8357 104.11C58.1849 105.246 58.373 106.438 58.373 107.659L58.3724 107.719C66.7049 105.662 73.3805 101.553 76.8049 96.3876V91.9632C70.7341 96.327 63.5746 99.7859 56.7784 101.67ZM77.3562 13.4573C77.9616 18.1903 78.2427 20.0676 78.5892 23.913C78.7141 25.3011 78.9546 26.1676 77.5535 25.7968C73.7476 24.7913 71.8995 24.3011 68.093 23.2951C66.4 22.8476 65.08 22.9076 66.0735 21.5232C68.6195 17.9757 71.2562 14.787 74.8616 12.1157C76.6551 10.787 77.0865 11.3486 77.3562 13.4573ZM15.2481 13.4573C14.6427 18.1903 14.3616 20.0676 14.0151 23.913C13.8903 25.3011 13.6497 26.1676 15.0508 25.7968C18.8568 24.7913 20.7049 24.3011 24.5114 23.2951C26.2043 22.8476 27.5243 22.9076 26.5303 21.5232C23.9849 17.9757 21.3476 14.787 17.7422 12.1157C15.9492 10.787 15.5178 11.3486 15.2481 13.4573ZM37.513 85.9822V85.9654C39.4519 85.8486 41.3308 85.147 43.0157 84.5168C46.2443 83.3108 46.3595 83.3108 49.5881 84.5168C51.4324 85.2059 53.5081 85.9822 55.6422 85.9822C56.8568 85.9822 58.2459 85.6465 59.4795 84.9843C60.5859 84.3908 61.5768 83.5308 62.2254 82.407C62.5211 81.8919 62.3438 81.234 61.8292 80.9384C61.3141 80.6427 60.6568 80.82 60.3605 81.3351C59.9292 82.0822 59.2438 82.6686 58.467 83.0854C57.5573 83.573 56.5346 83.8205 55.6422 83.8205C53.8751 83.8205 52.6908 83.0562 51.027 82.4346C46.3297 80.6795 46.0973 80.7432 41.4 82.4984C39.7362 83.12 38.7286 83.8205 36.9622 83.8205C36.0697 83.8205 35.047 83.573 34.1373 83.0854C33.3605 82.6686 32.6751 82.0822 32.2438 81.3351C31.9481 80.82 31.2903 80.6427 30.7757 80.9384C30.2611 81.234 30.0832 81.8919 30.3789 82.407C31.0276 83.5303 32.0189 84.3908 33.1254 84.9843C34.3395 85.6357 35.7043 85.9714 36.9054 85.9822H37.513ZM36.0222 69.3913C35.9205 70.2989 36.2243 71.2427 36.9081 71.8773C45.4173 79.7638 47.2016 79.7497 55.6962 71.8773C56.7741 70.8773 56.9086 69.1081 55.9968 67.9254C53.8259 65.5459 43.9584 65.0422 39.0011 66.6184C37.1849 67.2308 36.2551 68.4162 36.0222 69.3913ZM46.3022 93.7373C43.247 93.7373 40.2887 93.3995 37.513 92.7876L36.9049 92.6497C22.9416 89.3378 13.8973 79.0173 21.4319 69.5351C21.4703 69.487 21.5097 69.4395 21.5487 69.3908L24.2735 66.6178C28.7843 62.6995 34.9865 59.7189 37.9065 58.3043C46.393 54.194 43.9384 43.6389 37.3178 43.6389C36.3746 43.6389 33.0995 43.6303 30.7162 43.6303C24.5535 43.6303 19.7341 42.9205 19.7341 33.0692H22.8622C24.2389 33.0692 24.7195 33.0168 24.7195 34.4297C24.7195 35.6222 24.8205 36.8773 25.853 37.4816C26.3719 37.7854 27.2368 37.9411 28.4741 37.9503C29.7011 37.96 34.5141 37.9827 38.0005 37.9827C42.0487 37.9827 44.8368 38.7708 46.3038 42.1146C47.7703 38.7708 50.5584 37.9827 54.607 37.9827C58.0935 37.9827 62.9059 37.96 64.133 37.9503C65.3708 37.9405 66.2351 37.7849 66.7541 37.4816C67.787 36.8778 67.8876 35.6227 67.8876 34.4297C67.8876 33.0173 68.3681 33.0692 69.7449 33.0692H72.873C72.873 42.9211 68.0535 43.6303 61.8903 43.6303C59.507 43.6303 56.2319 43.6389 55.2892 43.6389C48.6681 43.6389 46.2135 54.1935 54.7005 58.3043C58.3081 60.0519 66.9276 64.1908 71.1746 69.5346C80.2989 81.02 65.1022 93.7373 46.3022 93.7373ZM33.7876 48.9141C34.3892 48.9638 34.9865 49.5513 35.1216 50.2259C35.2568 50.9005 34.8784 51.407 34.2768 51.3573C33.6751 51.3076 33.0778 50.7205 32.9427 50.0459C32.8076 49.3703 33.1859 48.8643 33.7876 48.9141ZM62.2681 48.9141C62.8697 48.9638 63.467 49.5513 63.6022 50.2259C63.7373 50.9005 63.3595 51.407 62.7573 51.3573C62.1551 51.3076 61.5578 50.7205 61.4227 50.0459C61.2881 49.3703 61.6665 48.8643 62.2681 48.9141ZM41.6887 106.647L39.4573 108.878L44.6465 114.068L53.1476 105.566L50.9162 103.335L44.6465 109.605L41.6887 106.647ZM55.86 52.4989L55.8989 51.0124C56.3059 48.8173 58.2303 47.1557 60.5427 47.1557C63.1514 47.1557 65.2654 49.2703 65.2654 51.8789C65.2654 54.487 63.1508 56.6016 60.5427 56.6016C58.1443 56.6016 56.1638 54.8146 55.86 52.4989ZM54.3216 51.0124L54.2924 52.4989C54.6038 55.6762 57.2838 58.16 60.5427 58.16C64.0108 58.16 66.8232 55.3476 66.8232 51.8795C66.8232 48.4108 64.0108 45.5984 60.5427 45.5984C57.3681 45.5978 54.7438 47.9535 54.3216 51.0124ZM25.8114 52.4989L25.7827 51.7557C25.8487 48.3438 28.6351 45.5978 32.0622 45.5978C35.5308 45.5978 38.3432 48.4103 38.3432 51.8789C38.3432 55.347 35.5308 58.1595 32.0622 58.1595C28.8027 58.1595 26.1232 55.6757 25.8114 52.4989ZM27.3405 51.7557L27.3795 52.4989C27.6832 54.8146 29.6638 56.6022 32.0622 56.6022C34.6708 56.6022 36.7854 54.4876 36.7854 51.8795C36.7854 49.2708 34.6708 47.1562 32.0622 47.1562C29.4946 47.1557 27.4059 49.2038 27.3405 51.7557ZM58.6303 21.213C50.3708 20.2038 42.1108 20.254 33.8514 21.213C30.9805 16.2411 19.5573 2.43296 14.4432 2.43296C12.2697 2.43296 10.507 4.19512 10.507 6.36864L2.44812 66.6384C0.227042 83.2476 28.5762 101.088 46.3022 101.088C64.0281 101.088 92.3773 83.2476 90.1562 66.6384L82.0973 6.36864C82.0973 4.19512 80.3351 2.43296 78.1611 2.43296C73.0476 2.43242 61.5005 16.2405 58.6303 21.213Z" fill="white"/>
<path d="M119.045 85.2756V34.7254H140.388C140.889 34.7254 141.556 34.7254 142.389 34.7816C143.196 34.8092 143.946 34.8924 144.612 35.0032C147.615 35.4762 150.088 36.4762 152.032 37.9773C153.951 39.5049 155.368 41.4221 156.285 43.7291C157.203 46.0372 157.647 48.593 157.647 51.4276C157.647 54.2621 157.203 56.8183 156.285 59.1248C155.341 61.4308 153.922 63.3486 152.006 64.8778C150.061 66.4064 147.586 67.3789 144.613 67.8518C143.946 67.9637 143.196 68.0189 142.363 68.0735C141.501 68.1297 140.862 68.1297 140.389 68.1297H128.606V85.2762L119.045 85.2756ZM128.605 59.2367H139.971C140.472 59.2367 140.999 59.2081 141.582 59.1524C142.166 59.0972 142.695 59.014 143.195 58.8745C144.474 58.5135 145.473 57.9308 146.168 57.0967C146.891 56.2626 147.363 55.3464 147.641 54.3178C147.919 53.3156 148.03 52.3438 148.03 51.427C148.03 50.5097 147.919 49.5373 147.641 48.5362C147.363 47.5081 146.891 46.5903 146.168 45.7573C145.473 44.9232 144.474 44.3394 143.195 43.9783C142.695 43.8389 142.166 43.7568 141.582 43.7016C140.999 43.6719 140.472 43.6448 139.971 43.6448H128.605V59.2367ZM180.462 86.3313C176.572 86.3313 173.153 85.4708 170.207 83.8027C167.234 82.1345 164.926 79.8286 163.26 76.8821C161.592 73.9654 160.73 70.6026 160.73 66.7956C160.73 62.654 161.564 59.0697 163.204 55.9837C164.844 52.9276 167.094 50.5384 169.957 48.8427C172.848 47.1459 176.155 46.313 179.905 46.313C183.881 46.313 187.27 47.2303 190.05 49.12C192.829 50.9811 194.885 53.6216 196.22 57.0118C197.553 60.4027 198.026 64.4043 197.637 68.9902H171.014C171.32 71.241 172.042 73.1032 173.154 74.4929C174.683 76.4389 176.932 77.4108 179.906 77.4108C181.769 77.4108 183.381 76.994 184.715 76.1881C186.049 75.354 187.049 74.1875 187.771 72.6302L197.304 75.3826C195.886 78.8275 193.635 81.5237 190.551 83.4421C187.493 85.3594 184.103 86.3313 180.462 86.3313ZM187.965 61.9048C187.688 59.8481 187.159 58.2351 186.354 57.1243C185.131 55.4286 183.102 54.5956 180.323 54.5956C177.072 54.5956 174.682 55.5681 173.153 57.5399C172.263 58.6799 171.653 60.1254 171.263 61.9043L187.965 61.9048ZM204.389 85.2756V47.3692H212.81V56.6237L211.893 55.4286C212.394 54.1227 213.061 52.9275 213.866 51.8432C214.7 50.7875 215.701 49.8984 216.895 49.1762C217.812 48.62 218.785 48.1741 219.869 47.8703C220.953 47.5357 222.065 47.3411 223.204 47.2589C224.343 47.1746 225.511 47.2303 226.65 47.3687V56.2621C225.594 55.9562 224.372 55.8178 222.982 55.9286C221.592 56.0394 220.341 56.374 219.202 56.9021C218.091 57.4291 217.145 58.0962 216.368 58.9578C215.59 59.8194 215.006 60.8199 214.617 61.9594C214.201 63.127 214.005 64.4318 214.005 65.9059V85.2756H204.389ZM277.812 85.2756V62.8767C277.812 60.3745 277.228 58.4016 276.033 57.0118C274.866 55.6237 273.226 54.9281 271.142 54.9281C269.808 54.9281 268.641 55.234 267.668 55.874C266.696 56.4854 265.917 57.347 265.39 58.4572C264.833 59.5702 264.556 60.8475 264.556 62.3199V85.2751H254.996V62.8762C254.996 60.374 254.413 58.401 253.244 57.0113C252.05 55.6232 250.411 54.9275 248.325 54.9275C246.354 54.9275 244.741 55.6232 243.546 56.9843C242.351 58.3464 241.739 60.1254 241.739 62.3199V85.2751H232.124V47.3687H240.544V51.5103C241.628 50.1481 242.99 49.0368 244.602 48.1741C246.685 47.0086 249.02 46.4518 251.632 46.4518C254.606 46.4518 257.052 47.0908 258.941 48.3416C260.525 49.3973 261.776 50.7318 262.665 52.3426C263.86 50.5648 265.417 49.147 267.335 48.1189C269.419 47.0081 271.697 46.4518 274.226 46.4518C278.562 46.4518 281.841 47.7303 284.036 50.2865C286.259 52.8432 287.371 56.207 287.371 60.3464V85.2745H277.812V85.2756ZM296.07 42.0897V33.6692H305.603V42.0897H296.07ZM296.07 85.2756V47.3692H305.603V85.2756H296.07ZM337.757 85.2756C335.116 85.7486 332.56 85.9702 330.058 85.9156C327.53 85.8594 325.278 85.4151 323.306 84.581C321.333 83.747 319.831 82.4145 318.803 80.5513C317.858 78.8281 317.358 77.0767 317.33 75.2713C317.275 73.4924 317.248 71.4632 317.248 69.1859V54.734H310.8V47.3692H317.248V36.8384H326.807V47.3692H337.757V54.734H326.807V68.6286C326.807 70.1026 326.835 71.4356 326.863 72.6037C326.891 73.7989 327.113 74.7437 327.558 75.4383C328.42 76.7718 329.753 77.4951 331.616 77.6059C333.449 77.7454 335.505 77.6345 337.757 77.3281V85.2756H337.757ZM346.593 85.2756V75.7156H356.125V85.2756H346.593ZM367.075 42.0897V33.6692H376.635V42.0897H367.075ZM367.075 85.2756V47.3692H376.635V85.2756H367.075ZM403.092 86.3313C399.257 86.3313 395.921 85.4708 393.032 83.747C390.169 82.0524 387.918 79.6897 386.333 76.6881C384.722 73.6589 383.916 70.2129 383.916 66.3227C383.916 62.3486 384.75 58.8745 386.361 55.874C388.001 52.8724 390.279 50.5097 393.142 48.8427C396.032 47.1459 399.339 46.313 403.092 46.313C406.898 46.313 410.261 47.1746 413.15 48.8697C416.042 50.5654 418.292 52.927 419.904 55.9286C421.516 58.9302 422.322 62.4037 422.322 66.3227C422.322 70.2416 421.516 73.7151 419.877 76.7167C418.265 79.7172 415.986 82.0799 413.095 83.7756C410.206 85.4713 406.87 86.3313 403.092 86.3313ZM403.092 77.4113C406.148 77.4113 408.427 76.3556 409.955 74.2989C411.456 72.2151 412.207 69.5745 412.207 66.3227C412.207 62.9329 411.456 60.2637 409.929 58.2345C408.371 56.234 406.093 55.234 403.092 55.234C401.008 55.234 399.284 55.6783 397.951 56.6232C396.616 57.5681 395.643 58.874 395.004 60.5145C394.365 62.1816 394.032 64.1275 394.032 66.3221C394.032 69.7118 394.811 72.4086 396.339 74.4091C397.867 76.4118 400.119 77.4113 403.092 77.4113Z" fill="white"/>
</g>
<defs>
<clipPath id="clip0_2450_5486">
<rect width="422.703" height="120" fill="white"/>
</clipPath>
</defs>
</svg>
