<svg width="248" height="60" viewBox="0 0 248 60" fill="none" xmlns="http://www.w3.org/2000/svg">
<g clip-path="url(#clip0_2449_5457)">
<path d="M139.455 37.4202C139.219 40.2479 137.928 42.8835 135.839 44.8045C133.751 46.7254 131.017 47.7916 128.179 47.7916C125.342 47.7916 122.608 46.7254 120.519 44.8045C118.43 42.8835 117.14 40.2479 116.903 37.4202C117.14 34.5925 118.43 31.9569 120.519 30.036C122.608 28.115 125.342 27.0489 128.179 27.0489C131.017 27.0489 133.751 28.115 135.839 30.036C137.928 31.9569 139.219 34.5925 139.455 37.4202V37.4202ZM150.207 0.537945H142.165C141.745 0.520032 141.335 0.669703 141.025 0.954051C140.715 1.2384 140.531 1.63415 140.513 2.05428V19.8887C135.987 16.9838 130.641 15.627 125.277 16.0223C119.914 16.4176 114.824 18.5436 110.773 22.0806C108.424 24.1187 106.57 26.6666 105.354 29.5299C104.139 32.3931 103.593 35.4962 103.759 38.6024C104.094 43.6525 106.273 48.4036 109.881 51.9521C112.146 54.1794 114.828 55.9381 117.774 57.1276C120.72 58.317 123.871 58.9139 127.048 58.8839C131.825 58.9129 136.507 57.5442 140.516 54.9462V56.2937C140.535 56.7138 140.719 57.1096 141.029 57.3939C141.338 57.6783 141.749 57.8279 142.169 57.81H150.881C151.301 57.8279 151.711 57.6783 152.021 57.3939C152.331 57.1096 152.515 56.7138 152.533 56.2937V2.6711C152.508 2.07985 152.248 1.52302 151.812 1.12302C151.376 0.723008 150.799 0.512564 150.207 0.537945" fill="white"/>
<path d="M188.476 55.8843V17.8823C188.477 17.629 188.531 17.3788 188.635 17.148C188.744 16.9108 188.898 16.6979 189.091 16.522C189.29 16.3403 189.521 16.1982 189.774 16.1034C190.03 16.006 190.302 15.9562 190.576 15.9565H198.435C198.709 15.9561 198.982 16.0058 199.239 16.1034C199.491 16.1982 199.723 16.3403 199.922 16.522C200.113 16.6985 200.268 16.9112 200.377 17.148C200.481 17.3788 200.536 17.629 200.537 17.8823V55.8825C200.536 56.1358 200.481 56.3861 200.377 56.6168C200.269 56.8541 200.114 57.067 199.922 57.2428C199.723 57.4251 199.491 57.5672 199.239 57.6614C198.982 57.7589 198.709 57.8087 198.435 57.8082H190.574C190.3 57.8086 190.028 57.7588 189.772 57.6614C189.519 57.5672 189.287 57.4251 189.089 57.2428C188.896 57.0676 188.741 56.8545 188.634 56.6168C188.529 56.386 188.475 56.1358 188.474 55.8825" fill="white"/>
<path d="M194.504 0.257113C195.413 0.254639 196.315 0.419547 197.164 0.743589C197.998 1.05704 198.763 1.52825 199.419 2.13142C200.057 2.71321 200.57 3.41907 200.926 4.20583C201.274 4.97524 201.454 5.81013 201.454 6.65474C201.454 7.49935 201.274 8.33424 200.926 9.10364C200.571 9.89096 200.058 10.597 199.419 11.1781C198.763 11.7812 197.998 12.2524 197.164 12.5659C195.449 13.2144 193.556 13.2144 191.841 12.5659C191.007 12.2524 190.242 11.7812 189.586 11.1781C188.947 10.597 188.434 9.89096 188.079 9.10364C187.731 8.33424 187.551 7.49935 187.551 6.65474C187.551 5.81013 187.731 4.97524 188.079 4.20583C188.435 3.41907 188.948 2.71321 189.586 2.13142C190.242 1.52805 191.008 1.05683 191.842 0.743589C192.692 0.419325 193.595 0.254413 194.504 0.257113" fill="white"/>
<path d="M246.262 47.9922L241.147 43.9169C240.595 43.4875 239.9 43.2835 239.203 43.3459C238.521 43.3956 237.886 43.713 237.437 44.2289C236.271 45.5601 234.83 46.6233 233.214 47.3457C231.598 48.0681 229.845 48.4327 228.075 48.4145C225.047 48.5278 222.097 47.4433 219.863 45.3959C217.629 43.3485 216.293 40.5033 216.143 37.477C216.266 34.4664 217.567 31.6245 219.764 29.5624C221.961 27.5003 224.879 26.3826 227.891 26.4496C229.716 26.4029 231.529 26.7641 233.197 27.5069C234.864 28.2498 236.345 29.3555 237.531 30.7434C237.993 31.2719 238.639 31.6042 239.337 31.6725C240.035 31.7407 240.734 31.5397 241.289 31.1106L246.405 27.0352C246.653 26.8483 246.86 26.6121 247.012 26.3414C247.164 26.0707 247.259 25.7714 247.29 25.4623C247.321 25.1533 247.287 24.8412 247.192 24.5457C247.096 24.2502 246.94 23.9778 246.734 23.7455C244.443 21.1628 241.634 19.0911 238.49 17.6653C235.346 16.2395 231.937 15.4915 228.484 15.4699C222.207 15.3289 216.109 17.5663 211.412 21.7335C209.172 23.6571 207.369 26.0373 206.125 28.7145C204.88 31.3917 204.222 34.3041 204.195 37.2564C204.168 40.2087 204.773 43.1326 205.969 45.8321C207.164 48.5316 208.923 50.9443 211.127 52.9084C216.061 57.3465 222.542 59.6661 229.171 59.3663C235.8 59.0664 242.045 56.1712 246.557 51.3058C246.769 51.0748 246.93 50.8021 247.03 50.5051C247.131 50.2082 247.167 49.8936 247.139 49.5815C247.11 49.2695 247.016 48.9669 246.864 48.6932C246.711 48.4195 246.503 48.1807 246.253 47.9922" fill="white"/>
<path d="M180.898 15.9527C174.957 15.9679 169.228 18.1619 164.796 22.119C162.758 23.9123 161.094 26.0901 159.899 28.5277C158.704 30.9653 158.002 33.6147 157.833 36.3242V56.2991C157.842 56.507 157.892 56.7112 157.98 56.8998C158.068 57.0885 158.192 57.258 158.346 57.3987C158.499 57.5393 158.679 57.6484 158.874 57.7196C159.07 57.7907 159.277 57.8227 159.485 57.8136H168.35C168.77 57.8315 169.18 57.6821 169.49 57.3981C169.8 57.1142 169.984 56.7189 170.003 56.2991V37.4183C170.064 34.7056 171.165 32.1202 173.078 30.1963C174.991 28.2724 177.571 27.1572 180.283 27.0811H182.1C182.691 27.104 183.266 26.8923 183.701 26.4923C184.136 26.0922 184.394 25.5364 184.421 24.9461V18.6054C184.388 17.8702 184.065 17.1778 183.523 16.6805C182.98 16.1831 182.263 15.9214 181.527 15.9527H180.898Z" fill="white"/>
<path d="M27.9733 24.0063C24.6353 23.3348 21.3598 22.3836 18.1813 21.1627C15.6902 20.1053 14.3887 18.1428 14.8623 16.1547C15.369 14.0234 18.0583 11.7489 24.0796 11.7489L36.8235 11.7305C37.2436 11.7484 37.6537 11.5988 37.9635 11.3144C38.2733 11.0301 38.4576 10.6343 38.4757 10.2142V1.5182C38.4669 1.31001 38.4173 1.10558 38.3295 0.916593C38.2417 0.727607 38.1176 0.557767 37.9642 0.416779C37.8107 0.275791 37.631 0.166418 37.4353 0.0949092C37.2396 0.0234004 37.0317 -0.00884259 36.8235 2.27726e-05H24.0796C19.6918 -0.0807052 15.3345 0.745504 11.2807 2.4269C8.10529 3.75434 5.324 5.87508 3.20337 8.58588C1.63351 10.5613 0.615733 12.9177 0.253885 15.4149C-0.107963 17.912 0.199066 20.4604 1.14365 22.8002C4.11391 30.1212 11.8939 32.2139 22.6588 35.1108C25.4913 35.8726 28.4212 36.662 31.6154 37.6239C34.5416 38.5088 36.3242 40.6162 35.9552 42.7494C35.5385 45.1469 32.1992 47.7059 24.0796 47.7059H18.6954C18.2752 47.688 17.8651 47.8377 17.5553 48.122C17.2455 48.4064 17.0613 48.8021 17.0432 49.2223V58.0101C17.0613 58.4302 17.2455 58.8259 17.5553 59.1103C17.8651 59.3946 18.2752 59.5443 18.6954 59.5264H24.0796C29.9193 59.7256 35.7199 58.5041 40.9833 55.9669C44.6042 54.1694 47.5185 51.2105 49.2608 47.5627C50.4768 44.996 50.8671 42.1153 50.3779 39.3174C49.8887 36.5196 48.5441 33.9423 46.5292 31.9404C41.2752 27.0995 34.5196 25.5171 27.9733 24.0063Z" fill="white"/>
<path d="M6.95206 47.2049C7.86108 47.2024 8.76278 47.3673 9.61208 47.6913C10.4457 48.0048 11.2111 48.476 11.8664 49.0792C12.5046 49.661 13.0175 50.3668 13.3736 51.1536C13.7219 51.923 13.9022 52.7579 13.9022 53.6025C13.9022 54.4471 13.7219 55.282 13.3736 56.0514C13.0184 56.8387 12.5054 57.5447 11.8664 58.1258C11.2111 58.729 10.4457 59.2002 9.61208 59.5136C7.89677 60.1622 6.00369 60.1622 4.28838 59.5136C3.45474 59.2002 2.68934 58.729 2.03406 58.1258C1.39503 57.5447 0.882054 56.8387 0.526902 56.0514C0.178507 55.282 -0.00170898 54.4471 -0.00170898 53.6025C-0.00170898 52.7579 0.178507 51.923 0.526902 51.1536C0.882999 50.3668 1.39584 49.661 2.03406 49.0792C2.68934 48.476 3.45474 48.0048 4.28838 47.6913C5.13768 47.3673 6.03938 47.2024 6.94839 47.2049" fill="white"/>
<path d="M66.9134 31.9312C68.0526 30.2773 69.5766 28.9251 71.3543 27.9909C73.1321 27.0568 75.1102 26.5687 77.1184 26.5687C79.1266 26.5687 81.1048 27.0568 82.8825 27.9909C84.6602 28.9251 86.1843 30.2773 87.3234 31.9312H66.9134ZM93.5889 21.6748C88.9016 17.6647 82.9103 15.5058 76.7425 15.6046C70.5747 15.7033 64.6556 18.0528 60.0991 22.2109C57.9862 24.1547 56.2968 26.5133 55.1363 29.1393C53.9759 31.7653 53.3693 34.6024 53.3545 37.4734C53.3545 49.5325 64.0148 59.3428 77.1166 59.3428C83.9732 59.3645 90.5826 56.7835 95.61 52.1209V52.1356L96.616 51.1865C96.7708 51.0441 96.8924 50.8695 96.9723 50.6749C97.0522 50.4804 97.0885 50.2707 97.0785 50.0606C97.0685 49.8505 97.0125 49.6452 96.9146 49.4591C96.8166 49.273 96.6789 49.1107 96.5114 48.9836L95.7477 48.3741L89.9559 43.7609C89.6266 43.5044 89.2166 43.3739 88.7997 43.3928C88.3827 43.4116 87.9862 43.5786 87.6814 43.8637L87.0132 44.5117C84.32 47.002 80.7865 48.3846 77.1184 48.3833C74.7844 48.4303 72.4883 47.7877 70.5177 46.5361C68.547 45.2845 66.9893 43.4794 66.0396 41.3468H98.2333C98.8628 41.3647 99.4762 41.1468 99.9533 40.7359C100.43 40.325 100.737 39.7507 100.813 39.1256C100.866 38.4702 100.888 37.8075 100.879 37.1503C100.821 34.203 100.142 31.3012 98.8856 28.6344C97.6294 25.9677 95.8245 23.5961 93.5889 21.6748" fill="white"/>
</g>
<defs>
<clipPath id="clip0_2449_5457">
<rect width="247.299" height="60" fill="white"/>
</clipPath>
</defs>
</svg>
