<svg width="416" height="60" viewBox="0 0 416 60" fill="none" xmlns="http://www.w3.org/2000/svg">
<g clip-path="url(#clip0_2449_5442)">
<path d="M0 0H90C90 0 72.32 6.24 78.7 30C85.08 53.76 67.38 60 67.38 60L0 0Z" fill="white"/>
<path d="M104.28 45.02C101.849 45.0614 99.4372 44.5912 97.2 43.64C95.248 42.8198 93.5399 41.5112 92.24 39.84C91.0509 38.2639 90.355 36.371 90.24 34.4H99.54C99.5807 34.9364 99.7293 35.4591 99.9767 35.9367C100.224 36.4144 100.565 36.8373 100.98 37.18C101.94 37.8677 103.1 38.2193 104.28 38.18C105.228 38.2413 106.17 37.9882 106.96 37.46C107.282 37.2379 107.542 36.9381 107.717 36.5884C107.892 36.2388 107.975 35.8506 107.96 35.46C107.96 35.026 107.828 34.6023 107.581 34.2451C107.335 33.8879 106.986 33.6141 106.58 33.46C105.102 32.8606 103.568 32.4117 102 32.12C100.128 31.6971 98.2839 31.1561 96.48 30.5C95.0333 29.9252 93.7493 29.0051 92.74 27.82C91.6588 26.3842 91.114 24.6153 91.2 22.82C91.2031 21.1019 91.7184 19.4238 92.68 18C93.7474 16.4445 95.2402 15.2294 96.98 14.5C99.0836 13.5533 101.374 13.0952 103.68 13.16C106.954 12.949 110.19 13.961 112.76 16C115.012 17.9489 116.399 20.7103 116.62 23.68H108C107.958 23.1582 107.808 22.6508 107.56 22.1896C107.312 21.7284 106.972 21.3234 106.56 21C105.671 20.2786 104.542 19.9212 103.4 20C102.511 19.9417 101.626 20.1732 100.88 20.66C100.588 20.8799 100.355 21.1683 100.202 21.4997C100.048 21.8312 99.9791 22.1953 100 22.56C100 22.994 100.132 23.4177 100.379 23.7749C100.625 24.1321 100.974 24.4059 101.38 24.56C102.798 25.1544 104.272 25.6033 105.78 25.9C107.661 26.355 109.512 26.9295 111.32 27.62C112.813 28.1887 114.126 29.149 115.12 30.4C116.248 31.8606 116.816 33.677 116.72 35.52C116.741 37.2664 116.224 38.977 115.24 40.42C114.147 41.9523 112.632 43.1336 110.88 43.82C108.787 44.6744 106.539 45.0831 104.28 45.02V45.02Z" fill="white"/>
<path d="M139.64 44.5799L130.28 31.5599V44.5799H120.88V3.3999H130.28V26.1599L139.58 13.5199H151.2L138.44 29.0999L151.3 44.5799H139.64Z" fill="white"/>
<path d="M160.28 13.52L167.38 32.94L174.42 13.52H184.6L165.34 59.32H155.22L162.26 43.52L149.78 13.52H160.28Z" fill="white"/>
<path d="M230.42 13.52L222.12 44.58H211.72L206.86 24.44L201.86 44.58H191.52L183.16 13.52H192.56L196.92 35.72L202 13.52H212L217.22 35.52L221.52 13.52H230.42Z" fill="white"/>
<path d="M230.48 29.0001C230.422 26.1028 231.024 23.2303 232.24 20.6001C233.327 18.3233 235.023 16.3919 237.14 15.0201C239.191 13.7006 241.581 13.0058 244.02 13.0201C245.991 12.9698 247.941 13.4315 249.68 14.3601C251.26 15.1975 252.575 16.4578 253.48 18.0001V13.5201H262.88V44.5801H253.48V40.1801C252.524 41.6592 251.201 42.8652 249.64 43.6801C247.893 44.6068 245.937 45.0683 243.96 45.0201C241.541 45.0285 239.171 44.3336 237.14 43.0201C235.034 41.6174 233.343 39.677 232.24 37.4001C231.041 34.7643 230.439 31.8956 230.48 29.0001V29.0001ZM253.48 29.0001C253.587 26.9292 252.868 24.9005 251.48 23.3601C250.877 22.7099 250.142 22.1954 249.325 21.8506C248.508 21.5058 247.627 21.3386 246.74 21.3601C245.848 21.343 244.962 21.5121 244.139 21.8564C243.316 22.2008 242.574 22.7129 241.96 23.3601C241.276 24.1131 240.748 24.9936 240.405 25.951C240.061 26.9085 239.91 27.9242 239.96 28.9401C239.88 31.0188 240.595 33.0499 241.96 34.6201C242.575 35.2663 243.317 35.7777 244.14 36.122C244.963 36.4663 245.848 36.6359 246.74 36.6201C247.627 36.6415 248.508 36.4743 249.325 36.1295C250.142 35.7847 250.877 35.2702 251.48 34.6201C252.85 33.1007 253.568 31.104 253.48 29.0601V29.0001Z" fill="white"/>
<path d="M285.16 36.5V44.5H280.36C277.476 44.6813 274.627 43.791 272.36 42C271.316 40.9021 270.518 39.5934 270.021 38.1618C269.525 36.7302 269.34 35.2089 269.48 33.7V21.42H265.74V13.42H269.48V6H278.9V13.52H285.06V21.52H278.9V34C278.867 34.3608 278.908 34.7246 279.022 35.0687C279.135 35.4127 279.319 35.7298 279.56 36C280.196 36.4617 280.978 36.6751 281.76 36.6L285.16 36.5Z" fill="white"/>
<path d="M286.88 29.0599C286.834 26.1176 287.521 23.2101 288.88 20.5999C290.129 18.2626 292.015 16.3276 294.32 15.0199C296.771 13.6794 299.526 12.9908 302.32 13.0199C305.812 12.8992 309.236 14.0029 312 16.1399C314.683 18.3084 316.499 21.3667 317.12 24.7599H307.12C306.834 23.6993 306.194 22.7681 305.307 22.1207C304.419 21.4732 303.337 21.1484 302.24 21.1999C301.439 21.1692 300.643 21.3355 299.921 21.6842C299.199 22.0329 298.574 22.5534 298.1 23.1999C296.967 24.9131 296.426 26.9503 296.56 28.9999C296.436 31.0612 296.976 33.1079 298.1 34.8399C298.58 35.4802 299.206 35.996 299.926 36.344C300.647 36.692 301.44 36.8621 302.24 36.8399C303.338 36.8952 304.422 36.5718 305.31 35.9238C306.198 35.2758 306.837 34.3425 307.12 33.2799H317.12C316.51 36.7049 314.694 39.7983 312 41.9999C309.255 44.1297 305.852 45.2333 302.38 45.1199C299.586 45.1491 296.831 44.4604 294.38 43.1199C292.075 41.8123 290.189 39.8773 288.94 37.5399C287.556 34.9295 286.848 32.0142 286.88 29.0599V29.0599Z" fill="white"/>
<path d="M339.28 13.1799C340.867 13.1167 342.448 13.4048 343.91 14.0236C345.373 14.6425 346.681 15.5769 347.74 16.7599C350.007 19.4578 351.152 22.9225 350.94 26.4399V44.5799H341.58V27.7199C341.699 25.9596 341.125 24.2226 339.98 22.8799C339.436 22.2968 338.771 21.8392 338.032 21.5387C337.293 21.2382 336.497 21.1022 335.7 21.1399C334.9 21.1046 334.103 21.2417 333.361 21.5419C332.619 21.8421 331.95 22.2985 331.4 22.8799C330.265 24.2278 329.692 25.9609 329.8 27.7199V44.5799H320.4V3.3999H329.8V17.6999C330.823 16.2747 332.202 15.1435 333.8 14.4199C335.506 13.5886 337.382 13.1642 339.28 13.1799Z" fill="white"/>
<path d="M360.22 45.0199C358.753 45.0615 357.324 44.5471 356.22 43.5799C355.733 43.0948 355.346 42.5183 355.082 41.8833C354.818 41.2484 354.682 40.5675 354.682 39.8799C354.682 39.1923 354.818 38.5114 355.082 37.8765C355.346 37.2415 355.733 36.6649 356.22 36.1799C357.307 35.1784 358.742 34.6403 360.22 34.6799C360.954 34.6459 361.686 34.7613 362.374 35.0192C363.062 35.277 363.69 35.6719 364.22 36.1799C364.725 36.6549 365.127 37.2282 365.402 37.8645C365.677 38.5008 365.819 39.1867 365.819 39.8799C365.819 40.5731 365.677 41.259 365.402 41.8953C365.127 42.5316 364.725 43.1049 364.22 43.5799C363.681 44.0715 363.05 44.4517 362.364 44.6988C361.677 44.946 360.949 45.0551 360.22 45.0199V45.0199Z" fill="white"/>
<path d="M367.82 29.0001C367.762 26.1028 368.364 23.2303 369.58 20.6001C370.673 18.3273 372.368 16.3974 374.48 15.0201C376.532 13.7038 378.922 13.0092 381.36 13.0201C383.331 12.9698 385.281 13.4315 387.02 14.3601C388.6 15.1975 389.915 16.4578 390.82 18.0001V13.5201H400.24V44.5801H390.82V40.1801C389.871 41.6647 388.546 42.8721 386.98 43.6801C385.234 44.6094 383.277 45.071 381.3 45.0201C378.881 45.025 376.513 44.3305 374.48 43.0201C372.38 41.6116 370.689 39.6727 369.58 37.4001C368.381 34.7643 367.78 31.8956 367.82 29.0001V29.0001ZM390.82 29.0001C390.927 26.9293 390.208 24.9005 388.82 23.3601C388.22 22.7115 387.489 22.1978 386.675 21.853C385.861 21.5082 384.984 21.3402 384.1 21.3601C383.205 21.3414 382.316 21.5097 381.489 21.8541C380.663 22.1984 379.917 22.7113 379.3 23.3601C378.616 24.1131 378.088 24.9936 377.745 25.951C377.401 26.9085 377.25 27.9242 377.3 28.9401C377.22 31.0188 377.935 33.0499 379.3 34.6201C379.918 35.2678 380.664 35.7801 381.49 36.1244C382.316 36.4687 383.205 36.6375 384.1 36.6201C384.983 36.6387 385.861 36.4701 386.674 36.1254C387.488 35.7806 388.219 35.2676 388.82 34.6201C390.19 33.1007 390.908 31.104 390.82 29.0601V29.0001Z" fill="white"/>
<path d="M410.12 10.3C408.65 10.334 407.222 9.81269 406.12 8.83995C405.627 8.36862 405.237 7.79985 404.975 7.16977C404.713 6.53968 404.586 5.86206 404.6 5.17995C404.562 4.5027 404.668 3.82512 404.909 3.19116C405.15 2.5572 405.522 1.981 406 1.49995C407.093 0.507486 408.524 -0.0292079 410 -4.73422e-05C410.734 -0.0340462 411.466 0.0813843 412.154 0.339237C412.842 0.597089 413.47 0.991985 414 1.49995C414.517 1.96073 414.929 2.5285 415.205 3.16393C415.481 3.79935 415.616 4.48725 415.6 5.17995C415.608 5.86855 415.469 6.55095 415.193 7.18193C414.918 7.81291 414.511 8.37807 414 8.83995C412.948 9.81592 411.555 10.3401 410.12 10.3V10.3ZM414.8 13.52V44.58H405.4V13.52H414.8Z" fill="white"/>
</g>
<defs>
<clipPath id="clip0_2449_5442">
<rect width="415.68" height="60" fill="white"/>
</clipPath>
</defs>
</svg>
