<svg width="119" height="120" viewBox="0 0 119 120" fill="none" xmlns="http://www.w3.org/2000/svg">
<g clip-path="url(#clip0)">
<path d="M59.2247 120L0 60.7753L42.0606 18.7147C44.3144 16.4602 46.9902 14.6718 49.9353 13.4517C52.8803 12.2316 56.0369 11.6035 59.2247 11.6035C62.4125 11.6035 65.5691 12.2316 68.5142 13.4517C71.4592 14.6718 74.1351 16.4602 76.3888 18.7147L118.449 60.7753L59.2247 120ZM3.71213 60.7753L59.2247 116.288L114.737 60.7753L74.5302 20.5682C70.4695 16.5117 64.9645 14.2332 59.2247 14.2332C53.485 14.2332 47.98 16.5117 43.9192 20.5682L3.71213 60.7753Z" fill="white"/>
<path d="M59.2247 108.396L0 49.1716L42.0606 7.11102C44.3144 4.85655 46.9902 3.06818 49.9353 1.84803C52.8803 0.627885 56.0369 -0.00012207 59.2247 -0.00012207C62.4125 -0.00012207 65.5691 0.627885 68.5142 1.84803C71.4592 3.06818 74.1351 4.85655 76.3888 7.11102L118.449 49.1716L59.2247 108.396ZM3.71213 49.1716L59.2247 104.679L114.737 49.1716L74.5302 8.96452C72.5205 6.9541 70.1345 5.35931 67.5083 4.27123C64.8821 3.18316 62.0674 2.62313 59.2247 2.62313C56.3821 2.62313 53.5673 3.18316 50.9411 4.27123C48.315 5.35931 45.9289 6.9541 43.9192 8.96452L3.71213 49.1716Z" fill="white"/>
<path d="M18.8372 51.5601L16.2051 54.1923L18.8372 56.8244L21.4694 54.1923L18.8372 51.5601Z" fill="white"/>
<path d="M99.6107 51.5554L96.9785 54.1876L99.6107 56.8197L102.243 54.1876L99.6107 51.5554Z" fill="white"/>
<path d="M33.1002 56.0312L35.8111 49.911H37.5568L33.1002 59.6201L28.623 49.911H30.3841L33.1002 56.0312Z" fill="white"/>
<path d="M47.3588 59.045H45.8185V57.782H45.7826C45.4197 58.2708 44.9452 58.6657 44.3985 58.9337C43.8519 59.2016 43.249 59.3349 42.6404 59.3223C42.0132 59.332 41.3926 59.1948 40.8279 58.9218C40.3071 58.6742 39.841 58.3251 39.4571 57.8949C39.0687 57.4431 38.7722 56.9199 38.5842 56.3546C38.3815 55.7737 38.2791 55.1626 38.2813 54.5473C38.2795 53.917 38.3819 53.2908 38.5842 52.6938C38.772 52.1306 39.0647 51.608 39.4468 51.1535C39.8293 50.7196 40.2979 50.3699 40.8228 50.1267C41.399 49.8624 42.0271 49.7308 42.6609 49.7416C43.2666 49.7372 43.8648 49.8762 44.4066 50.1472C44.9471 50.4182 45.4179 50.8099 45.7826 51.2922H45.8185V49.911H47.3588V59.045ZM42.8252 51.0919C42.3987 51.0776 41.9748 51.1638 41.5878 51.3435C41.2307 51.5192 40.9142 51.7675 40.6585 52.0726C40.4001 52.3773 40.1968 52.7248 40.0578 53.0994C39.9162 53.4947 39.8449 53.9118 39.8473 54.3317C39.8448 54.7718 39.9089 55.2097 40.0372 55.6307C40.1633 56.0293 40.3579 56.4028 40.6123 56.7346C40.8626 57.0569 41.1796 57.3213 41.5416 57.5099C41.9409 57.7104 42.3836 57.8092 42.8303 57.7974C43.2615 57.8135 43.6905 57.7291 44.0835 57.5509C44.4765 57.3726 44.8226 57.1055 45.0946 56.7705C45.3622 56.4569 45.5662 56.0941 45.6953 55.7026C45.829 55.2774 45.8948 54.8338 45.8904 54.3882C45.8924 53.9532 45.8212 53.5211 45.6799 53.1097C45.5438 52.7337 45.3402 52.3857 45.0792 52.0828C44.8147 51.7695 44.4854 51.5172 44.1139 51.3435C43.7074 51.168 43.2679 51.0822 42.8252 51.0919V51.0919Z" fill="white"/>
<path d="M51.7395 59.045H50.1992V43.031H51.7395V59.045Z" fill="white"/>
<path d="M55.7082 45.3774C55.9267 45.3784 56.1399 45.4443 56.321 45.5666C56.502 45.689 56.6426 45.8623 56.7251 46.0646C56.8075 46.2669 56.8281 46.4891 56.7842 46.7031C56.7403 46.9172 56.6339 47.1133 56.4784 47.2668C56.2723 47.4675 55.9959 47.5799 55.7082 47.5799C55.4205 47.5799 55.1442 47.4675 54.9381 47.2668C54.8324 47.1654 54.7486 47.0434 54.6921 46.9082C54.6356 46.7731 54.6074 46.6277 54.6095 46.4813C54.6081 46.3349 54.6365 46.1897 54.6929 46.0547C54.7494 45.9196 54.8328 45.7975 54.9381 45.6957C55.0382 45.5933 55.1581 45.5122 55.2905 45.4575C55.4229 45.4028 55.565 45.3755 55.7082 45.3774V45.3774ZM56.4784 59.045H54.9381V49.911H56.4784V59.045Z" fill="white"/>
<path d="M66.4806 57.7563H66.4447C66.082 58.2393 65.6058 58.6255 65.0584 58.8807C64.5091 59.1389 63.9094 59.2722 63.3024 59.2709C62.677 59.2808 62.0579 59.1436 61.4952 58.8704C60.972 58.6243 60.504 58.275 60.1192 57.8436C59.7327 57.3905 59.4364 56.8676 59.2463 56.3033C59.0436 55.7224 58.9412 55.1112 58.9434 54.496C58.9416 53.8657 59.044 53.2394 59.2463 52.6425C59.4341 52.0792 59.7268 51.5566 60.1089 51.1022C60.4914 50.6682 60.96 50.3185 61.4849 50.0753C62.0611 49.811 62.6892 49.6794 63.323 49.6902C63.9287 49.6859 64.5269 49.8249 65.0687 50.0958C65.6101 50.3654 66.0812 50.7574 66.4447 51.2408H66.4806V43.031H68.0209V59.045H66.4806V57.7563ZM63.4976 51.0816C63.0762 51.0756 62.6594 51.1688 62.2807 51.3538C61.9221 51.5294 61.6038 51.7777 61.3463 52.0828C61.0878 52.3876 60.8845 52.7351 60.7455 53.1097C60.6059 53.5055 60.5347 53.9222 60.535 54.3419C60.5318 54.7825 60.5976 55.2208 60.7301 55.6409C60.8521 56.0402 61.0451 56.4142 61.3001 56.7448C61.5504 57.0671 61.8674 57.3316 62.2294 57.5201C62.6287 57.7207 63.0714 57.8195 63.5181 57.8076C63.9501 57.8245 64.3802 57.7405 64.7741 57.5623C65.168 57.384 65.515 57.1165 65.7875 56.7808C66.0494 56.455 66.2464 56.082 66.3676 55.682C66.4971 55.256 66.5612 54.8128 66.5576 54.3676C66.5621 53.9325 66.4909 53.4999 66.3471 53.0892C66.211 52.7132 66.0074 52.3652 65.7464 52.0623C65.4812 51.7596 65.1537 51.5179 64.7863 51.3538C64.3806 51.1747 63.941 51.0854 63.4976 51.0919V51.0816Z" fill="white"/>
<path d="M71.9826 45.3774C72.2015 45.3774 72.4155 45.4426 72.5973 45.5645C72.7791 45.6865 72.9205 45.8597 73.0036 46.0622C73.0867 46.2647 73.1077 46.4874 73.064 46.7019C73.0202 46.9164 72.9137 47.113 72.7579 47.2668C72.5518 47.4675 72.2755 47.5799 71.9878 47.5799C71.7001 47.5799 71.4237 47.4675 71.2176 47.2668C71.0643 47.1121 70.96 46.9156 70.9176 46.7019C70.8753 46.4883 70.8968 46.2669 70.9795 46.0653C71.0622 45.8638 71.2024 45.6911 71.3826 45.5688C71.5628 45.4464 71.7751 45.3799 71.9929 45.3774H71.9826ZM72.7579 59.045H71.2176V49.911H72.7579V59.045Z" fill="white"/>
<path d="M77.6778 59.045H76.1375V51.3435H75.2852V49.911H76.1375V46.2861C76.1375 45.9113 76.1375 45.5109 76.1888 45.0796C76.2101 44.6705 76.3337 44.2733 76.5482 43.9243C76.7873 43.5278 77.1472 43.2183 77.5751 43.0412C78.168 42.7911 78.8207 42.718 79.4542 42.8307C79.641 42.8635 79.8247 42.9116 80.0036 42.9745V44.5456C79.8363 44.4823 79.6647 44.4308 79.4902 44.3916C79.3222 44.3503 79.1498 44.3296 78.9768 44.33C78.7232 44.3167 78.471 44.3735 78.2477 44.4943C78.0663 44.616 77.9336 44.7978 77.8729 45.0077C77.7855 45.2606 77.7387 45.5257 77.7342 45.7933C77.7342 46.1013 77.7342 46.4556 77.7342 46.8561V49.9367H80.0396V51.3435H77.7342L77.6778 59.045Z" fill="white"/>
<path d="M79.2188 49.911H81.0209L84.235 56.4368L87.177 49.911H88.9432L82.2172 64.128H80.4561L83.4032 58.1619L79.2188 49.911Z" fill="white"/>
</g>
<defs>
<clipPath id="clip0">
<rect width="118.449" height="120" fill="white"/>
</clipPath>
</defs>
</svg>
