<svg width="304" height="60" viewBox="0 0 304 60" fill="none" xmlns="http://www.w3.org/2000/svg">
<g clip-path="url(#clip0_2449_5467)">
<mask id="mask0_2449_5467" style="mask-type:alpha" maskUnits="userSpaceOnUse" x="0" y="0" width="304" height="60">
<path d="M0.000244141 0H303.13V59.7904H0.000244141V0Z" fill="white"/>
</mask>
<g mask="url(#mask0_2449_5467)">
<path fill-rule="evenodd" clip-rule="evenodd" d="M303.127 53.6895C303.175 55.2717 302.584 56.7676 301.462 57.9018C300.338 59.0365 298.832 59.6611 297.221 59.6611L283.512 59.6689C280.248 59.6689 277.592 57.0647 277.592 53.8633V19.3156L248.546 56.7503C247.069 58.6078 244.853 59.6689 242.462 59.6689C238.213 59.6689 234.756 56.2798 234.756 52.113V19.3148L205.174 57.4247C204.038 58.8536 202.336 59.6689 200.498 59.6689C198.146 59.6689 196.104 58.4106 195.107 56.385C194.111 54.3589 194.379 52.007 195.808 50.2477L232.644 3.94784C234.142 2.10263 236.374 1.0477 238.771 1.0477C243.086 1.0477 246.597 4.4903 246.597 8.72154V40.404L275.479 3.94907C276.978 2.10263 279.21 1.0477 281.608 1.0477C285.923 1.0477 289.433 4.4903 289.433 8.72154V48.0729H297.006C300.286 48.0729 303.032 50.5925 303.127 53.6895ZM72.9979 10.4698L36.164 56.7696C34.6582 58.6247 32.3754 59.6673 30.0167 59.6673C29.388 59.6673 28.7548 59.5937 28.1286 59.4417C24.6426 58.593 22.208 55.4311 22.208 51.7522V12.5274H6.12419C2.84305 12.5274 0.0971057 10.0078 0.00280814 6.91085C-0.0449693 5.32866 0.545962 3.83277 1.66831 2.69852C2.79192 1.56387 4.29733 0.939208 5.90919 0.939208L28.057 0.928112H28.0607C29.6604 0.928112 31.1646 1.53921 32.2962 2.64798C33.429 3.75798 34.053 5.23373 34.053 6.804L34.0535 41.4072L63.6361 3.29236C64.771 1.86345 66.4734 1.0477 68.3115 1.0477H68.366C70.6598 1.0477 72.7033 2.30647 73.6995 4.33208C74.6953 6.35852 74.4266 8.71003 72.9979 10.4698ZM182.247 42.6059L182.243 42.6109C177.982 46.9444 172.727 49.1418 166.625 49.1418C161.03 49.1418 156.667 47.604 153.29 44.4474C149.967 41.267 148.353 37.3107 148.353 32.3525C148.353 26.6525 150.484 21.7156 154.868 17.26C159.246 12.811 164.354 10.6485 170.486 10.6485C175.915 10.6485 180.374 12.2821 183.744 15.5102C187.071 18.6211 188.758 22.7698 188.758 27.841C188.758 33.4021 186.629 38.2321 182.247 42.6059ZM200.44 27.0355C200.44 19.2207 197.647 12.6889 192.139 7.62099C186.644 2.56414 179.553 -0.000244141 171.061 -0.000244141C164.784 -0.000244141 158.925 1.58236 153.655 4.69825C148.368 7.74345 144.155 11.8756 141.13 16.9839C138.172 22.0399 136.671 27.4818 136.671 33.158C136.671 40.8618 139.436 47.3126 144.893 52.335C150.359 57.2821 157.45 59.7906 165.968 59.7906C172.464 59.7906 178.433 58.208 183.712 55.0855C189.086 51.8747 193.242 47.7696 196.063 42.8874C198.967 37.9247 200.44 32.5913 200.44 27.0355ZM114.999 42.6059L114.995 42.6109C110.734 46.9444 105.479 49.1418 99.3765 49.1418C93.7824 49.1418 89.4183 47.604 86.0424 44.4474C82.7194 41.267 81.1046 37.3107 81.1046 32.3525C81.1046 26.6525 83.2357 21.7156 87.6203 17.26C91.9983 12.811 97.1063 10.6485 103.238 10.6485C108.667 10.6485 113.126 12.2821 116.496 15.5102C119.823 18.6211 121.51 22.7698 121.51 27.841C121.51 33.4021 119.381 38.2321 114.999 42.6059ZM124.891 7.62099C119.396 2.56414 112.305 -0.000244141 103.813 -0.000244141C97.5354 -0.000244141 91.6764 1.58236 86.407 4.69825C81.1197 7.74345 76.9065 11.8756 73.8822 16.9839C70.9238 22.0399 69.4234 27.4818 69.4234 33.158C69.4234 40.8618 72.1878 47.3126 77.6453 52.335C83.1108 57.2821 90.2016 59.7906 98.7198 59.7906C105.215 59.7906 111.184 58.208 116.464 55.0855C121.837 51.8747 125.994 47.7696 128.814 42.8874C131.719 37.9247 133.191 32.5913 133.191 27.0355C133.191 19.2207 130.398 12.6889 124.891 7.62099Z" fill="white"/>
</g>
</g>
<defs>
<clipPath id="clip0_2449_5467">
<rect width="303.429" height="60" fill="white"/>
</clipPath>
</defs>
</svg>
