<svg width="382" height="120" viewBox="0 0 382 120" fill="none" xmlns="http://www.w3.org/2000/svg">
<g clip-path="url(#clip0)">
<path d="M176.152 15.4939C173.345 15.4939 171.265 14.87 169.913 13.6222C168.561 12.3743 167.938 10.7106 167.938 8.42287C167.938 6.13518 168.769 4.36741 170.641 2.80762C172.513 1.24783 174.697 0.519928 177.504 0.519928C180 0.519928 181.976 1.14384 183.431 2.28769C184.887 3.43154 185.511 4.99133 185.511 7.07105C185.511 9.67071 184.679 11.7504 183.015 13.3102C181.248 14.766 178.96 15.4939 176.152 15.4939Z" fill="white"/>
<path d="M14.2461 120C9.98267 120 6.65511 118.752 3.95147 116.153C1.24783 113.553 0 110.225 0 105.962C0 102.01 0.935875 97.8509 2.80763 93.6915C4.67938 89.5321 8.11092 84.5407 13.2062 79.0295C18.3016 73.5182 25.6846 67.0711 35.0433 59.896L35.3553 59.5841L35.7712 56.1525C36.3951 52.9289 37.1231 48.1456 37.851 42.1144L35.7712 41.6984C34.1075 47.8336 31.6118 52.617 28.5962 55.7366C25.5806 58.8561 22.461 60.4159 19.2374 60.4159C15.5979 60.4159 12.6863 58.7522 10.3986 55.3206C8.00693 51.8891 6.7591 47.4177 6.7591 42.2184C6.7591 35.6672 7.17504 29.636 8.11092 24.1248C8.94281 18.7175 10.3986 12.7903 12.4783 6.7591C13.3102 4.36742 14.4541 2.59965 15.8059 1.55979C17.2617 0.519931 19.6534 0 22.8769 0C25.0607 0 25.9965 0.415945 26.3085 0.727903C26.8284 1.14385 27.0364 1.76776 27.0364 2.70364C27.0364 3.0156 26.8284 4.36742 25.5806 9.67071C24.7487 12.8943 24.0208 15.9099 23.5009 18.6135C22.773 22.253 22.149 25.7886 21.6291 29.0121C21.1092 32.3397 20.7972 35.1473 20.7972 37.331C20.7972 42.3224 22.8769 43.3622 24.6447 43.3622C26.3085 43.3622 28.1802 42.0104 30.4679 38.9948C32.5477 36.2912 34.7314 32.1317 36.9151 26.7244C39.2028 21.3172 41.3865 14.5581 43.5702 6.65511C44.1941 4.26343 45.234 2.49567 46.4818 1.45581C47.7296 0.415945 49.7054 0 52.409 0C54.8007 0 55.7366 0.415945 56.0485 0.623917C56.3605 0.831889 56.7764 1.24783 56.7764 2.39168C56.7764 4.57539 55.6326 12.1664 53.3449 25.0607L49.4974 48.9775L51.5771 47.4177C54.9047 44.922 58.2322 42.5303 61.7678 40.0347L61.9757 39.8267L62.0797 39.5147C62.2877 38.9948 62.4957 38.4749 62.7036 38.0589C64.7834 33.8995 67.591 30.5719 71.1265 28.2842C74.662 25.9965 78.6135 24.7487 82.9809 24.7487C88.2842 24.7487 92.4437 26.5165 95.6672 30.156C98.8908 33.7955 100.867 38.3709 101.386 43.7782L101.49 44.818L102.53 44.714C104.402 44.6101 106.586 44.2981 108.873 43.8821L109.601 43.7782L109.705 43.0503C110.329 38.6828 111.369 34.4194 112.617 30.26C113.241 28.3882 114.177 27.0364 115.425 26.1005C116.776 25.2686 118.648 24.7487 121.144 24.7487C122.808 24.7487 123.432 24.9567 123.64 25.1646C123.951 25.3726 124.055 25.8925 124.055 26.4125C124.055 27.1404 123.744 29.1161 122.496 34.0035C121.768 36.9151 121.144 39.5147 120.728 41.8024C120.312 43.9861 119.896 46.7938 119.584 50.0173L121.56 50.4333C123.951 44.2981 126.655 39.2028 129.567 35.3553C132.478 31.5078 135.39 28.8042 138.094 27.1404C140.797 25.5806 143.293 24.7487 145.581 24.7487C149.74 24.7487 151.716 26.7244 151.716 30.8839C151.716 33.6915 150.884 38.7868 149.324 46.1698C147.868 52.617 147.244 56.8804 147.244 59.0641C147.244 63.7435 149.844 64.4714 151.508 64.4714C153.276 64.4714 155.147 63.5355 157.435 61.5598C158.787 60.312 160.555 58.5442 162.634 56.1525L162.842 55.8406V55.4246C162.946 52.409 163.362 48.7695 164.09 44.5061C164.922 39.4107 165.962 34.6274 167.314 30.156C167.938 28.0763 168.666 26.6204 169.601 25.8925C170.537 25.1646 172.097 24.8527 174.177 24.8527C178.752 24.8527 178.752 26.8284 178.752 27.5563C178.752 29.3241 178.024 33.4835 176.672 40.0347C174.905 48.2496 173.969 53.6568 173.969 56.5685C173.969 58.9601 174.281 60.7279 175.009 62.0797C175.737 63.6395 177.088 64.3674 178.856 64.3674C180.416 64.3674 182.288 63.3276 184.471 61.3518C186.239 59.688 188.735 57.0884 191.646 53.5529L191.958 53.2409V52.825C191.438 45.8579 191.23 39.5147 191.23 33.8995V30.156C191.334 28.0763 191.854 26.7244 192.79 25.8925C193.83 25.0607 195.494 24.6447 197.782 24.6447C199.445 24.6447 200.589 24.9567 201.317 25.6846C202.045 26.3085 202.357 27.4523 202.357 29.1161C202.357 37.539 202.877 48.5615 203.917 61.9757L204.125 64.9913L205.789 62.4957C210.156 55.9445 213.484 50.7452 215.667 46.7938L215.979 46.2738L215.771 45.7539C214.731 43.7782 214.211 41.3865 214.211 38.6828C214.211 36.3951 214.731 34.1075 215.771 31.9237C216.811 29.74 218.163 27.9723 219.931 26.6205C221.698 25.2686 223.57 24.6447 225.754 24.6447C227.626 24.6447 228.977 25.2686 230.121 26.5165C231.265 27.7643 231.889 29.74 231.889 32.3397C231.889 35.4593 231.057 39.2028 229.289 43.2582L228.665 44.818L230.329 44.714C232.097 44.6101 234.281 44.4021 236.776 43.9861L237.4 43.8821L237.608 43.2582C238.128 41.6984 238.648 40.2426 239.272 38.8908C241.352 34.7314 244.159 31.4038 247.799 28.9081C251.334 26.5165 255.494 25.2686 259.965 25.2686C263.917 25.2686 267.036 26.4125 269.428 28.8042C271.82 31.1958 272.964 34.2114 272.964 38.3709C272.964 43.1542 271.3 47.2097 267.868 50.6412C264.437 54.0728 258.406 56.8804 249.983 58.9601L248.527 59.2721L249.151 60.4159C251.127 64.1594 254.974 66.0312 260.485 66.0312C263.917 66.0312 267.868 64.7834 272.236 62.4957C274.835 61.0399 277.331 59.2721 279.515 57.2964L279.827 56.9844V56.5685C279.827 47.4177 281.179 38.5789 283.882 30.364C284.506 28.4922 285.442 27.1404 286.69 26.2045C288.042 25.3726 289.913 24.8527 292.409 24.8527C294.073 24.8527 294.697 25.0607 294.905 25.2686C295.217 25.4766 295.321 25.9965 295.321 26.5165C295.321 27.2444 295.009 29.2201 293.761 34.1075C293.033 37.0191 292.409 39.6187 291.993 41.9064C291.577 44.0901 291.161 46.8977 290.849 50.1213L292.825 50.5373C295.217 44.4021 297.92 39.3068 300.832 35.4593C303.743 31.6118 306.655 28.9081 309.359 27.2444C312.062 25.6846 314.558 24.8527 316.846 24.8527C321.005 24.8527 322.981 26.8284 322.981 30.9879C322.981 31.6118 322.773 33.2756 322.045 37.747C321.421 40.7626 321.109 42.6343 321.109 43.4662C321.109 47.7296 323.501 48.3536 324.853 48.3536C326.828 48.3536 329.116 47.2097 331.82 44.818L332.548 44.1941C332.86 43.8821 333.172 43.5702 333.587 43.2582C333.795 43.0503 334.003 42.8423 334.315 42.6343H334.419L335.147 42.0104C336.915 40.3466 338.475 38.4749 339.619 36.1872C341.075 33.0676 342.218 30.5719 343.258 27.9723C344.506 25.1646 347.002 23.8128 350.953 23.8128C353.345 23.8128 354.385 24.0208 354.801 24.2288C355.321 24.4367 355.425 24.7487 355.425 25.0607C355.425 25.2686 355.425 25.6846 355.009 26.8284C354.697 27.6603 354.385 28.5962 353.865 29.5321C352.513 32.3397 351.785 34.7314 351.785 36.7071C351.785 37.9549 352.201 39.4107 353.033 40.8665C353.865 42.2184 355.009 43.8821 356.672 45.9619C358.96 48.9775 360.728 51.5771 361.872 53.6568C363.016 55.6326 363.536 57.8163 363.536 60.208C363.536 60.9359 363.432 61.8717 363.328 63.1196L363.12 64.7834L364.679 64.1594C368.423 62.7036 372.79 58.9601 377.782 52.721C378.406 51.9931 379.133 51.5771 379.965 51.5771C380.589 51.5771 381.005 51.7851 381.317 52.409C381.733 53.1369 381.941 54.1768 381.941 55.5286C381.941 58.0243 381.317 60.104 380.069 61.6638C376.534 66.0312 373.102 69.0468 369.983 70.6066C366.967 72.0624 357.608 74.5581 356.568 74.87C356.464 74.87 356.36 74.87 356.256 74.974C355.633 75.078 355.009 75.286 354.385 75.3899C352.513 75.8059 350.537 76.2218 348.042 76.4298C345.546 76.6378 343.778 76.7418 341.594 76.8458L340.451 76.9497C340.243 76.9497 340.139 76.9497 339.931 76.9497C339.619 76.9497 339.203 76.9497 338.891 76.9497C338.683 76.9497 338.475 76.9497 338.267 76.9497H338.059H337.851C336.499 76.8458 335.043 76.6378 333.587 76.2218C330.26 75.182 327.868 73.5182 326.62 71.5425C325.373 69.4627 325.061 67.591 325.685 65.8232C326.205 64.2634 327.14 63.1196 328.7 62.3917C329.428 61.9757 330.364 61.7678 331.3 61.7678C332.236 61.7678 333.276 61.9757 334.419 62.2877C335.251 62.5997 336.291 63.0156 337.435 63.5355C338.163 63.8475 338.683 64.1594 339.203 64.3674C340.555 65.0953 343.258 65.0953 344.298 65.0953C344.61 65.0953 344.922 65.0953 345.13 65.0953C346.066 65.0953 348.25 64.8873 350.745 63.9515L351.473 63.6395V62.9116C351.369 60.9359 350.953 59.0641 350.121 57.2964C349.289 55.5286 348.354 53.8648 347.106 52.201C346.586 51.4731 341.802 45.13 341.802 45.13L340.035 47.4177C339.203 48.4575 338.371 49.3934 337.331 50.1213L335.459 51.6811C334.315 52.825 333.172 53.7608 331.82 54.6967L331.612 54.8007C330.572 55.5286 329.74 56.0485 328.908 56.4645C326.308 57.9203 323.605 58.5442 320.693 58.5442C317.158 58.5442 314.35 57.6083 312.582 55.8406C310.711 54.0728 309.879 51.6811 309.879 48.5615C309.879 47.5217 309.983 46.4818 310.191 45.4419C310.399 43.7782 310.399 42.8423 310.399 42.3224C310.399 39.7227 308.631 39.5147 308.111 39.5147C306.655 39.5147 304.991 40.8666 302.912 43.5702C301.04 46.0659 299.272 49.3934 297.504 53.4489C295.737 57.5043 294.281 61.8717 293.137 66.3432C292.201 70.3986 291.161 72.1664 290.537 72.8943C289.705 73.8302 288.25 74.3501 286.274 74.3501C283.882 74.3501 282.322 73.2062 281.386 70.6066C281.179 69.9827 280.971 69.2548 280.763 68.5269L280.451 67.0711L279.203 68.0069C277.747 69.0468 276.187 69.9827 274.627 70.9185C269.844 73.6222 264.749 74.974 259.237 74.974C251.854 74.974 246.135 72.9983 242.08 69.0468C238.544 65.6153 236.568 60.9359 236.153 55.2166L236.049 54.1768L235.009 54.2808C234.073 54.3847 233.345 54.3847 232.513 54.3847C229.393 54.3847 226.482 53.9688 223.674 53.1369L222.946 52.9289L222.53 53.6568C220.451 57.0884 218.059 60.6239 215.563 64.2634C212.756 68.3189 210.26 71.1265 208.18 72.5823C206.204 73.9341 204.021 74.662 201.525 74.662C198.821 74.662 196.846 73.6222 195.286 71.5425C194.35 70.1906 193.518 68.3189 192.998 66.0312L192.582 64.1594L191.23 65.5113C185.511 71.5425 180 74.662 175.113 74.662C170.641 74.662 167.626 73.2062 165.65 70.0867C165.13 69.2548 164.714 68.4229 164.298 67.487L163.778 66.1352L162.634 67.175C161.075 68.6308 159.411 69.9827 157.747 71.1265C154.315 73.5182 150.364 74.662 145.997 74.662C142.565 74.662 140.069 73.7262 138.302 71.7504C136.534 69.7747 135.702 66.8631 135.702 63.0156C135.702 61.0399 136.222 57.4003 137.262 52.201C138.198 47.5217 138.717 44.2981 138.717 42.4263C138.717 39.8267 136.95 39.6187 136.43 39.6187C135.078 39.6187 133.518 40.8665 131.542 43.7782C129.775 46.2738 128.007 49.6014 126.135 53.6568C124.367 57.7123 122.808 62.0797 121.768 66.5511C120.832 70.6066 119.896 72.3744 119.168 73.1023C118.336 74.0381 116.88 74.5581 114.905 74.5581C112.513 74.5581 110.953 73.4142 110.017 70.8146C108.977 68.0069 108.354 63.4315 108.354 57.0884C108.354 56.3605 108.354 55.6326 108.354 54.9047V53.3449L107.106 53.5529C105.13 53.8648 103.154 54.0728 101.075 54.0728H100.243L100.035 54.8007C98.6828 60.7279 96.0832 65.5113 92.1317 69.0468C88.2842 72.5823 83.8128 74.3501 78.9255 74.3501C74.766 74.3501 71.1265 73.3102 68.2149 71.3345C65.3033 69.3587 63.0156 66.6551 61.4558 63.3276C60.312 60.7279 59.4801 57.9203 59.2721 54.9047L59.0641 53.1369L46.7938 61.4558L46.6898 61.8717C43.3622 79.9653 38.9948 94.4194 33.5875 104.714C28.8042 114.905 22.149 120 14.2461 120ZM30.6759 74.1421C23.8128 79.9653 18.7175 85.2686 15.7019 90.052C12.5823 94.9393 10.9185 99.3068 10.9185 103.05C10.9185 104.714 11.2305 106.17 11.9584 107.314C12.4783 108.25 13.6222 109.289 15.7019 109.289C18.3016 109.289 21.1092 106.586 24.0208 101.075C26.8284 95.8752 29.636 87.1404 32.3397 75.182L33.0676 72.1664L30.6759 74.1421ZM82.461 34.3154C79.1334 34.3154 76.4298 35.8752 74.3501 38.9948C72.2704 42.0104 71.2305 46.1698 71.2305 51.4731C71.2305 55.7366 72.0624 59.0641 73.8302 61.3518C75.5979 63.7435 77.7816 64.9913 80.1733 64.9913C82.773 64.9913 85.1646 63.9515 87.0364 61.7678C88.9081 59.688 90.156 56.7764 90.7799 53.0329L90.8839 52.409L90.364 51.9931C88.2842 50.5373 86.6204 48.6655 85.4766 46.3778C84.3327 44.0901 83.8128 41.4905 83.8128 38.8908C83.8128 37.747 83.9168 36.7071 84.1248 35.5633L84.2288 34.3154H82.461ZM257.99 34.0035C254.87 34.0035 252.27 35.7712 250.191 39.2028C248.215 42.5303 247.279 46.4818 247.279 51.1612V52.721L248.527 52.409C252.998 51.3692 256.534 49.7054 259.133 47.6256C261.837 45.338 263.293 42.7383 263.293 39.7227C263.293 38.0589 262.773 36.7071 261.837 35.6672C260.901 34.5234 259.653 34.0035 257.99 34.0035Z" fill="white"/>
</g>
<defs>
<clipPath id="clip0">
<rect width="381.941" height="120" fill="white"/>
</clipPath>
</defs>
</svg>
