<svg width="80" height="93" viewBox="0 0 80 93" fill="none" xmlns="http://www.w3.org/2000/svg">
<path d="M26.4836 1.82549C26.8512 -0.608496 30.3598 -0.608497 30.7274 1.82549L31.5004 6.94412C33.2225 18.3467 41.5433 27.6421 52.6864 30.6114L55.6176 31.3925C57.7422 31.9586 57.7422 34.9735 55.6176 35.5397L52.6864 36.3208C41.5433 39.29 33.2225 48.5854 31.5004 59.988L30.7274 65.1067C30.3598 67.5407 26.8512 67.5407 26.4836 65.1067L25.7106 59.988C23.9886 48.5854 15.6677 39.29 4.52463 36.3208L1.59339 35.5397C-0.53113 34.9735 -0.531132 31.9586 1.59339 31.3925L4.52462 30.6114C15.6677 27.6421 23.9886 18.3467 25.7106 6.94412L26.4836 1.82549Z" fill="url(#paint0_linear_2511_5444)"/>
<path d="M49.8298 59.1094C50.0167 57.8717 51.8007 57.8717 51.9876 59.1094L52.3807 61.7121C53.2563 67.5102 57.4874 72.2367 63.1534 73.7465L64.6439 74.1437C65.7242 74.4316 65.7242 75.9646 64.6439 76.2525L63.1534 76.6496C57.4874 78.1595 53.2563 82.886 52.3807 88.6841L51.9876 91.2868C51.8007 92.5244 50.0167 92.5244 49.8298 91.2868L49.4367 88.6841C48.5611 82.886 44.33 78.1595 38.664 76.6496L37.1735 76.2525C36.0932 75.9646 36.0932 74.4316 37.1735 74.1437L38.664 73.7465C44.33 72.2367 48.5611 67.5102 49.4367 61.7121L49.8298 59.1094Z" fill="url(#paint1_linear_2511_5444)"/>
<path d="M64.3757 30.02C64.5626 28.7824 66.3466 28.7824 66.5335 30.02L66.9266 32.6228C67.8022 38.4208 72.0333 43.1474 77.6993 44.6572L79.1898 45.0544C80.2701 45.3422 80.2701 46.8753 79.1898 47.1631L77.6993 47.5603C72.0333 49.0701 67.8022 53.7967 66.9266 59.5947L66.5335 62.1974C66.3466 63.4351 64.5626 63.4351 64.3757 62.1974L63.9826 59.5947C63.107 53.7967 58.8759 49.0701 53.2099 47.5603L51.7194 47.1631C50.6391 46.8753 50.6391 45.3422 51.7194 45.0544L53.2099 44.6572C58.8759 43.1474 63.107 38.4208 63.9826 32.6228L64.3757 30.02Z" fill="url(#paint2_linear_2511_5444)"/>
<defs>
<linearGradient id="paint0_linear_2511_5444" x1="0" y1="0" x2="58.2022" y2="67.7719" gradientUnits="userSpaceOnUse">
<stop stop-color="#DC2626"/>
<stop offset="1" stop-color="#F59E0B"/>
</linearGradient>
<linearGradient id="paint1_linear_2511_5444" x1="36.3633" y1="58.1812" x2="65.9581" y2="92.642" gradientUnits="userSpaceOnUse">
<stop stop-color="#DC2626"/>
<stop offset="1" stop-color="#F59E0B"/>
</linearGradient>
<linearGradient id="paint2_linear_2511_5444" x1="50.9092" y1="29.0918" x2="80.504" y2="63.5527" gradientUnits="userSpaceOnUse">
<stop stop-color="#DC2626"/>
<stop offset="1" stop-color="#F59E0B"/>
</linearGradient>
</defs>
</svg>
