<svg width="25" height="25" viewBox="0 0 25 25" fill="none" xmlns="http://www.w3.org/2000/svg">
<path d="M12.5 0C5.59692 0 0 5.59692 0 12.5C0 18.0237 3.58125 22.7081 8.54873 24.3606C9.17358 24.4751 9.40171 24.089 9.40171 23.7594C9.40171 23.4619 9.39026 22.4762 9.38416 21.4325C5.9082 22.1878 5.17349 19.9585 5.17349 19.9585C4.60435 18.515 3.78569 18.1305 3.78569 18.1305C2.64968 17.3553 3.87187 17.3706 3.87187 17.3706C5.1269 17.4576 5.78765 18.6584 5.78765 18.6584C6.90308 20.5688 8.71428 20.0165 9.42534 19.696C9.53897 18.8904 9.86245 18.338 10.2188 18.0267C7.44399 17.7109 4.525 16.6382 4.525 11.8484C4.525 10.4828 5.01252 9.3689 5.81055 8.4938C5.68313 8.17642 5.25283 6.90459 5.93413 5.18418C5.93413 5.18418 6.98242 4.84849 9.37192 6.46592C10.3683 6.18745 11.4372 6.05012 12.5 6.04553C13.562 6.05012 14.6316 6.18896 15.6296 6.46743C18.0145 4.84849 19.0643 5.18569 19.0643 5.18569C19.7479 6.90764 19.3176 8.17793 19.1895 8.4938C19.9905 9.3689 20.4742 10.4828 20.4742 11.8484C20.4742 16.6504 17.5507 17.7078 14.7659 18.0176C15.2161 18.4052 15.6143 19.165 15.6143 20.3308C15.6143 22.0017 15.5975 23.349 15.5975 23.761C15.5975 24.0936 15.8249 24.4827 16.4581 24.3606C21.4218 22.7051 25 18.0206 25 12.5C25 5.59692 19.4031 0 12.5 0Z" fill="black"/>
</svg>
