<svg width="48" height="48" viewBox="0 0 48 48" fill="none" xmlns="http://www.w3.org/2000/svg">
<path fill-rule="evenodd" clip-rule="evenodd" d="M41.6211 28.1646C41.3691 27.3886 40.9321 26.6776 40.3241 26.0346C39.6871 25.3626 38.8501 24.8426 37.8121 24.4666C36.7731 24.0936 35.4391 23.9046 33.7951 23.9046H31.5641C31.8301 21.1586 32.8081 18.8216 34.5001 16.8896C36.1891 14.9636 38.5311 13.2686 41.5251 11.8146L39.7091 9.0006C35.7671 10.6796 32.3941 13.1356 29.5921 16.3796C26.7911 19.6266 25.3961 22.8436 25.3961 26.0346C25.3961 29.4626 26.2051 32.1516 27.8361 34.0926C29.4671 36.0336 31.8031 37.0006 34.8401 37.0006C36.7671 37.0006 38.4411 36.3576 39.8651 35.0726C41.2871 33.7896 42.0001 32.2866 42.0001 30.5726C42.0001 29.7456 41.8751 28.9406 41.6211 28.1646ZM21.2251 28.1646C20.9711 27.3886 20.5351 26.6776 19.9261 26.0346C19.2911 25.3626 18.4531 24.8426 17.4141 24.4666C16.3771 24.0936 15.0431 23.9046 13.3981 23.9046H11.1661C11.4331 21.1586 12.4101 18.8216 14.1011 16.8896C15.7911 14.9636 18.1351 13.2686 21.1271 11.8146L19.3121 9.0006C15.3691 10.6796 11.9981 13.1356 9.19513 16.3796C6.39413 19.6266 5.00012 22.8436 5.00012 26.0346C5.00012 29.4626 5.80712 32.1516 7.43912 34.0926C9.06812 36.0336 11.4041 37.0006 14.4431 37.0006C16.3691 37.0006 18.0451 36.3576 19.4691 35.0726C20.8911 33.7896 21.6031 32.2866 21.6031 30.5726C21.6031 29.7456 21.4761 28.9406 21.2251 28.1646Z" fill="white"/>
</svg>
