<svg width="25" height="25" viewBox="0 0 25 25" fill="none" xmlns="http://www.w3.org/2000/svg">
<path fill-rule="evenodd" clip-rule="evenodd" d="M18.969 17.9616V13.5914C18.969 11.25 17.719 10.1604 16.0526 10.1604C14.7079 10.1604 14.1052 10.9004 13.7694 11.4194V10.3395H11.2358C11.2694 11.0548 11.2358 17.9616 11.2358 17.9616H13.7694V13.7048C13.7694 13.4776 13.7858 13.25 13.853 13.0873C14.0358 12.6321 14.4526 12.1608 15.1523 12.1608C16.0694 12.1608 16.4358 12.8597 16.4358 13.8839V17.9619H18.969V17.9616ZM8.56681 9.29924C9.45002 9.29924 10.0004 8.71342 10.0004 7.9817C9.98397 7.23431 9.45002 6.66528 8.5836 6.66528C7.71718 6.66528 7.15039 7.23394 7.15039 7.9817C7.15039 8.71342 7.70039 9.29924 8.55076 9.29924H8.56681ZM12.6866 23.8806C6.50449 23.8806 1.49255 18.8686 1.49255 12.6866C1.49255 6.50409 6.50449 1.49252 12.6866 1.49252C18.8687 1.49252 23.8806 6.50409 23.8806 12.6866C23.8806 18.8686 18.8687 23.8806 12.6866 23.8806ZM9.8336 17.9616V10.3395H7.30039V17.9616H9.8336Z" fill="black"/>
</svg>
