<svg width="25" height="25" viewBox="0 0 25 25" fill="none" xmlns="http://www.w3.org/2000/svg">
<path d="M20.8333 3.125H4.16663C2.44084 3.125 1.04163 4.52422 1.04163 6.25V18.75C1.04163 20.4758 2.44084 21.875 4.16663 21.875H20.8333C22.5591 21.875 23.9583 20.4758 23.9583 18.75V6.25C23.9583 4.52422 22.5591 3.125 20.8333 3.125ZM20.8333 5.20833C20.9528 5.20833 21.0658 5.23255 21.1726 5.26953L12.5 12.2076L3.8273 5.26953C3.93433 5.23255 4.04709 5.20833 4.16663 5.20833H20.8333ZM20.8333 19.7917H4.16663C3.5911 19.7917 3.12496 19.3255 3.12496 18.75V7.37578L11.8492 14.3549C12.0393 14.5073 12.2698 14.5833 12.5 14.5833C12.7302 14.5833 12.9606 14.5073 13.1507 14.3549L21.875 7.37578V18.75C21.875 19.3255 21.4088 19.7917 20.8333 19.7917Z" fill="black"/>
</svg>
