<svg width="45" height="45" viewBox="0 0 45 45" fill="none" xmlns="http://www.w3.org/2000/svg">
<path d="M12.9826 7.77796H14.5907V9.53929H16.3496V4.27911H14.5907V6.01742H12.9826V4.27911H11.2244V9.53929H12.9826V7.77796Z" fill="black"/>
<path d="M18.661 9.53929H20.4192V6.02457H21.9662V4.27911H17.114V6.02457H18.661V9.53929Z" fill="black"/>
<path d="M24.457 6.93341L25.6682 8.80269H25.6976L26.9065 6.93341V9.53929H28.6583V4.27911H26.8247L25.6976 6.13014L24.5705 4.27911H22.7377V9.53929H24.457V6.93341Z" fill="black"/>
<path d="M33.7637 7.80177H31.2912V4.27911H29.533V9.53929H33.7637V7.80177Z" fill="black"/>
<path d="M8.69075 11.8475L11.2053 40.051L22.4933 43.1839L33.7899 40.0526L36.3092 11.8475H8.69075V11.8475ZM30.8538 21.0709H22.4996H17.6165L17.9324 24.6134H22.4996H30.5395L29.591 35.2361L22.4996 37.2007L22.4948 37.2022L15.4083 35.2361L14.9137 29.6799H18.3856L18.6428 32.562L22.4956 33.6034L22.5004 33.6018L26.3572 32.5604L26.7589 28.0741H22.5004H14.7701L13.8358 17.6133H22.4996H31.1626L30.8538 21.0709Z" fill="black"/>
</svg>
