<svg width="45" height="45" viewBox="0 0 45 45" fill="none" xmlns="http://www.w3.org/2000/svg">
<path d="M22.5 40.0781C32.2081 40.0781 40.0781 32.2081 40.0781 22.5C40.0781 12.7919 32.2081 4.92188 22.5 4.92188C12.7919 4.92188 4.92188 12.7919 4.92188 22.5C4.92188 32.2081 12.7919 40.0781 22.5 40.0781Z" fill="#F0DB4F"/>
<path d="M17.0156 15.6797H20.0742V24.293C20.0742 28.1602 18.2109 29.5313 15.2578 29.5313C14.5195 29.5313 13.6055 29.4258 13.0078 29.2148L13.3594 26.7188C13.7813 26.8594 14.3438 26.9648 14.9414 26.9648C16.2422 26.9648 17.0508 26.3672 17.0508 24.293L17.0156 15.6797Z" fill="#323330"/>
<path d="M22.7813 26.1563C23.5898 26.5781 24.8906 27 26.1914 27C27.5977 27 28.3359 26.4023 28.3359 25.4883C28.3359 24.6445 27.7031 24.1523 26.0508 23.5898C23.8008 22.7812 22.2891 21.5156 22.2891 19.5117C22.2891 17.2266 24.2578 15.4688 27.457 15.4688C29.0039 15.4688 30.1289 15.7852 30.9375 16.1719L30.2344 18.6328C29.707 18.3867 28.7227 18 27.4219 18C26.0859 18 25.4531 18.6328 25.4531 19.3008C25.4531 20.1797 26.1914 20.5664 27.9844 21.2344C30.375 22.1133 31.5 23.3789 31.5 25.3125C31.5 27.5977 29.7773 29.5312 26.0156 29.5312C24.4688 29.5312 22.9219 29.1094 22.1484 28.6875L22.7813 26.1563Z" fill="#323330"/>
</svg>
