<svg width="45" height="28" viewBox="0 0 45 28" fill="none" xmlns="http://www.w3.org/2000/svg">
<g clip-path="url(#clip0)">
<path d="M10.6181 7.08058H19.1055V7.75517H11.3961V12.8324H18.6458V13.507H11.3961V19.0812H19.1939V19.7558H10.6181V7.08058ZM19.8658 7.08058H20.7676L24.7638 12.6548L28.8484 7.08058L34.404 0L25.2766 13.2407L29.98 19.7558H29.0429L24.7638 13.8265L20.467 19.7558H19.5476L24.2864 13.2407L19.8658 7.08058ZM30.316 7.75517V7.08058H39.9881V7.75517H35.5322V19.7558H34.7542V7.75517H30.316ZM0 7.08058H0.972516L14.3829 27.148L8.84106 19.7558L0.813377 8.03921L0.778013 19.7558H0V7.08058ZM39.9097 18.8776C39.7507 18.8776 39.6315 18.7545 39.6315 18.5953C39.6315 18.4361 39.7507 18.313 39.9097 18.313C40.0705 18.313 40.1879 18.4361 40.1879 18.5953C40.1879 18.7545 40.0705 18.8776 39.9097 18.8776ZM40.6742 18.1349H41.0905C41.0962 18.3604 41.2608 18.5119 41.503 18.5119C41.7736 18.5119 41.9269 18.349 41.9269 18.0439V16.1113H42.3508V18.0458C42.3508 18.5953 42.0329 18.9117 41.5068 18.9117C41.0129 18.9117 40.6742 18.6048 40.6742 18.1349ZM42.9052 18.1102H43.3253C43.3613 18.3698 43.6148 18.5347 43.98 18.5347C44.3207 18.5347 44.5704 18.3585 44.5704 18.1159C44.5704 17.9075 44.4115 17.7825 44.0501 17.6972L43.6981 17.6119C43.2042 17.4963 42.979 17.2576 42.979 16.8559C42.979 16.369 43.3764 16.0449 43.9725 16.0449C44.5269 16.0449 44.9319 16.369 44.9565 16.8294H44.544C44.5042 16.5774 44.2847 16.4201 43.9668 16.4201C43.6319 16.4201 43.4086 16.5812 43.4086 16.8275C43.4086 17.0226 43.5524 17.1344 43.9081 17.2178L44.209 17.2917C44.7691 17.4224 45 17.6498 45 18.061C45 18.5839 44.595 18.9117 43.9479 18.9117C43.3423 18.9117 42.9355 18.5991 42.9052 18.1102Z" fill="black"/>
</g>
<defs>
<clipPath id="clip0">
<rect width="45" height="27.1582" fill="white"/>
</clipPath>
</defs>
</svg>
