<svg width="45" height="45" viewBox="0 0 45 45" fill="none" xmlns="http://www.w3.org/2000/svg">
<path d="M22.5 40.0781C32.2081 40.0781 40.0781 32.2081 40.0781 22.5C40.0781 12.7919 32.2081 4.92188 22.5 4.92188C12.7919 4.92188 4.92188 12.7919 4.92188 22.5C4.92188 32.2081 12.7919 40.0781 22.5 40.0781Z" fill="#292929"/>
<path d="M22.5 24.3984C23.5679 24.3984 24.4336 23.5327 24.4336 22.4648C24.4336 21.3969 23.5679 20.5312 22.5 20.5312C21.4321 20.5312 20.5664 21.3969 20.5664 22.4648C20.5664 23.5327 21.4321 24.3984 22.5 24.3984Z" fill="#00DBFC"/>
<path d="M32.2031 20.5664C31.5352 20.0039 30.5859 19.5117 29.4609 19.125C29.25 19.0547 29.0039 18.9844 28.7578 18.9141C28.793 18.7383 28.8281 18.5977 28.8633 18.4219C29.3906 15.8203 29.0039 13.7813 27.8789 13.1133C27.3164 12.7969 26.543 12.7969 25.6641 13.1133C24.8555 13.4297 23.9414 13.9922 23.0625 14.7656C22.8867 14.9063 22.7109 15.082 22.5352 15.2578C22.4297 15.1523 22.2891 15.0469 22.1836 14.9414C20.2148 13.1836 18.2461 12.4805 17.0859 13.1484C16.5234 13.4648 16.1367 14.1328 15.9609 15.082C15.8203 15.9258 15.8555 17.0156 16.1016 18.1758C16.1367 18.4219 16.207 18.6328 16.2773 18.8789C15.9961 18.9492 15.7148 19.0547 15.4688 19.125C13.1133 19.9336 11.707 21.1992 11.707 22.4648C11.707 23.1328 12.0938 23.8359 12.832 24.4336C13.5352 25.0313 14.5195 25.5586 15.6445 25.9453C15.8203 26.0156 16.0313 26.0859 16.2422 26.1211C16.1719 26.3672 16.1367 26.6484 16.0664 26.8945C15.6094 29.3203 15.9961 31.1836 17.0859 31.8164C17.3672 31.9922 17.7188 32.0625 18.1055 32.0625C18.4922 32.0625 18.9141 31.9922 19.3711 31.8164C20.25 31.5 21.1641 30.9375 22.0781 30.1289C22.2188 29.9883 22.3945 29.8477 22.5352 29.707C22.7461 29.8828 22.9219 30.0586 23.1328 30.2344C24.5039 31.4297 25.8398 32.0625 26.8945 32.0625C27.2813 32.0625 27.6328 31.9922 27.9141 31.8164C28.4766 31.4648 28.8984 30.7969 29.0742 29.8477C29.25 28.9336 29.2148 27.8438 28.9688 26.6484C28.9336 26.4727 28.8984 26.2617 28.8281 26.0859C28.9688 26.0508 29.1094 26.0156 29.2148 25.9453C31.7461 25.1016 33.293 23.7656 33.293 22.4297C33.293 21.832 32.9062 21.1641 32.2031 20.5664ZM25.9805 13.9922C26.6133 13.7813 27.1055 13.7461 27.4219 13.9219C28.0547 14.2734 28.4766 15.7852 27.9844 18.2461C27.9492 18.3867 27.9141 18.5273 27.8789 18.668C26.9648 18.457 26.0156 18.3164 24.9961 18.2109C24.3984 17.3672 23.8008 16.5938 23.168 15.9258C23.3438 15.75 23.4844 15.6094 23.6602 15.4688C24.4688 14.7656 25.2773 14.2734 25.9805 13.9922ZM25.5234 24.2578C25.1719 24.8555 24.8555 25.418 24.5039 25.9102C23.8711 25.9453 23.2031 25.9805 22.5352 25.9805C21.8672 25.9805 21.1992 25.9453 20.5664 25.9102C20.2148 25.3828 19.8281 24.8203 19.5117 24.2227C19.1602 23.6602 18.8789 23.0625 18.5977 22.4648C18.8789 21.8672 19.1953 21.3047 19.5117 20.7422C19.8633 20.1797 20.2148 19.6172 20.5664 19.0547C21.1992 19.0195 21.8672 18.9844 22.5352 18.9844C23.2031 18.9844 23.8711 19.0195 24.5039 19.0547C24.8555 19.582 25.207 20.1445 25.5586 20.707C25.9102 21.3047 26.2266 21.8672 26.5078 22.4297C26.1563 23.0625 25.875 23.6602 25.5234 24.2578ZM26.9297 23.5547C27.2109 24.2227 27.457 24.8555 27.668 25.4531C27.0352 25.5938 26.3672 25.6992 25.6641 25.8047C25.875 25.4531 26.1211 25.0664 26.332 24.7148C26.543 24.3281 26.7539 23.9414 26.9297 23.5547ZM22.5352 28.4414C22.1133 27.9844 21.6563 27.457 21.2344 26.8945C21.6563 26.8945 22.0781 26.9297 22.5 26.9297C22.957 26.9297 23.3789 26.9297 23.8008 26.8945C23.3789 27.457 22.957 27.9844 22.5352 28.4414ZM19.3711 25.8047C18.668 25.7344 18 25.6289 17.3672 25.4883C17.543 24.8555 17.7891 24.2227 18.0703 23.5898C18.2813 23.9766 18.457 24.3281 18.668 24.7148C18.9141 25.1016 19.125 25.4531 19.3711 25.8047ZM18.7031 20.2852C18.4922 20.6719 18.2813 21.0234 18.1055 21.4102C17.8242 20.7773 17.6133 20.1445 17.4023 19.5469C18.0352 19.4063 18.668 19.3008 19.3711 19.1953C19.125 19.5469 18.9141 19.9336 18.7031 20.2852ZM22.5 16.5938C22.9219 17.0508 23.3437 17.5781 23.7656 18.1406C23.3437 18.1055 22.9219 18.1055 22.4648 18.1055C22.043 18.1055 21.6211 18.1055 21.1992 18.1406C21.6562 17.5781 22.0781 17.0508 22.5 16.5938ZM26.2969 20.2852C26.0859 19.8984 25.875 19.5469 25.6289 19.1953C26.332 19.2656 26.9648 19.4063 27.5977 19.5469C27.4219 20.1445 27.1758 20.7773 26.8945 21.4102C26.7539 21.0586 26.543 20.6719 26.2969 20.2852ZM16.9805 18C16.7695 16.9453 16.7344 15.9961 16.875 15.2578C16.9805 14.625 17.2266 14.168 17.543 13.957C18.1758 13.6055 19.6875 13.957 21.5508 15.6445C21.6563 15.75 21.7617 15.8555 21.8672 15.9609C21.2344 16.6289 20.6367 17.4023 20.0391 18.2461C19.0195 18.3516 18.0352 18.4922 17.1562 18.7031C17.0859 18.4219 17.0508 18.2109 16.9805 18ZM15.9609 25.1016C13.6758 24.3281 12.6211 23.2031 12.6211 22.4648C12.6211 21.7617 13.6055 20.7422 15.75 20.0039C15.9961 19.9336 16.2422 19.8281 16.4883 19.7578C16.7695 20.6367 17.1211 21.5508 17.543 22.5C17.1211 23.4492 16.7344 24.3633 16.4883 25.2773C16.3125 25.207 16.1367 25.1719 15.9609 25.1016ZM18.1055 31.1836C17.8594 31.1836 17.6836 31.1484 17.543 31.043C16.9453 30.6914 16.5234 29.3555 16.9805 27.1055C17.0156 26.8594 17.0859 26.6484 17.1211 26.4023C18 26.6133 18.9844 26.7539 20.0391 26.8242C20.6367 27.668 21.2695 28.4414 21.9023 29.1094C21.7617 29.25 21.6211 29.3555 21.4805 29.4961C20.1094 30.6914 18.8789 31.1836 18.1055 31.1836ZM28.0547 26.8594C28.5117 29.2148 28.0547 30.6914 27.457 31.043C26.8594 31.3945 25.4883 31.0781 23.7656 29.5664C23.5898 29.4258 23.4141 29.25 23.2383 29.0742C23.8359 28.4063 24.4688 27.6328 25.0664 26.7891C26.1211 26.6836 27.1055 26.543 27.9844 26.332C27.9844 26.5078 28.0195 26.6836 28.0547 26.8594ZM28.9336 25.1016C28.8281 25.1367 28.6875 25.1719 28.582 25.207C28.3008 24.3633 27.9492 23.4141 27.4922 22.4648C27.9141 21.5508 28.2656 20.6367 28.5469 19.7578C28.7578 19.8281 28.9688 19.8984 29.1797 19.9688C30.1992 20.3203 31.043 20.7773 31.6055 21.2344C32.0977 21.6563 32.3789 22.0781 32.3789 22.4648C32.3789 23.2031 31.2891 24.3281 28.9336 25.1016Z" fill="#00DBFC"/>
</svg>
