<svg width="45" height="45" viewBox="0 0 45 45" fill="none" xmlns="http://www.w3.org/2000/svg">
<path d="M22.5 40.0781C32.2081 40.0781 40.0781 32.2081 40.0781 22.5C40.0781 12.7919 32.2081 4.92188 22.5 4.92188C12.7919 4.92188 4.92188 12.7919 4.92188 22.5C4.92188 32.2081 12.7919 40.0781 22.5 40.0781Z" fill="#CC6699"/>
<path d="M31.957 14.6953C31.7461 13.8516 31.1484 13.1484 30.2344 12.6562C28.4414 11.707 25.5586 11.6719 22.9219 12.6211C21.3398 13.1836 18.3516 14.4492 16.1016 16.5234C13.8516 18.6328 13.5 20.4961 13.6758 21.2344C14.0625 23.2734 16.207 24.7148 17.8945 25.9102C18.3516 26.2266 18.7734 26.5078 19.0898 26.7891C18.1406 27.2812 15.5742 28.7227 14.8711 30.2344C14.3438 31.4297 14.5898 32.3086 14.8008 32.6953C15.0117 33.1523 15.3633 33.5039 15.7148 33.6094C16.0664 33.7148 16.4531 33.75 16.8398 33.75C18.3516 33.75 19.8281 32.9414 20.7422 31.5703C21.6563 30.1992 21.7266 28.3711 21.3047 27.2461C21.9023 27.1055 22.5352 27.1055 23.2383 27.1758C24.6094 27.3516 25.2773 27.8789 25.5938 28.3008C25.9453 28.7578 26.0156 29.2148 25.9805 29.4961C25.9102 30.0234 25.4883 30.3398 25.2773 30.4805C25.1016 30.5859 24.9609 30.6914 24.9961 30.9023C25.0664 31.1836 25.3477 31.1484 25.4531 31.1484C25.7695 31.0781 26.8945 30.5156 26.9648 29.25C27 28.4766 26.6836 27.7031 26.0859 27.0703C25.3125 26.2617 24.1523 25.8398 22.8164 25.875C21.832 25.875 21.1641 25.9805 20.6367 26.1562L20.6016 26.1211C20.1094 25.5937 19.4414 25.1016 18.8438 24.6094C17.4375 23.5547 16.1367 22.5352 16.207 21.0234C16.3125 19.125 18.1758 17.2617 21.7969 15.4687C24.9961 13.8867 27.5977 13.8164 28.9688 14.3086C29.5313 14.5195 29.918 14.8008 30.0586 15.1172C30.3398 15.7148 30.2344 16.4883 29.7422 17.332C28.9336 18.7383 26.8945 20.4961 23.7656 20.8477C21.8672 21.0586 21.0586 20.2148 21.0234 20.1797C20.8125 19.9336 20.6719 19.793 20.4258 19.9336C20.1445 20.0742 20.2852 20.4609 20.3555 20.6016C20.4961 20.9883 21.0938 21.6562 22.1133 22.0078C22.9219 22.2891 24.9961 22.4648 27.5625 21.4805C30.5156 20.2852 32.5547 17.1211 31.957 14.6953ZM19.8281 29.6719C19.793 29.7422 19.793 29.8125 19.7578 29.8828C19.7227 29.9531 19.6875 30.0234 19.6875 30.0937C19.5469 30.4102 19.3359 30.7266 19.0547 31.0078C18.2461 31.8867 17.1563 32.1328 16.8047 31.9219C16.6992 31.8516 16.6641 31.7461 16.6289 31.6055C16.5586 31.1836 16.8047 30.3398 17.543 29.6016C18.4219 28.6875 19.6523 28.0195 19.9336 27.8789C20.0391 28.5117 20.0039 29.1094 19.8281 29.6719Z" fill="white"/>
</svg>
