<svg width="45" height="45" viewBox="0 0 45 45" fill="none" xmlns="http://www.w3.org/2000/svg">
<path d="M35.1562 11.25H1.40625V33.75H35.1562L43.5938 22.5L35.1562 11.25Z" stroke="black" stroke-width="2" stroke-linejoin="round"/>
<path d="M7.03125 25.3125V26.7188C7.03125 27.0917 7.17941 27.4494 7.44313 27.7131C7.70685 27.9768 8.06454 28.125 8.4375 28.125H11.25C11.623 28.125 11.9806 27.9768 12.2444 27.7131C12.5081 27.4494 12.6562 27.0917 12.6562 26.7188V23.9062C12.6562 23.5333 12.5081 23.1756 12.2444 22.9119C11.9806 22.6482 11.623 22.5 11.25 22.5H8.4375" stroke="black" stroke-width="2" stroke-linejoin="round"/>
<path d="M12.6562 19.6875V18.2812C12.6562 17.9083 12.5081 17.5506 12.2444 17.2869C11.9806 17.0232 11.623 16.875 11.25 16.875H8.4375C8.06454 16.875 7.70685 17.0232 7.44313 17.2869C7.17941 17.5506 7.03125 17.9083 7.03125 18.2812V21.0938C7.03125 21.4667 7.17941 21.8244 7.44313 22.0881C7.70685 22.3518 8.06454 22.5 8.4375 22.5H11.25" stroke="black" stroke-width="2" stroke-linejoin="round"/>
<path d="M22.5 28.125H16.875V16.875H22.5" stroke="black" stroke-width="2" stroke-linejoin="round"/>
<path d="M16.875 22.5H22.5" stroke="black" stroke-width="2" stroke-linejoin="round"/>
<path d="M30.9375 16.875H26.7188C25.9421 16.875 25.3125 17.5046 25.3125 18.2812V26.7188C25.3125 27.4954 25.9421 28.125 26.7188 28.125H30.9375C31.7142 28.125 32.3438 27.4954 32.3438 26.7188V18.2812C32.3438 17.5046 31.7142 16.875 30.9375 16.875Z" stroke="black" stroke-width="2" stroke-linejoin="round"/>
<path d="M39.375 22.5H36.5625" stroke="black" stroke-width="2" stroke-linejoin="round"/>
</svg>
