<svg width="35" height="35" viewBox="0 0 35 35" fill="none" xmlns="http://www.w3.org/2000/svg">
<rect width="35" height="35" rx="17.5" fill="#2A2D40"/>
<path d="M9.92285 14.8906V19.6416C9.92285 20.3968 9.68034 20.9958 9.19531 21.4385C8.71354 21.8779 8.07064 22.0977 7.2666 22.0977C6.4528 22.0977 5.80664 21.8812 5.32812 21.4482C4.84961 21.012 4.61035 20.4082 4.61035 19.6367V14.8906H5.84082V19.6465C5.84082 20.1217 5.96126 20.4847 6.20215 20.7354C6.44303 20.986 6.79785 21.1113 7.2666 21.1113C8.21712 21.1113 8.69238 20.61 8.69238 19.6074V14.8906H9.92285ZM13.6924 17.459L15.1865 14.8906H16.6123L14.4639 18.416L16.6611 22H15.2207L13.6924 19.3926L12.1592 22H10.7236L12.9258 18.416L10.7725 14.8906H12.1982L13.6924 17.459ZM17.7939 22.6104H16.8613L19.6592 14.8906H20.5918L17.7939 22.6104ZM26.7295 14.8906V19.6416C26.7295 20.3968 26.487 20.9958 26.002 21.4385C25.5202 21.8779 24.8773 22.0977 24.0732 22.0977C23.2594 22.0977 22.6133 21.8812 22.1348 21.4482C21.6562 21.012 21.417 20.4082 21.417 19.6367V14.8906H22.6475V19.6465C22.6475 20.1217 22.7679 20.4847 23.0088 20.7354C23.2497 20.986 23.6045 21.1113 24.0732 21.1113C25.0238 21.1113 25.499 20.61 25.499 19.6074V14.8906H26.7295ZM29.3564 22H28.126V14.8906H29.3564V22Z" fill="white"/>
</svg>
