<svg width="90" height="45" viewBox="0 0 90 45" fill="none" xmlns="http://www.w3.org/2000/svg">
<path d="M33.2775 20.679C33.2775 19.479 32.1263 18.2205 30.1253 18.2205C27.8813 18.2205 25.4175 19.8727 25.0403 23.1705C24.6548 26.5005 26.718 27.9802 28.7978 27.9802C30.8775 27.9802 31.9665 27.1665 33.0803 26.0812C32.1225 24.8737 30.8858 25.4317 30.6488 25.5547C30.2564 25.7733 29.8122 25.8814 29.3633 25.8675C28.5608 25.8675 27.7418 25.506 27.7418 24.0015C32.8838 23.4915 33.2768 21.8715 33.2768 20.679H33.2775ZM30.729 20.8762C30.696 21.246 30.549 21.879 27.945 22.2337C28.4925 20.2762 29.5425 20.1292 30.0248 20.1292C30.1225 20.1248 30.22 20.1414 30.3108 20.178C30.4015 20.2146 30.4833 20.2703 30.5506 20.3413C30.6179 20.4123 30.6692 20.4969 30.7009 20.5895C30.7325 20.6821 30.7439 20.7804 30.7343 20.8777L30.729 20.8762ZM22.02 21.1972L20.8245 24.9712L19.9808 18.4185C18.0983 18.4185 17.0858 19.767 16.5578 21.189L15.0998 24.9795L14.895 21.2295C14.784 19.4865 13.1925 18.426 11.9063 18.426L13.4618 27.906C15.4343 27.8985 16.4993 26.5575 17.0565 25.1355L18.2895 21.9127C18.3008 22.044 19.1415 27.9067 19.1415 27.9067C21.123 27.9067 22.188 26.649 22.7588 25.2757L25.5338 18.4267C23.58 18.4267 22.5503 19.767 22.0185 21.1972H22.02ZM40.5495 18.1972C39.3293 18.1972 38.397 18.8632 37.6095 19.8412V19.8337L38.313 14.136C36.6915 14.136 35.373 15.5505 35.1195 17.655L33.9 27.8325C34.8338 27.8325 35.8245 27.561 36.357 26.8702C36.8325 27.4867 37.5443 27.9802 38.601 27.9802C41.3355 27.9802 43.2113 24.7905 43.2113 21.7972C43.1948 19.0672 41.8763 18.2047 40.5578 18.2047L40.5495 18.1972ZM40.2945 23.0895C40.0095 24.7582 39.0825 25.893 38.1908 25.893C37.299 25.893 36.9053 25.4902 36.9053 25.4902C37.0778 24.0277 37.1843 23.1307 37.5113 22.3575C37.8383 21.5842 38.6168 20.3512 39.4275 20.3512C40.2225 20.3512 40.5825 21.4117 40.2953 23.0887L40.2945 23.0895ZM50.031 18.4192H48.123L48.1305 18.3202C48.2618 17.0707 48.5565 16.413 49.5285 16.3057C50.1923 16.2397 50.487 15.8947 50.5605 15.5167L50.7983 14.193C46.9733 14.1682 45.7628 15.828 45.4545 18.3615L45.447 18.4192H45.4058C44.7833 18.4192 44.0963 19.1265 43.9808 20.0227L43.9395 20.3512H45.2175L44.145 29.2462L43.8165 30.8415C43.8578 30.8415 43.9065 30.849 43.947 30.849C45.7395 30.783 46.887 29.361 47.1405 27.297L47.9775 20.3497H48.5775C49.167 20.3497 49.8555 19.7572 49.9755 18.771L50.031 18.4192ZM59.955 18.2542C57.7523 18.2542 55.6725 19.8817 55.035 22.4392C54.3975 24.9967 55.3635 28.0215 58.605 28.0215C61.8465 28.0215 63.7027 24.8715 63.7027 22.2495C63.7057 19.6432 61.9463 18.2535 59.9558 18.2535L59.955 18.2542ZM60.8475 23.0062C60.7335 24.1657 60.225 25.9252 58.833 25.9252C57.441 25.9252 57.6292 23.8702 57.7642 22.8915C57.912 21.8475 58.4933 20.3595 59.7458 20.3595C60.8723 20.3595 60.978 21.6997 60.8482 23.007L60.8475 23.0062ZM74.5875 21.189L73.392 24.963C73.3598 24.6667 72.549 18.4102 72.549 18.4102C70.6665 18.4102 69.6585 19.7587 69.1305 21.1807L67.6725 24.9712C67.665 24.6997 67.4678 21.2212 67.4678 21.2212C67.3493 19.4782 65.7593 18.4177 64.4678 18.4177L66.015 27.8977C67.9875 27.8902 69.0525 26.5492 69.6098 25.1272L70.8382 21.9045C70.8457 22.0357 71.6903 27.8985 71.6903 27.8985C73.6718 27.8985 74.7323 26.6407 75.3075 25.2675L78.0848 18.4185C76.1363 18.4185 75.1043 19.7587 74.58 21.189H74.5875ZM51.8325 14.1915L50.2275 27.189L49.899 28.7925C49.9395 28.7925 49.989 28.8 50.0295 28.8C51.756 28.7752 52.9845 27.255 53.2148 25.3387L54.1395 17.8815C54.42 15.6037 53.0693 14.19 51.8325 14.19V14.1915Z" fill="#4353FF"/>
</svg>
