<svg width="45" height="45" viewBox="0 0 45 45" fill="none" xmlns="http://www.w3.org/2000/svg">
<path d="M22.4912 5.625C13.2012 5.625 5.625 13.2012 5.625 22.5088C5.625 31.8076 13.2012 39.375 22.4912 39.375C23.2383 39.375 23.9678 39.3311 24.6797 39.2168C32.2119 38.25 38.1973 32.2998 39.208 24.7939C39.3223 24.0469 39.375 23.2822 39.375 22.5088C39.375 13.2012 31.7988 5.625 22.4912 5.625ZM7.33008 22.5088C7.33008 20.3115 7.80469 18.2197 8.64844 16.3389L15.8818 36.1582C10.8193 33.6973 7.33008 28.5029 7.33008 22.5088ZM24.46 37.5557C23.8184 37.6348 23.1592 37.6787 22.4912 37.6787C21.0059 37.6787 19.5732 37.459 18.2197 37.0547L19.8721 32.2207H19.8809L22.7549 23.8271L27.4219 36.6064C27.457 36.6768 27.501 36.7471 27.5361 36.8086C26.5518 37.1602 25.5234 37.4062 24.46 37.5557ZM24.5918 15.3896C25.5059 15.3457 26.3232 15.249 26.3232 15.249C27.1494 15.1611 27.0439 13.9482 26.2266 14.001C26.2266 14.001 23.7656 14.1943 22.1836 14.1943C20.6982 14.1943 18.1846 14.001 18.1846 14.001C17.376 13.9482 17.2705 15.2051 18.0967 15.249C18.0967 15.249 18.8613 15.3457 19.6875 15.3896L22.0518 21.8672L18.7295 31.8252L13.2012 15.3896C14.124 15.3457 14.9414 15.249 14.9414 15.249C15.75 15.1611 15.6621 13.9482 14.8447 14.001C14.8447 14.001 12.3926 14.1943 10.8018 14.1943C10.5117 14.1943 10.1777 14.1855 9.82617 14.1768C12.5332 10.0635 17.2002 7.34766 22.4912 7.34766C26.4463 7.34766 30.041 8.85938 32.7393 11.3203C32.6689 11.3203 32.6074 11.3115 32.5371 11.3115C31.043 11.3115 29.9883 12.6123 29.9883 14.0098C29.9883 15.2578 30.709 16.3125 31.4736 17.5605C32.0537 18.5713 32.7305 19.8721 32.7305 21.7441C32.7305 23.0449 32.3437 24.6797 31.5791 26.6396L30.0586 31.7021L24.5918 15.3896ZM30.1201 35.6221L31.3242 32.1328L34.752 22.2188C35.6221 20.0566 35.9033 18.3252 35.9033 16.7871C35.9033 16.2334 35.8682 15.7061 35.8066 15.2227C36.9932 17.3848 37.6699 19.8633 37.6699 22.5088C37.6699 23.2119 37.626 23.8975 37.5381 24.5742C36.8877 29.2939 34.0664 33.3281 30.1201 35.6221Z" fill="black"/>
</svg>
